<svg width="36" height="28" viewBox="0 0 36 28" fill="none" xmlns="http://www.w3.org/2000/svg">
<path d="M31 3.5H4.06188C2.04346 3.5 0.600954 5.4531 1.19454 7.38226L3.34839 14.3823C3.7357 15.641 4.89871 16.5 6.21572 16.5H26M31 3.5L26 16.5M31 3.5H33.1537C33.6648 3.5 34.1245 3.18881 34.3143 2.71424V2.71424C34.6427 1.89316 34.038 1 33.1537 1H32.189C31.7438 1 31.3127 1.15609 30.9707 1.4411L28.5 3.5M26 16.5L25.23 18.5534C24.7909 19.7243 23.6715 20.5 22.421 20.5H6" stroke="#F82462" stroke-width="2" stroke-linecap="round" stroke-linejoin="round"/>
<circle cx="8.5" cy="25.5" r="1.5" stroke="#F82462" stroke-width="2"/>
<circle cx="20.5" cy="25.5" r="1.5" stroke="#F82462" stroke-width="2"/>
</svg>
