<svg width="32" height="28" viewBox="0 0 32 28" fill="none" xmlns="http://www.w3.org/2000/svg">
<path d="M19.9525 2.25526L19.9508 2.25609C19.0012 2.73971 18.1309 3.44022 17.3923 4.29142L17.3922 4.29148C17.1892 4.52541 16.9965 4.77045 16.8151 5.02511L16.0002 6.16949L15.1858 5.02478C15.0044 4.76986 14.8117 4.52459 14.6088 4.29045C13.8692 3.43933 12.9997 2.73956 12.0485 2.25375L19.9525 2.25526ZM19.9525 2.25526C20.9009 1.77002 21.9298 1.5 23 1.5C24.1056 1.5 25.1574 1.72412 26.1136 2.12809L19.9525 2.25526ZM3.34311 3.84311L3.34267 3.84354C2.61832 4.567 2.03342 5.42919 1.62804 6.38647L3.34311 3.84311ZM3.34311 3.84311C4.06713 3.11909 4.9296 2.53324 5.88647 2.12804L3.34311 3.84311ZM28.6555 15.1573L28.6563 15.1565C29.3811 14.4325 29.9668 13.5703 30.3708 12.6138L30.3713 12.6128C30.7758 11.6583 31 10.6058 31 9.5C31 8.39364 30.7766 7.34149 30.3716 6.38792L30.3708 6.38617C29.9672 5.43073 29.3799 4.56807 28.6559 3.84311L28.6555 15.1573ZM28.6555 15.1573C28.2758 15.5375 25.2321 18.3085 22.1174 21.0677C20.5672 22.441 19.0133 23.7991 17.7822 24.8405C17.1658 25.3619 16.6367 25.7984 16.2323 26.1161C16.1481 26.1823 16.0707 26.2422 16 26.2959C15.9293 26.2422 15.8519 26.1822 15.7677 26.1161C15.3633 25.7984 14.8342 25.3619 14.2178 24.8405C12.9866 23.7991 11.4327 22.441 9.88247 21.0677C6.76789 18.3086 3.72354 15.5373 3.34311 15.1569C2.61909 14.4329 2.03324 13.5704 1.62804 12.6135L28.6555 15.1573ZM9 1.5C10.0713 1.5 11.1004 1.77005 12.0482 2.25359L5.88689 2.12786C6.8418 1.72413 7.89339 1.5 9 1.5ZM1 9.5C1 8.39433 1.22415 7.34175 1.62786 6.38689V12.6131C1.22415 11.6582 1 10.6057 1 9.5ZM26.1138 2.12817C27.0701 2.53316 27.9314 3.1187 28.6555 3.84267L26.1138 2.12817Z" stroke="#F82462" stroke-width="2"/>
</svg>
