<svg width="271" height="59" viewBox="0 0 271 59" fill="none" xmlns="http://www.w3.org/2000/svg">
<path d="M145.831 17.2476C145.831 15.6118 146.201 14.1063 146.942 12.731C147.691 11.3475 148.736 10.2489 150.079 9.43506C151.43 8.61312 152.927 8.20215 154.571 8.20215C155.328 8.20215 156.028 8.27132 156.671 8.40967C157.314 8.54801 157.908 8.75553 158.453 9.03223C158.998 9.30892 159.483 9.60596 159.906 9.92334C160.337 10.2326 160.801 10.6151 161.297 11.0708L160.455 11.9497C159.609 11.1278 158.718 10.493 157.782 10.0454C156.846 9.59782 155.768 9.37402 154.547 9.37402C153.513 9.37402 152.541 9.57747 151.629 9.98438C150.718 10.3913 149.937 10.9447 149.286 11.6445C148.635 12.3363 148.118 13.1704 147.735 14.147C147.361 15.1154 147.174 16.1489 147.174 17.2476C147.174 18.3381 147.365 19.3716 147.748 20.3481C148.13 21.3166 148.647 22.1507 149.298 22.8506C149.957 23.5505 150.742 24.1038 151.654 24.5107C152.573 24.9176 153.546 25.1211 154.571 25.1211C155.784 25.1211 156.858 24.8973 157.794 24.4497C158.73 24.0021 159.666 23.3185 160.602 22.3989L161.48 23.2534C160.463 24.2544 159.413 25.0153 158.331 25.5361C157.249 26.0488 155.979 26.3052 154.522 26.3052C152.887 26.3052 151.402 25.9064 150.067 25.1089C148.732 24.3032 147.691 23.2127 146.942 21.8374C146.201 20.4539 145.831 18.924 145.831 17.2476Z" fill="white"/>
<path d="M164.557 26V8.49512H171.906C172.956 8.49512 173.904 8.64974 174.75 8.95898C175.604 9.26823 176.3 9.69141 176.837 10.2285C177.716 11.1074 178.156 12.2061 178.156 13.5244C178.156 14.9404 177.688 16.0757 176.752 16.9302C175.816 17.7847 174.575 18.3177 173.029 18.5293L178.803 26H177.155L171.576 18.749H165.851V26H164.557ZM165.851 17.5771H171.759C173.265 17.5771 174.49 17.2191 175.434 16.5029C176.386 15.7786 176.862 14.7858 176.862 13.5244C176.862 12.3363 176.418 11.4045 175.531 10.729C174.644 10.0454 173.411 9.70361 171.833 9.70361H165.851V17.5771Z" fill="white"/>
<path d="M182.124 26V8.49512H194.575V9.70361H183.417V16.5762H193.452V17.7725H183.417V24.8037H194.697V26H182.124Z" fill="white"/>
<path d="M196.87 26L205.024 8.37305H206.27L214.424 26H212.996L210.774 21.105H200.447L198.225 26H196.87ZM200.996 19.9209H210.225L205.623 9.80127L200.996 19.9209Z" fill="white"/>
<path d="M214.131 9.70361V8.49512H227.632V9.70361H221.529V26H220.223V9.70361H214.131Z" fill="white"/>
<path d="M231.258 26V8.49512H232.564V26H231.258Z" fill="white"/>
<path d="M235.946 8.49512H237.399L244.247 24.5962L251.12 8.49512H252.499L244.796 26.1221H243.649L235.946 8.49512Z" fill="white"/>
<path d="M255.698 26V8.49512H268.149V9.70361H256.992V16.5762H267.026V17.7725H256.992V24.8037H268.271V26H255.698Z" fill="white"/>
<path d="M146.6 51V33.4951H147.821L154.852 43.8467L161.871 33.4951H163.104V51H161.798V35.8022L154.876 45.873H154.779L147.845 35.8022V51H146.6Z" fill="white"/>
<path d="M166.303 51L174.457 33.373H175.702L183.856 51H182.428L180.207 46.105H169.879L167.658 51H166.303ZM170.429 44.9209H179.657L175.055 34.8013L170.429 44.9209Z" fill="white"/>
<path d="M187.055 51V33.4951H194.404C195.454 33.4951 196.402 33.6497 197.248 33.959C198.103 34.2682 198.798 34.6914 199.335 35.2285C200.214 36.1074 200.654 37.2061 200.654 38.5244C200.654 39.9404 200.186 41.0757 199.25 41.9302C198.314 42.7847 197.073 43.3177 195.527 43.5293L201.301 51H199.653L194.074 43.749H188.349V51H187.055ZM188.349 42.5771H194.257C195.763 42.5771 196.988 42.2191 197.932 41.5029C198.884 40.7786 199.36 39.7858 199.36 38.5244C199.36 37.3363 198.916 36.4045 198.029 35.729C197.142 35.0454 195.909 34.7036 194.331 34.7036H188.349V42.5771Z" fill="white"/>
<path d="M204.622 51V33.4951H205.916V44.9941L217.073 33.4951H218.843L211.201 41.2222L219.172 51H217.476L210.273 42.1499L205.916 46.5444V51H204.622Z" fill="white"/>
<path d="M221.993 51V33.4951H234.444V34.7036H223.287V41.5762H233.321V42.7725H223.287V49.8037H234.566V51H221.993Z" fill="white"/>
<path d="M236.996 34.7036V33.4951H250.497V34.7036H244.393V51H243.087V34.7036H236.996Z" fill="white"/>
<path d="M6 0H126V59H0L6 0Z" fill="white"/>
<path d="M31.196 29.3825C31.196 41.4873 38.5378 51.0445 38.2936 50.9709C27.6396 47.5397 21.0763 41.664 21.0763 29.5592C21.0763 17.4545 31.196 8.4863 39.7131 8.1476C39.9726 8.13287 31.196 17.2777 31.196 29.3825Z" fill="#F82462"/>
<path d="M105.406 8.14778H96.5229V50.9711H105.406V8.14778Z" fill="#F82462"/>
<path d="M78.8479 30.6344V46.4354L56.1205 8.14778H65.7518L78.8479 30.6344Z" fill="#F82462"/>
</svg>
