<svg width="12" height="16" viewBox="-1 -2 14 20" fill="none" xmlns="http://www.w3.org/2000/svg">
<path d="M5.375 15.6874L4.54965 16.2521L4.55577 16.2609L5.375 15.6874ZM3.28125 12.6874L2.45985 13.2578L2.46467 13.2646L3.28125 12.6874ZM1.21875 9.65616L0.376053 10.1945L0.376479 10.1952L1.21875 9.65616ZM0.25 7.78116L-0.702493 8.08596L-0.698683 8.09739L0.25 7.78116ZM11.75 7.78116L12.6988 8.09741L12.7024 8.08593L11.75 7.78116ZM10.7812 9.65616L11.6235 10.1952L11.6239 10.1945L10.7812 9.65616ZM8.71875 12.6874L9.53879 13.2597L9.54012 13.2578L8.71875 12.6874ZM6.625 15.6874L7.44423 16.2609L7.44503 16.2597L6.625 15.6874ZM7.75 4.24991L7.02801 4.94181C7.03783 4.95205 7.04785 4.96208 7.05809 4.9719L7.75 4.24991ZM4.21875 7.78116L3.49676 8.47306C3.50657 8.4833 3.5166 8.49333 3.52684 8.50315L4.21875 7.78116ZM6.20031 15.1227C5.65467 14.3252 4.95355 13.3207 4.09783 12.1102L2.46467 13.2646C3.31729 14.4708 4.012 15.4662 4.54969 16.2521L6.20031 15.1227ZM4.10262 12.117C3.05929 10.6146 2.38255 9.61949 2.06102 9.1171L0.376479 10.1952C0.72162 10.7345 1.41988 11.7602 2.45988 13.2578L4.10262 12.117ZM2.06145 9.11777C1.60072 8.39663 1.32754 7.85151 1.19868 7.46493L-0.698683 8.09739C-0.494209 8.71081 -0.12155 9.41569 0.376054 10.1945L2.06145 9.11777ZM1.20242 7.47638C1.07331 7.0729 1 6.58496 1 5.99991H-1C-1 6.74819 -0.906643 7.44775 -0.702424 8.08593L1.20242 7.47638ZM1 5.99991C1 5.09226 1.22446 4.26842 1.67343 3.50864L-0.0484265 2.49118C-0.682795 3.56473 -1 4.74089 -1 5.99991H1ZM1.67343 3.50864C2.12928 2.7372 2.73729 2.12919 3.50873 1.67333L2.49127 -0.0485181C1.42938 0.578963 0.579055 1.42929 -0.0484265 2.49118L1.67343 3.50864ZM3.50873 1.67333C4.26852 1.22437 5.09235 0.999908 6 0.999908V-1.00009C4.74098 -1.00009 3.56482 -0.682886 2.49127 -0.0485181L3.50873 1.67333ZM6 0.999908C6.90765 0.999908 7.73148 1.22437 8.49127 1.67333L9.50873 -0.0485181C8.43518 -0.682886 7.25902 -1.00009 6 -1.00009V0.999908ZM8.49127 1.67333C9.26271 2.12919 9.87072 2.7372 10.3266 3.50864L12.0484 2.49118C11.4209 1.42929 10.5706 0.578963 9.50873 -0.0485181L8.49127 1.67333ZM10.3266 3.50864C10.7755 4.26842 11 5.09226 11 5.99991H13C13 4.74089 12.6828 3.56473 12.0484 2.49118L10.3266 3.50864ZM11 5.99991C11 6.58496 10.9267 7.0729 10.7976 7.47638L12.7024 8.08593C12.9066 7.44775 13 6.74819 13 5.99991H11ZM10.8013 7.46493C10.6725 7.85151 10.3993 8.39663 9.93855 9.11777L11.6239 10.1945C12.1215 9.41569 12.4942 8.71081 12.6987 8.09739L10.8013 7.46493ZM9.93898 9.1171C9.61745 9.61949 8.94071 10.6146 7.89738 12.117L9.54012 13.2578C10.5801 11.7602 11.2784 10.7345 11.6235 10.1952L9.93898 9.1171ZM7.89872 12.1151L5.80497 15.1151L7.44503 16.2597L9.53878 13.2597L7.89872 12.1151ZM5.80577 15.1139C5.81927 15.0947 5.85418 15.0563 5.91216 15.0274C5.9678 14.9995 6.00542 14.9999 6 14.9999V16.9999C6.57213 16.9999 7.09737 16.7564 7.44423 16.2609L5.80577 15.1139ZM6 14.9999C5.99458 14.9999 6.0322 14.9995 6.08784 15.0274C6.14582 15.0563 6.18073 15.0947 6.19423 15.1139L4.55577 16.2609C4.90263 16.7564 5.42787 16.9999 6 16.9999V14.9999ZM6 9.49991C6.94839 9.49991 7.78736 9.15801 8.45711 8.48827L7.04289 7.07405C6.7543 7.36264 6.42661 7.49991 6 7.49991V9.49991ZM8.45711 8.48827C9.13866 7.80671 9.5 6.96097 9.5 5.99991H7.5C7.5 6.41385 7.36134 6.7556 7.04289 7.07405L8.45711 8.48827ZM9.5 5.99991C9.5 5.03756 9.13708 4.19413 8.44191 3.52792L7.05809 4.9719C7.36292 5.26402 7.5 5.58726 7.5 5.99991H9.5ZM8.47199 3.558C7.80577 2.86282 6.96235 2.49991 6 2.49991V4.49991C6.41265 4.49991 6.73589 4.63699 7.02801 4.94181L8.47199 3.558ZM6 2.49991C5.03894 2.49991 4.1932 2.86125 3.51164 3.5428L4.92586 4.95702C5.2443 4.63857 5.58606 4.49991 6 4.49991V2.49991ZM3.51164 3.5428C2.8419 4.21255 2.5 5.05152 2.5 5.99991H4.5C4.5 5.57329 4.63727 5.2456 4.92586 4.95702L3.51164 3.5428ZM2.5 5.99991C2.5 6.94736 2.84064 7.78842 3.49676 8.47306L4.94074 7.08925C4.63852 6.7739 4.5 6.42745 4.5 5.99991H2.5ZM3.52684 8.50315C4.21149 9.15926 5.05255 9.49991 6 9.49991V7.49991C5.57245 7.49991 5.22601 7.36139 4.91066 7.05917L3.52684 8.50315Z" fill="#F74377"/>
</svg>
