<svg width="114" height="124" viewBox="0 0 114 124" fill="none" xmlns="http://www.w3.org/2000/svg">
<path d="M93.6341 78.217C82.45 103.454 52.5124 114.663 25.2832 102.596C-1.94605 90.5288 3.76788 82.9713 14.952 57.7345C26.1361 32.4977 62.6054 9.79638 89.8346 21.8635C117.064 33.9305 104.818 52.9802 93.6341 78.217Z" fill="white" fill-opacity="0.2"/>
<path d="M89.3833 43.761H82.4827L80.8974 36.5704C80.2203 33.4988 77.5585 31.3535 74.4244 31.3535H50.4678C47.3337 31.3535 44.6718 33.4987 43.9947 36.5703L42.4093 43.761H40.7719V40.6929C40.7719 38.964 39.3704 37.5573 37.6478 37.5573H27.5466C25.824 37.5573 24.4225 38.964 24.4225 40.6929V43.761H24.202C21.3788 43.761 19.082 46.0664 19.082 48.9003V83.7074C19.082 86.5413 21.3788 88.8467 24.2021 88.8467H29.4385H47.9475C52.1272 91.5644 57.1059 93.1445 62.4459 93.1445C67.786 93.1445 72.7648 91.5644 76.9444 88.8467H89.3833C92.2066 88.8467 94.5034 86.5413 94.5034 83.7074V48.9003C94.5034 46.0664 92.2066 43.761 89.3833 43.761ZM46.871 37.2092C47.2473 35.5026 48.7263 34.3106 50.4676 34.3106H74.4242C76.1656 34.3106 77.6445 35.5024 78.0207 37.2092L79.4652 43.761H76.9444C72.7647 41.0433 67.786 39.4632 62.4459 39.4632C57.1059 39.4632 52.1272 41.0433 47.9475 43.761H45.4265L46.871 37.2092ZM27.3687 40.6929C27.3687 40.5944 27.4485 40.5144 27.5466 40.5144H37.6476C37.7457 40.5144 37.8256 40.5946 37.8256 40.6929V43.761H27.3687V40.6929ZM30.9116 85.8894V69.8293C30.9116 69.0127 30.2521 68.3507 29.4385 68.3507C28.6249 68.3507 27.9654 69.0127 27.9654 69.8293V85.8895H24.2021C23.0035 85.8895 22.0282 84.9105 22.0282 83.7074V48.9003C22.0282 47.697 23.0035 46.7182 24.2021 46.7182H25.8957H39.2986H43.5919H44.1823C38.969 51.6191 35.7054 58.5857 35.7054 66.3038C35.7054 74.0219 38.969 80.9884 44.1823 85.8894H30.9116ZM76.0468 85.8895C74.2909 87.1218 72.3625 88.122 70.3057 88.8467C67.8439 89.714 65.1991 90.1873 62.4459 90.1873C59.6928 90.1873 57.0479 89.7139 54.5862 88.8467C52.5294 88.122 50.6011 87.1218 48.845 85.8895C42.6875 81.5683 38.6515 74.4008 38.6515 66.3039C38.6515 58.207 42.6875 51.0395 48.845 46.7183C50.6009 45.4861 52.5294 44.4858 54.5862 43.7611C57.048 42.8938 59.6928 42.4205 62.4459 42.4205C65.1991 42.4205 67.844 42.8939 70.3057 43.7611C72.3625 44.4858 74.2908 45.4861 76.0468 46.7183C82.2044 51.0395 86.2403 58.207 86.2403 66.3039C86.2403 74.4008 82.2044 81.5683 76.0468 85.8895ZM91.5573 83.7073C91.5573 84.9105 90.5821 85.8894 89.3833 85.8894H80.7095C85.9229 80.9884 89.1865 74.0219 89.1865 66.3038C89.1865 58.5857 85.9229 51.6191 80.7095 46.7182H81.3H89.3833C90.5821 46.7182 91.5573 47.697 91.5573 48.9003V83.7073Z" fill="white"/>
<path d="M62.4453 46.8906C51.7813 46.8906 43.1055 55.5989 43.1055 66.3031C43.1055 77.0071 51.7813 85.7154 62.4453 85.7154C63.9991 85.7154 65.5457 85.5297 67.042 85.1634C67.8325 84.9699 68.3168 84.17 68.1242 83.3767C67.9315 82.5833 67.1344 82.0968 66.3441 82.2905C65.0759 82.601 63.7642 82.7583 62.4453 82.7583C53.4058 82.7583 46.0516 75.3766 46.0516 66.3032C46.0516 57.2298 53.4058 49.848 62.4453 49.848C71.4848 49.848 78.839 57.2297 78.839 66.3032C78.839 69.6102 77.8662 72.7988 76.0253 75.5243C75.5688 76.2002 75.7447 77.1197 76.418 77.5779C77.0909 78.036 78.0073 77.8598 78.464 77.1837C80.6367 73.9668 81.7851 70.2043 81.7851 66.3034C81.7851 55.5989 73.1093 46.8906 62.4453 46.8906Z" fill="white"/>
<path d="M29.4381 51.8281C26.4136 51.8281 23.9531 54.298 23.9531 57.3337C23.9531 60.3694 26.4137 62.8392 29.4381 62.8392C32.4625 62.8392 34.9231 60.3694 34.9231 57.3337C34.9231 54.298 32.4625 51.8281 29.4381 51.8281ZM29.4381 59.8822C28.0383 59.8822 26.8993 58.7389 26.8993 57.3338C26.8993 55.9287 28.0383 54.7855 29.4381 54.7855C30.838 54.7855 31.977 55.9287 31.977 57.3338C31.977 58.7389 30.8381 59.8822 29.4381 59.8822Z" fill="white"/>
<path d="M74.336 80.5645C74.3167 80.4714 74.2887 80.3782 74.2519 80.288C74.215 80.1993 74.1694 80.1136 74.1163 80.0337C74.0635 79.9524 74.0014 79.877 73.9337 79.809C73.8659 79.741 73.7895 79.6789 73.7098 79.6241C73.6287 79.5709 73.5433 79.5251 73.4549 79.4881C73.3665 79.4511 73.2739 79.4231 73.1796 79.4038C72.9896 79.3654 72.7937 79.3654 72.6036 79.4038C72.5092 79.4231 72.4164 79.4511 72.3282 79.4881C72.2396 79.5251 72.1544 79.5709 72.0733 79.6241C71.9938 79.6789 71.9187 79.741 71.8494 79.809C71.7817 79.877 71.7198 79.9524 71.6668 80.0337C71.6137 80.1136 71.5681 80.1993 71.5312 80.288C71.4944 80.3782 71.4664 80.4714 71.4473 80.5645C71.4281 80.6606 71.418 80.7582 71.418 80.8543C71.418 80.9504 71.4281 81.048 71.4473 81.1427C71.4664 81.2373 71.4944 81.3304 71.5312 81.4192C71.5681 81.5094 71.6137 81.5951 71.6668 81.675C71.7198 81.7563 71.7817 81.8317 71.8494 81.8997C71.9187 81.9677 71.9936 82.0298 72.0733 82.0831C72.1545 82.1363 72.2398 82.1821 72.3282 82.2191C72.4166 82.256 72.5092 82.2841 72.6036 82.3034C72.6992 82.3226 72.7951 82.3329 72.8909 82.3329C72.988 82.3329 73.0839 82.3226 73.1796 82.3034C73.2739 82.2841 73.3667 82.256 73.4549 82.2191C73.5435 82.1821 73.6289 82.1363 73.7098 82.0831C73.7893 82.0298 73.8659 81.9677 73.9337 81.8997C74.2077 81.6247 74.364 81.2432 74.364 80.8543C74.364 80.7582 74.355 80.6606 74.336 80.5645Z" fill="white"/>
</svg>
