<svg width="114" height="124" viewBox="0 0 114 124" fill="none" xmlns="http://www.w3.org/2000/svg">
<path opacity="0.2" d="M93.6341 78.217C82.45 103.454 52.5124 114.663 25.2832 102.596C-1.94605 90.5288 3.76789 82.9713 14.952 57.7345C26.1361 32.4977 62.6054 9.79638 89.8346 21.8635C117.064 33.9305 104.818 52.9802 93.6341 78.217Z" fill="#F82462"/>
<path d="M21.4648 44.3194H44.8852L48.4578 34.7568H76.6415L80.2141 44.3194H92.1228V85.7574H21.4648V44.3194Z" fill="white"/>
<path d="M62.4459 37.9632C56.9663 37.9632 51.8445 39.5393 47.5093 42.261H47.2932L48.3358 37.5322C48.5614 36.5093 49.4341 35.8106 50.4676 35.8106H74.4242C75.4579 35.8106 76.3304 36.5092 76.5559 37.5321L76.5559 37.5321L77.5985 42.261H77.3826C73.0473 39.5393 67.9255 37.9632 62.4459 37.9632ZM49.7067 47.9461L49.7067 47.9461C51.3523 46.7913 53.1588 45.8544 55.0846 45.1759L54.5862 43.7611L55.0847 45.1759C57.3895 44.3639 59.8658 43.9205 62.4459 43.9205C65.026 43.9205 67.5026 44.364 69.8073 45.1759C71.7331 45.8544 73.5394 46.7913 75.1852 47.9462C80.9601 51.9988 84.7403 58.7168 84.7403 66.3039C84.7403 73.891 80.9601 80.609 75.1852 84.6617L76.0468 85.8895C74.2909 87.1218 72.3625 88.122 70.3057 88.8467C67.8439 89.714 65.1991 90.1873 62.4459 90.1873C59.6928 90.1873 57.0479 89.7139 54.5862 88.8467L55.0846 87.4319C55.0846 87.4319 55.0846 87.4319 55.0846 87.4319C53.1588 86.7534 51.3525 85.8166 49.7067 84.6617C43.9318 80.609 40.1515 73.891 40.1515 66.3039C40.1515 58.7168 43.9318 51.9988 49.7067 47.9461ZM89.3833 42.261H83.688L82.3622 36.2476C81.5344 32.492 78.2662 29.8535 74.4244 29.8535H50.4678C46.626 29.8535 43.3578 32.4918 42.5298 36.2474L41.9336 38.9518C41.2467 37.2575 39.5879 36.0573 37.6478 36.0573H27.5466C24.9903 36.0573 22.9225 38.1408 22.9225 40.6929V42.3852C19.8782 42.9846 17.582 45.681 17.582 48.9003V83.7074C17.582 87.3644 20.5451 90.3467 24.2021 90.3467H29.4385H47.5093C51.8445 93.0684 56.9664 94.6445 62.4459 94.6445C67.9255 94.6445 73.0475 93.0684 77.3826 90.3467H89.3833C93.0403 90.3467 96.0034 87.3644 96.0034 83.7074V48.9003C96.0034 45.2433 93.0403 42.261 89.3833 42.261ZM28.8687 42.261V42.0144H36.3256V42.261H28.8687ZM32.4116 84.3894V69.8293C32.4116 68.1896 31.0858 66.8507 29.4385 66.8507C27.7912 66.8507 26.4654 68.1896 26.4654 69.8293V84.3895H24.2021C23.8372 84.3895 23.5282 84.0874 23.5282 83.7074V48.9003C23.5282 48.5202 23.8371 48.2182 24.2021 48.2182H25.8957H39.2986H40.7203C36.6553 53.1275 34.2054 59.4339 34.2054 66.3038C34.2054 73.1736 36.6553 79.48 40.7203 84.3894H32.4116ZM90.0573 83.7073C90.0573 84.0874 89.7484 84.3894 89.3833 84.3894H84.1716C87.0265 80.9414 89.0848 76.8043 90.0573 72.2669V83.7073ZM90.0573 60.3406C89.0848 55.8032 87.0265 51.6661 84.1716 48.2182H89.3833C89.7484 48.2182 90.0573 48.5201 90.0573 48.9003V60.3406Z" fill="#252525" stroke="white" stroke-width="3"/>
<path d="M67.3988 86.6214L67.3986 86.6214C65.7846 87.0164 64.1182 87.2164 62.4453 87.2164C50.9476 87.2164 41.6055 77.8312 41.6055 66.3041C41.6055 54.7768 50.9476 45.3916 62.4453 45.3916C73.9431 45.3916 83.2851 54.7768 83.2851 66.3043C83.2851 70.503 82.0481 74.558 79.707 78.0243L79.7069 78.0244C78.7866 79.3868 76.9352 79.7454 75.5741 78.819L67.3988 86.6214ZM67.3988 86.6214C68.9974 86.2299 69.9686 84.6163 69.5818 83.0237M67.3988 86.6214L69.5818 83.0237M69.5818 83.0237C69.1945 81.429 67.5881 80.4422 65.987 80.8346C64.837 81.1162 63.6452 81.2593 62.4453 81.2593C54.2395 81.2593 47.5516 74.5545 47.5516 66.3042C47.5516 58.0539 54.2395 51.3489 62.4453 51.3489C70.6511 51.3489 77.339 58.0538 77.339 66.3042C77.339 69.3138 76.4547 72.2097 74.7823 74.6857C73.8643 76.0448 74.216 77.8947 75.5739 78.8189L69.5818 83.0237Z" fill="#252525" stroke="white" stroke-width="3"/>
<mask id="path-5-outside-1" maskUnits="userSpaceOnUse" x="20.9531" y="48.8291" width="17" height="18" fill="black">
<rect fill="white" x="20.9531" y="48.8291" width="17" height="18"/>
<path d="M29.4381 51.8291C26.4136 51.8291 23.9531 54.2989 23.9531 57.3346C23.9531 60.3703 26.4137 62.8402 29.4381 62.8402C32.4625 62.8402 34.9231 60.3703 34.9231 57.3346C34.9231 54.2989 32.4625 51.8291 29.4381 51.8291ZM29.4381 59.8831C28.0383 59.8831 26.8993 58.7399 26.8993 57.3348C26.8993 55.9297 28.0383 54.7864 29.4381 54.7864C30.838 54.7864 31.977 55.9297 31.977 57.3348C31.977 58.7399 30.8381 59.8831 29.4381 59.8831Z"/>
</mask>
<path d="M29.4381 51.8291C26.4136 51.8291 23.9531 54.2989 23.9531 57.3346C23.9531 60.3703 26.4137 62.8402 29.4381 62.8402C32.4625 62.8402 34.9231 60.3703 34.9231 57.3346C34.9231 54.2989 32.4625 51.8291 29.4381 51.8291ZM29.4381 59.8831C28.0383 59.8831 26.8993 58.7399 26.8993 57.3348C26.8993 55.9297 28.0383 54.7864 29.4381 54.7864C30.838 54.7864 31.977 55.9297 31.977 57.3348C31.977 58.7399 30.8381 59.8831 29.4381 59.8831Z" fill="#252525"/>
<path d="M29.4381 48.8291C24.7461 48.8291 20.9531 52.6527 20.9531 57.3346H26.9531C26.9531 55.9452 28.0811 54.8291 29.4381 54.8291V48.8291ZM20.9531 57.3346C20.9531 62.0166 24.7463 65.8402 29.4381 65.8402V59.8402C28.0812 59.8402 26.9531 58.7241 26.9531 57.3346H20.9531ZM29.4381 65.8402C34.1299 65.8402 37.9231 62.0166 37.9231 57.3346H31.9231C31.9231 58.7241 30.7951 59.8402 29.4381 59.8402V65.8402ZM37.9231 57.3346C37.9231 52.6527 34.1299 48.8291 29.4381 48.8291V54.8291C30.7951 54.8291 31.9231 55.9452 31.9231 57.3346H37.9231ZM29.4381 56.8831C29.7057 56.8831 29.8993 57.0936 29.8993 57.3348H23.8993C23.8993 60.3862 26.3708 62.8831 29.4381 62.8831V56.8831ZM29.8993 57.3348C29.8993 57.576 29.7057 57.7864 29.4381 57.7864V51.7864C26.3708 51.7864 23.8993 54.2834 23.8993 57.3348H29.8993ZM29.4381 57.7864C29.1706 57.7864 28.977 57.576 28.977 57.3348H34.977C34.977 54.2834 32.5054 51.7864 29.4381 51.7864V57.7864ZM28.977 57.3348C28.977 57.0937 29.1706 56.8831 29.4381 56.8831V62.8831C32.5057 62.8831 34.977 60.3861 34.977 57.3348H28.977Z" fill="white" mask="url(#path-5-outside-1)"/>
<path d="M74.0337 83.6029C74.2117 83.5285 74.3792 83.4382 74.5345 83.336L74.5345 83.336L74.544 83.3297C74.6996 83.2256 74.8538 83.1014 74.9963 82.9584C75.553 82.3996 75.864 81.6363 75.864 80.8543C75.864 80.6655 75.8464 80.4703 75.8075 80.2736L75.8075 80.2736L75.8048 80.2603C75.7675 80.0802 75.7132 79.8989 75.6406 79.721L75.6406 79.721L75.6372 79.7129C75.5646 79.538 75.4749 79.3689 75.3698 79.2098C75.2573 79.0377 75.13 78.8844 74.9963 78.7503C74.8543 78.6077 74.7041 78.4873 74.5587 78.3875L74.5461 78.3789L74.5334 78.3705C74.3786 78.2688 74.2115 78.1786 74.0337 78.1043L73.4549 79.4881L74.0337 78.1043C73.8512 78.0279 73.6647 77.9719 73.4793 77.9341L73.477 77.9336C73.0907 77.8555 72.6925 77.8555 72.3062 77.9336L72.3062 77.9336L72.3044 77.934C72.1191 77.9717 71.932 78.0278 71.7486 78.1046L72.3282 79.4881M74.0337 83.6029C73.8506 83.6795 73.6639 83.7355 73.4793 83.7731L73.4748 83.774L73.4748 83.774C73.2907 83.811 73.0957 83.8329 72.8909 83.8329C72.6868 83.8329 72.4916 83.8109 72.308 83.7739L72.3044 83.7732C72.1186 83.7354 71.932 83.6793 71.7494 83.6029C71.571 83.5283 71.4044 83.4381 71.2507 83.3374L71.2402 83.3304L71.2402 83.3304C71.0745 83.2197 70.9273 83.0965 70.7982 82.9697L70.7925 82.9641L70.7868 82.9584C70.652 82.8231 70.5254 82.6699 70.4138 82.4997C70.3089 82.341 70.2181 82.1704 70.1442 81.9902C70.0691 81.8086 70.0142 81.6235 69.9771 81.4402C69.939 81.2518 69.918 81.0545 69.918 80.8543C69.918 80.6535 69.9391 80.4576 69.9762 80.2714L69.978 80.2625L69.978 80.2625C70.0153 80.0809 70.0699 79.8989 70.1425 79.721L70.1458 79.7129L70.1459 79.7129C70.2186 79.5377 70.3085 79.3683 70.4138 79.209C70.5254 79.0387 70.652 78.8856 70.7868 78.7503L70.7925 78.7446L70.7982 78.7389C70.9285 78.611 71.0708 78.4931 71.2233 78.3882L71.2364 78.3792L71.2497 78.3705C71.4039 78.2692 71.5711 78.1787 71.7502 78.1039L72.3282 79.4881M74.0337 83.6029C74.0334 83.603 74.0331 83.6032 74.0329 83.6033L73.4549 82.2191M74.0337 83.6029C74.034 83.6028 74.0342 83.6027 74.0345 83.6026L73.4549 82.2191M72.3282 79.4881C72.4164 79.4511 72.5092 79.4231 72.6036 79.4038L71.5312 80.288C71.5681 80.1993 71.6137 80.1136 71.6668 80.0337C71.7198 79.9524 71.7817 79.877 71.8494 79.809C71.9187 79.741 71.9938 79.6789 72.0733 79.6241C72.1544 79.5709 72.2396 79.5251 72.3282 79.4881ZM71.8494 81.8997C71.7817 81.8317 71.7198 81.7563 71.6668 81.675C71.6137 81.5951 71.5681 81.5094 71.5312 81.4192C71.4944 81.3304 71.4664 81.2373 71.4473 81.1427C71.4281 81.048 71.418 80.9504 71.418 80.8543C71.418 80.7582 71.4281 80.6606 71.4473 80.5645L71.8494 81.8997ZM71.8494 81.8997C71.9187 81.9677 71.9936 82.0298 72.0733 82.0831M71.8494 81.8997L72.0733 82.0831M72.0733 82.0831C72.1545 82.1363 72.2398 82.1821 72.3282 82.2191C72.4166 82.256 72.5092 82.2841 72.6036 82.3034M72.0733 82.0831L72.6036 82.3034M72.6036 82.3034C72.6992 82.3226 72.7951 82.3329 72.8909 82.3329C72.988 82.3329 73.0839 82.3226 73.1796 82.3034C73.2739 82.2841 73.3667 82.256 73.4549 82.2191M72.6036 82.3034L73.7098 82.0831M73.4549 82.2191C73.5435 82.1821 73.6289 82.1363 73.7098 82.0831M73.7098 82.0831C73.7893 82.0298 73.8659 81.9677 73.9337 81.8997L73.7098 82.0831Z" fill="#252525" stroke="white" stroke-width="3"/>
</svg>
