<svg width="117" height="110" viewBox="0 0 117 110" fill="none" xmlns="http://www.w3.org/2000/svg">
<path d="M102.665 69.8812C91.4587 95.1692 79.671 106.401 52.3866 94.3095C25.1023 82.2179 -2.11068 76.3798 9.0961 51.0918C20.3029 25.8038 38.6354 3.05658 65.9198 15.1481C93.2042 27.2396 113.872 44.5932 102.665 69.8812Z" fill="white" fill-opacity="0.2"/>
<path d="M93.1876 78.4693H90.0424C90.3609 77.841 90.5417 77.1302 90.5417 76.3769V32.8534C90.5417 30.315 88.5018 28.25 85.9942 28.25H21.5014C18.9938 28.25 16.9538 30.315 16.9538 32.8534V37.3176C16.9538 38.0107 17.5094 38.5731 18.1941 38.5731C18.8788 38.5731 19.4343 38.0107 19.4343 37.3176V32.8534C19.4343 31.6993 20.3613 30.761 21.5014 30.761H85.9942C87.1343 30.761 88.0612 31.6993 88.0612 32.8534V76.3769C88.0612 77.531 87.1343 78.4693 85.9942 78.4693H21.5014C20.3613 78.4693 19.4343 77.531 19.4343 76.3769V42.6743C19.4343 41.9805 18.8788 41.4188 18.1941 41.4188C17.5094 41.4188 16.9538 41.9805 16.9538 42.6743V76.3769C16.9538 77.1302 17.1347 77.841 17.4532 78.4693H14.308C12.7124 78.4693 11.4141 79.7837 11.4141 81.3988V83.0728C11.4141 86.5345 14.1956 89.3502 17.6153 89.3502H80.1514C80.8362 89.3502 81.3917 88.7885 81.3917 88.0947C81.3917 87.4009 80.8362 86.8392 80.1514 86.8392H17.6153C15.5637 86.8392 13.8946 85.1496 13.8946 83.0728V81.3988C13.8946 81.168 14.0799 80.9803 14.308 80.9803H43.0817V81.5348C43.0817 83.6293 44.7644 85.3327 46.8334 85.3327H60.6628C62.7312 85.3327 64.4139 83.6293 64.4139 81.5348V80.9803H93.1876C93.4156 80.9803 93.601 81.168 93.601 81.3988V83.0728C93.601 85.1496 91.9318 86.8392 89.8803 86.8392H85.6085C84.9232 86.8392 84.3683 87.4009 84.3683 88.0947C84.3683 88.7885 84.9232 89.3502 85.6085 89.3502H89.8803C93.3 89.3502 96.0815 86.5345 96.0815 83.0728V81.3988C96.0815 79.7837 94.7831 78.4693 93.1876 78.4693ZM61.9334 81.5348C61.9334 82.2443 61.3637 82.8217 60.6621 82.8217H46.8328C46.1319 82.8217 45.5622 82.245 45.5622 81.5348V80.9803H61.9334V81.5348Z" fill="white"/>
<path d="M74.9139 33.2715H23.1543C22.4696 33.2715 21.9141 33.8332 21.9141 34.527V74.7024C21.9141 75.3962 22.4696 75.9579 23.1543 75.9579H84.3398C85.0251 75.9579 85.58 75.3962 85.58 74.7024V34.527C85.58 33.8332 85.0251 33.2715 84.3398 33.2715H80.1507C79.4653 33.2715 78.9105 33.8332 78.9105 34.527C78.9105 35.2208 79.4653 35.7825 80.1507 35.7825H83.0995V73.447H24.3946V35.7825H74.9139C75.5993 35.7825 76.1541 35.2208 76.1541 34.527C76.1541 33.8332 75.5993 33.2715 74.9139 33.2715Z" fill="white"/>
</svg>
