<svg width="117" height="110" viewBox="0 0 117 110" fill="none" xmlns="http://www.w3.org/2000/svg">
<path opacity="0.2" d="M102.665 69.8812C91.4587 95.1692 79.671 106.401 52.3866 94.3095C25.1023 82.2179 -2.11068 76.3798 9.0961 51.0918C20.3029 25.8038 38.6354 3.05658 65.9198 15.1481C93.2042 27.2396 113.872 44.5932 102.665 69.8812Z" fill="#F82462"/>
<path d="M18.9086 29.7588H88.5906V79.5441H94.5848L93.8355 85.9559L88.5906 87.0874H18.9086L13.2891 85.9559V81.0528L18.9086 79.5441V29.7588Z" fill="white"/>
<path d="M93.1876 76.9693H92.0133C92.0321 76.7743 92.0417 76.5767 92.0417 76.3769V32.8534C92.0417 29.5039 89.3474 26.75 85.9942 26.75H21.5014C18.1481 26.75 15.4538 29.5039 15.4538 32.8534V37.3176C15.4538 38.6019 16.3358 39.7018 17.5461 39.996C16.3361 40.29 15.4538 41.3891 15.4538 42.6743V76.3769C15.4538 76.5767 15.4635 76.7743 15.4823 76.9693H14.308C11.8668 76.9693 9.91406 78.9726 9.91406 81.3988V83.0728C9.91406 87.3456 13.3499 90.8502 17.6153 90.8502H80.1514C81.5938 90.8502 82.7522 89.739 82.88 88.3503C83.0077 89.7386 84.1651 90.8502 85.6085 90.8502H89.8803C94.1456 90.8502 97.5815 87.3456 97.5815 83.0728V81.3988C97.5815 78.9726 95.6288 76.9693 93.1876 76.9693ZM15.3946 82.4803H41.6656C41.8646 83.5894 42.4074 84.5826 43.1807 85.3392H17.6153C16.4094 85.3392 15.3946 84.3385 15.3946 83.0728V82.4803ZM80.1514 85.3392H64.3149C65.0882 84.5826 65.631 83.5893 65.83 82.4803H92.101V83.0728C92.101 84.3385 91.0862 85.3392 89.8803 85.3392H85.6085C84.1651 85.3392 83.0077 86.4508 82.88 87.8392C82.7522 86.4504 81.5938 85.3392 80.1514 85.3392ZM20.9343 42.6743C20.9343 41.3891 20.0521 40.29 18.842 39.996C20.0524 39.7018 20.9343 38.6019 20.9343 37.3176V32.8534C20.9343 32.5104 21.2069 32.261 21.5014 32.261H85.9942C86.2886 32.261 86.5612 32.5104 86.5612 32.8534V76.3769C86.5612 76.7199 86.2886 76.9693 85.9942 76.9693H21.5014C21.2069 76.9693 20.9343 76.7199 20.9343 76.3769V42.6743Z" fill="#252525" stroke="white" stroke-width="3"/>
<path d="M74.9139 33.2725H23.1543C22.4696 33.2725 21.9141 33.8342 21.9141 34.5279V74.7034C21.9141 75.3972 22.4696 75.9589 23.1543 75.9589H84.3398C85.0251 75.9589 85.58 75.3972 85.58 74.7034V34.5279C85.58 33.8342 85.0251 33.2725 84.3398 33.2725H80.1507C79.4653 33.2725 78.9105 33.8342 78.9105 34.5279C78.9105 35.2217 79.4653 35.7834 80.1507 35.7834H83.0995V73.4479H24.3946V35.7834H74.9139C75.5993 35.7834 76.1541 35.2217 76.1541 34.5279C76.1541 33.8342 75.5993 33.2725 74.9139 33.2725Z" fill="#252525"/>
</svg>
