<svg width="115" height="115" viewBox="0 0 115 115" fill="none" xmlns="http://www.w3.org/2000/svg">
<path d="M86.7559 22.7824C104.683 40.7097 110.159 54.7361 89.6644 75.2302C69.1703 95.7243 54.1477 118.12 36.2204 100.193C18.293 82.2657 5.18063 58.792 25.6747 38.2979C46.1688 17.8039 68.8286 4.85509 86.7559 22.7824Z" fill="white" fill-opacity="0.2"/>
<path d="M61.8088 74.8717C61.8088 75.9461 60.9385 76.8163 59.8653 76.8163C58.7921 76.8163 57.9219 75.9461 57.9219 74.8717C57.9219 73.7979 58.7921 72.9277 59.8653 72.9277C60.9385 72.9277 61.8088 73.7979 61.8088 74.8717Z" fill="white"/>
<path d="M23.5886 53.4832H30.0662V56.0754H27.4749C26.7594 56.0754 26.1799 56.6559 26.1799 57.3718V67.7422C26.1799 70.6062 28.4999 72.9276 31.3618 72.9276C34.2236 72.9276 36.5437 70.6062 36.5437 67.7422H42.7157L46.9082 69.8399V75.9322L41.2458 78.198C40.7511 78.3959 40.4277 78.876 40.4306 79.4089V83.298H39.135C38.4195 83.298 37.8394 83.8779 37.8394 84.5938C37.8394 85.3097 38.4195 85.8902 39.135 85.8902H44.3175C45.033 85.8902 45.6131 85.3097 45.6131 84.5938C45.6131 83.8779 45.033 83.298 44.3175 83.298H43.0219V80.2865L48.6848 78.0208C49.1767 77.824 49.4994 77.3468 49.4994 76.8162V70.3349H52.0907V74.224C52.0907 78.5192 55.5705 82.0017 59.8639 82.0017C64.1572 82.0017 67.6371 78.5192 67.6371 74.224V70.3349H70.2283V76.8162C70.2283 77.3468 70.5511 77.824 71.043 78.0208L76.7059 80.2865V83.298H75.4103C74.6948 83.298 74.1146 83.8779 74.1146 84.5938C74.1146 85.3103 74.6948 85.8902 75.4103 85.8902H80.5928C81.3083 85.8902 81.8884 85.3103 81.8884 84.5938C81.8884 83.8779 81.3083 83.298 80.5928 83.298H79.2972V79.4089C79.2972 78.8783 78.9744 78.4016 78.4819 78.2049L72.8196 75.9385V69.8462L77.0115 67.7422H83.1835C83.1835 70.6062 85.5036 72.9276 88.366 72.9276C91.2278 72.9276 93.5479 70.6062 93.5479 67.7422V57.3718C93.5479 56.6559 92.9678 56.076 92.2523 56.076H89.6616V53.4832H96.1392C96.8546 53.4832 97.4348 52.9027 97.4348 52.1869C97.4348 51.471 96.8546 50.8905 96.1392 50.8905H89.6616V48.2977C89.6616 47.5819 89.0814 47.002 88.366 47.002C87.6505 47.002 87.0704 47.5819 87.0704 48.2977V50.8905H80.5928C79.8773 50.8905 79.2972 51.471 79.2972 52.1869C79.2972 52.9027 79.8773 53.4832 80.5928 53.4832H87.0704V56.076H84.4791C83.7636 56.076 83.1835 56.6559 83.1835 57.3718V59.9645H78.0015V58.6681C78.0015 58.6452 77.9901 58.6257 77.9883 58.6022C77.982 58.4743 77.9562 58.3481 77.9121 58.2276C77.8938 58.1794 77.8725 58.133 77.8485 58.0876C77.8026 57.9947 77.7447 57.9075 77.6776 57.8284C77.645 57.7876 77.6094 57.7486 77.5716 57.7131C77.5509 57.6936 77.5377 57.6689 77.516 57.6505L71.0378 52.4656C70.8074 52.2832 70.5219 52.1851 70.2283 52.1869H49.4994C49.2053 52.1869 48.9198 52.2867 48.69 52.4708L42.2118 57.6557C42.19 57.6741 42.1768 57.6987 42.1562 57.7182C42.1184 57.7538 42.0828 57.7922 42.0501 57.8335C41.9831 57.9127 41.9252 57.9999 41.8793 58.0928C41.8552 58.1381 41.834 58.1846 41.8157 58.2328C41.7715 58.3532 41.7457 58.48 41.7394 58.6085C41.7394 58.6309 41.7262 58.6498 41.7262 58.6733V59.9697H36.5437V57.3718C36.5437 56.6559 35.9641 56.076 35.2487 56.076H32.6574V53.4832H39.135C39.8504 53.4832 40.4306 52.9027 40.4306 52.1869C40.4306 51.471 39.8504 50.8905 39.135 50.8905H32.6574V48.2977C32.6574 47.5819 32.0773 47.002 31.3618 47.002C30.6463 47.002 30.0662 47.5819 30.0662 48.2977V50.8905H23.5886C22.8731 50.8905 22.293 51.471 22.293 52.1869C22.293 52.9027 22.8731 53.4832 23.5886 53.4832ZM44.3175 59.9645H75.4103V65.645L71.2178 67.7422H48.5099L44.3175 65.645V59.9645ZM65.0458 74.224C65.0458 77.0875 62.7257 79.4089 59.8639 79.4089C57.002 79.4089 54.6819 77.0875 54.6819 74.224V70.3349H65.0464V74.224H65.0458ZM85.7747 58.6681H90.9572V67.7422C90.9572 69.1739 89.7969 70.3349 88.366 70.3349C86.9351 70.3349 85.7747 69.1739 85.7747 67.7422V58.6681ZM83.184 62.5572V65.15H78.0015V62.5572H83.184ZM49.9541 54.7796H69.776L73.0151 57.3718H46.7156L49.9541 54.7796ZM41.7262 62.5572V65.15H36.5437V62.5572H41.7262ZM33.953 67.7422C33.953 69.1739 32.7927 70.3349 31.3618 70.3349C29.9309 70.3349 28.7705 69.1739 28.7705 67.7422V58.6681H33.953V67.7422Z" fill="white"/>
<path d="M58.5664 62.5586H61.1577V65.1513H58.5664V62.5586Z" fill="white"/>
<path d="M66.3398 62.5586H68.9311V65.1513H66.3398V62.5586Z" fill="white"/>
<path d="M50.7969 62.5586H53.3881V65.1513H50.7969V62.5586Z" fill="white"/>
<path d="M44.3159 37.105C44.7097 37.1056 45.0829 36.9261 45.3289 36.618L45.4842 36.4247C51.932 28.3907 63.6677 27.1075 71.6972 33.559C72.8168 34.4584 73.8287 35.4846 74.7132 36.6163C75.1438 37.1882 75.9556 37.3029 76.5271 36.8722C77.0987 36.4419 77.2133 35.6291 76.7828 35.0572C76.7696 35.0395 76.7559 35.0222 76.7421 35.005C69.5135 25.7664 56.168 24.1402 46.9346 31.3729C45.6528 32.3773 44.4907 33.5257 43.4708 34.7951L43.308 34.9987C42.8603 35.5574 42.9509 36.3737 43.5093 36.8211C43.738 37.0041 44.0223 37.1045 44.3159 37.105Z" fill="white"/>
<path d="M54.2127 45.0577C53.7237 45.5809 53.7512 46.4017 54.2746 46.891C54.7975 47.3803 55.6178 47.3528 56.1069 46.8296C58.1053 44.6631 61.4808 44.5277 63.6461 46.5273C63.7505 46.6243 63.8514 46.7247 63.9477 46.8296C64.4648 47.3247 65.2846 47.3069 65.7793 46.7895C66.2374 46.3111 66.2609 45.5642 65.8344 45.0577C62.859 41.8466 57.8456 41.6568 54.6364 44.6338C54.4902 44.7698 54.3486 44.9109 54.2127 45.0577Z" fill="white"/>
<path d="M70.3295 42.1573C69.9431 42.1573 69.5773 41.9852 69.3308 41.6881C65.1229 36.5485 57.5475 35.7953 52.4114 40.0056C52.2159 40.1663 52.0256 40.332 51.841 40.5041C51.3158 40.9911 50.496 40.9601 50.0093 40.4353C49.5232 39.9099 49.5541 39.0896 50.0787 38.6026C55.9904 33.1022 65.2387 33.4383 70.7359 39.3534C70.9394 39.5726 71.1361 39.7974 71.3258 40.0286C71.7822 40.5798 71.7059 41.3972 71.155 41.8538C70.9222 42.0466 70.6299 42.1521 70.3283 42.1521L70.3295 42.1573Z" fill="white"/>
</svg>
