<svg width="115" height="115" viewBox="0 0 115 115" fill="none" xmlns="http://www.w3.org/2000/svg">
<path opacity="0.2" d="M86.7559 22.7824C104.683 40.7097 110.159 54.7361 89.6644 75.2302C69.1703 95.7243 54.1477 118.12 36.2204 100.193C18.293 82.2657 5.18063 58.792 25.6747 38.2979C46.1688 17.8039 68.8286 4.85509 86.7559 22.7824Z" fill="#F82462"/>
<path d="M59.8653 78.3163C61.7675 78.3163 63.3088 76.774 63.3088 74.8717C63.3088 72.9697 61.7672 71.4277 59.8653 71.4277C57.9635 71.4277 56.4219 72.9697 56.4219 74.8717C56.4219 76.774 57.9632 78.3163 59.8653 78.3163Z" fill="black" stroke="white" stroke-width="3"/>
<mask id="path-3-outside-1" maskUnits="userSpaceOnUse" x="17.293" y="42.002" width="86" height="49" fill="black">
<rect fill="white" x="17.293" y="42.002" width="86" height="49"/>
<path d="M23.5886 53.4832H30.0662V56.0754H27.4749C26.7594 56.0754 26.1799 56.6559 26.1799 57.3718V67.7422C26.1799 70.6062 28.4999 72.9276 31.3618 72.9276C34.2236 72.9276 36.5437 70.6062 36.5437 67.7422H42.7157L46.9082 69.8399V75.9322L41.2458 78.198C40.7511 78.3959 40.4277 78.876 40.4306 79.4089V83.298H39.135C38.4195 83.298 37.8394 83.878 37.8394 84.5938C37.8394 85.3097 38.4195 85.8902 39.135 85.8902H44.3175C45.033 85.8902 45.6131 85.3097 45.6131 84.5938C45.6131 83.878 45.033 83.298 44.3175 83.298H43.0219V80.2865L48.6848 78.0208C49.1767 77.824 49.4994 77.3468 49.4994 76.8162V70.3349H52.0907V74.224C52.0907 78.5192 55.5705 82.0017 59.8639 82.0017C64.1572 82.0017 67.6371 78.5192 67.6371 74.224V70.3349H70.2283V76.8162C70.2283 77.3468 70.5511 77.824 71.043 78.0208L76.7059 80.2865V83.298H75.4103C74.6948 83.298 74.1146 83.878 74.1146 84.5938C74.1146 85.3103 74.6948 85.8902 75.4103 85.8902H80.5928C81.3083 85.8902 81.8884 85.3103 81.8884 84.5938C81.8884 83.878 81.3083 83.298 80.5928 83.298H79.2972V79.4089C79.2972 78.8783 78.9744 78.4016 78.4819 78.2049L72.8196 75.9385V69.8462L77.0115 67.7422H83.1835C83.1835 70.6062 85.5036 72.9276 88.366 72.9276C91.2278 72.9276 93.5479 70.6062 93.5479 67.7422V57.3718C93.5479 56.6559 92.9678 56.076 92.2523 56.076H89.6616V53.4832H96.1392C96.8546 53.4832 97.4348 52.9027 97.4348 52.1869C97.4348 51.471 96.8546 50.8905 96.1392 50.8905H89.6616V48.2977C89.6616 47.5819 89.0814 47.002 88.366 47.002C87.6505 47.002 87.0704 47.5819 87.0704 48.2977V50.8905H80.5928C79.8773 50.8905 79.2972 51.471 79.2972 52.1869C79.2972 52.9027 79.8773 53.4832 80.5928 53.4832H87.0704V56.076H84.4791C83.7636 56.076 83.1835 56.6559 83.1835 57.3718V59.9645H78.0015V58.6681C78.0015 58.6452 77.9901 58.6257 77.9883 58.6022C77.982 58.4743 77.9562 58.3481 77.9121 58.2276C77.8938 58.1794 77.8725 58.133 77.8485 58.0876C77.8026 57.9947 77.7447 57.9075 77.6776 57.8284C77.645 57.7876 77.6094 57.7486 77.5716 57.7131C77.5509 57.6936 77.5377 57.6689 77.516 57.6505L71.0378 52.4656C70.8074 52.2832 70.5219 52.1851 70.2283 52.1869H49.4994C49.2053 52.1869 48.9198 52.2867 48.69 52.4708L42.2118 57.6557C42.19 57.6741 42.1768 57.6987 42.1562 57.7182C42.1184 57.7538 42.0828 57.7922 42.0501 57.8335C41.9831 57.9127 41.9252 57.9999 41.8793 58.0928C41.8552 58.1381 41.834 58.1846 41.8157 58.2328C41.7715 58.3532 41.7457 58.48 41.7394 58.6085C41.7394 58.6309 41.7262 58.6498 41.7262 58.6733V59.9697H36.5437V57.3718C36.5437 56.6559 35.9641 56.076 35.2487 56.076H32.6574V53.4832H39.135C39.8504 53.4832 40.4306 52.9027 40.4306 52.1869C40.4306 51.471 39.8504 50.8905 39.135 50.8905H32.6574V48.2977C32.6574 47.5819 32.0773 47.002 31.3618 47.002C30.6463 47.002 30.0662 47.5819 30.0662 48.2977V50.8905H23.5886C22.8731 50.8905 22.293 51.471 22.293 52.1869C22.293 52.9027 22.8731 53.4832 23.5886 53.4832ZM44.3175 59.9645H75.4103V65.645L71.2178 67.7422H48.5099L44.3175 65.645V59.9645ZM65.0458 74.224C65.0458 77.0875 62.7257 79.4089 59.8639 79.4089C57.002 79.4089 54.6819 77.0875 54.6819 74.224V70.3349H65.0464L65.0458 74.224ZM85.7747 58.6681H90.9572V67.7422C90.9572 69.1739 89.7969 70.3349 88.366 70.3349C86.9351 70.3349 85.7747 69.1739 85.7747 67.7422V58.6681ZM83.184 62.5572V65.15H78.0015V62.5572H83.184ZM49.9541 54.7796H69.776L73.0151 57.3718H46.7156L49.9541 54.7796ZM41.7262 62.5572V65.15H36.5437V62.5572H41.7262ZM33.953 67.7422C33.953 69.1739 32.7927 70.3349 31.3618 70.3349C29.9309 70.3349 28.7705 69.1739 28.7705 67.7422V58.6681H33.953V67.7422Z"/>
</mask>
<path d="M23.5886 53.4832H30.0662V56.0754H27.4749C26.7594 56.0754 26.1799 56.6559 26.1799 57.3718V67.7422C26.1799 70.6062 28.4999 72.9276 31.3618 72.9276C34.2236 72.9276 36.5437 70.6062 36.5437 67.7422H42.7157L46.9082 69.8399V75.9322L41.2458 78.198C40.7511 78.3959 40.4277 78.876 40.4306 79.4089V83.298H39.135C38.4195 83.298 37.8394 83.878 37.8394 84.5938C37.8394 85.3097 38.4195 85.8902 39.135 85.8902H44.3175C45.033 85.8902 45.6131 85.3097 45.6131 84.5938C45.6131 83.878 45.033 83.298 44.3175 83.298H43.0219V80.2865L48.6848 78.0208C49.1767 77.824 49.4994 77.3468 49.4994 76.8162V70.3349H52.0907V74.224C52.0907 78.5192 55.5705 82.0017 59.8639 82.0017C64.1572 82.0017 67.6371 78.5192 67.6371 74.224V70.3349H70.2283V76.8162C70.2283 77.3468 70.5511 77.824 71.043 78.0208L76.7059 80.2865V83.298H75.4103C74.6948 83.298 74.1146 83.878 74.1146 84.5938C74.1146 85.3103 74.6948 85.8902 75.4103 85.8902H80.5928C81.3083 85.8902 81.8884 85.3103 81.8884 84.5938C81.8884 83.878 81.3083 83.298 80.5928 83.298H79.2972V79.4089C79.2972 78.8783 78.9744 78.4016 78.4819 78.2049L72.8196 75.9385V69.8462L77.0115 67.7422H83.1835C83.1835 70.6062 85.5036 72.9276 88.366 72.9276C91.2278 72.9276 93.5479 70.6062 93.5479 67.7422V57.3718C93.5479 56.6559 92.9678 56.076 92.2523 56.076H89.6616V53.4832H96.1392C96.8546 53.4832 97.4348 52.9027 97.4348 52.1869C97.4348 51.471 96.8546 50.8905 96.1392 50.8905H89.6616V48.2977C89.6616 47.5819 89.0814 47.002 88.366 47.002C87.6505 47.002 87.0704 47.5819 87.0704 48.2977V50.8905H80.5928C79.8773 50.8905 79.2972 51.471 79.2972 52.1869C79.2972 52.9027 79.8773 53.4832 80.5928 53.4832H87.0704V56.076H84.4791C83.7636 56.076 83.1835 56.6559 83.1835 57.3718V59.9645H78.0015V58.6681C78.0015 58.6452 77.9901 58.6257 77.9883 58.6022C77.982 58.4743 77.9562 58.3481 77.9121 58.2276C77.8938 58.1794 77.8725 58.133 77.8485 58.0876C77.8026 57.9947 77.7447 57.9075 77.6776 57.8284C77.645 57.7876 77.6094 57.7486 77.5716 57.7131C77.5509 57.6936 77.5377 57.6689 77.516 57.6505L71.0378 52.4656C70.8074 52.2832 70.5219 52.1851 70.2283 52.1869H49.4994C49.2053 52.1869 48.9198 52.2867 48.69 52.4708L42.2118 57.6557C42.19 57.6741 42.1768 57.6987 42.1562 57.7182C42.1184 57.7538 42.0828 57.7922 42.0501 57.8335C41.9831 57.9127 41.9252 57.9999 41.8793 58.0928C41.8552 58.1381 41.834 58.1846 41.8157 58.2328C41.7715 58.3532 41.7457 58.48 41.7394 58.6085C41.7394 58.6309 41.7262 58.6498 41.7262 58.6733V59.9697H36.5437V57.3718C36.5437 56.6559 35.9641 56.076 35.2487 56.076H32.6574V53.4832H39.135C39.8504 53.4832 40.4306 52.9027 40.4306 52.1869C40.4306 51.471 39.8504 50.8905 39.135 50.8905H32.6574V48.2977C32.6574 47.5819 32.0773 47.002 31.3618 47.002C30.6463 47.002 30.0662 47.5819 30.0662 48.2977V50.8905H23.5886C22.8731 50.8905 22.293 51.471 22.293 52.1869C22.293 52.9027 22.8731 53.4832 23.5886 53.4832ZM44.3175 59.9645H75.4103V65.645L71.2178 67.7422H48.5099L44.3175 65.645V59.9645ZM65.0458 74.224C65.0458 77.0875 62.7257 79.4089 59.8639 79.4089C57.002 79.4089 54.6819 77.0875 54.6819 74.224V70.3349H65.0464L65.0458 74.224ZM85.7747 58.6681H90.9572V67.7422C90.9572 69.1739 89.7969 70.3349 88.366 70.3349C86.9351 70.3349 85.7747 69.1739 85.7747 67.7422V58.6681ZM83.184 62.5572V65.15H78.0015V62.5572H83.184ZM49.9541 54.7796H69.776L73.0151 57.3718H46.7156L49.9541 54.7796ZM41.7262 62.5572V65.15H36.5437V62.5572H41.7262ZM33.953 67.7422C33.953 69.1739 32.7927 70.3349 31.3618 70.3349C29.9309 70.3349 28.7705 69.1739 28.7705 67.7422V58.6681H33.953V67.7422Z" fill="#252525"/>
<path d="M23.5886 53.4832H30.0662V56.0754H27.4749C26.7594 56.0754 26.1799 56.6559 26.1799 57.3718V67.7422C26.1799 70.6062 28.4999 72.9276 31.3618 72.9276C34.2236 72.9276 36.5437 70.6062 36.5437 67.7422H42.7157L46.9082 69.8399V75.9322L41.2458 78.198C40.7511 78.3959 40.4277 78.876 40.4306 79.4089V83.298H39.135C38.4195 83.298 37.8394 83.878 37.8394 84.5938C37.8394 85.3097 38.4195 85.8902 39.135 85.8902H44.3175C45.033 85.8902 45.6131 85.3097 45.6131 84.5938C45.6131 83.878 45.033 83.298 44.3175 83.298H43.0219V80.2865L48.6848 78.0208C49.1767 77.824 49.4994 77.3468 49.4994 76.8162V70.3349H52.0907V74.224C52.0907 78.5192 55.5705 82.0017 59.8639 82.0017C64.1572 82.0017 67.6371 78.5192 67.6371 74.224V70.3349H70.2283V76.8162C70.2283 77.3468 70.5511 77.824 71.043 78.0208L76.7059 80.2865V83.298H75.4103C74.6948 83.298 74.1146 83.878 74.1146 84.5938C74.1146 85.3103 74.6948 85.8902 75.4103 85.8902H80.5928C81.3083 85.8902 81.8884 85.3103 81.8884 84.5938C81.8884 83.878 81.3083 83.298 80.5928 83.298H79.2972V79.4089C79.2972 78.8783 78.9744 78.4016 78.4819 78.2049L72.8196 75.9385V69.8462L77.0115 67.7422H83.1835C83.1835 70.6062 85.5036 72.9276 88.366 72.9276C91.2278 72.9276 93.5479 70.6062 93.5479 67.7422V57.3718C93.5479 56.6559 92.9678 56.076 92.2523 56.076H89.6616V53.4832H96.1392C96.8546 53.4832 97.4348 52.9027 97.4348 52.1869C97.4348 51.471 96.8546 50.8905 96.1392 50.8905H89.6616V48.2977C89.6616 47.5819 89.0814 47.002 88.366 47.002C87.6505 47.002 87.0704 47.5819 87.0704 48.2977V50.8905H80.5928C79.8773 50.8905 79.2972 51.471 79.2972 52.1869C79.2972 52.9027 79.8773 53.4832 80.5928 53.4832H87.0704V56.076H84.4791C83.7636 56.076 83.1835 56.6559 83.1835 57.3718V59.9645H78.0015V58.6681C78.0015 58.6452 77.9901 58.6257 77.9883 58.6022C77.982 58.4743 77.9562 58.3481 77.9121 58.2276C77.8938 58.1794 77.8725 58.133 77.8485 58.0876C77.8026 57.9947 77.7447 57.9075 77.6776 57.8284C77.645 57.7876 77.6094 57.7486 77.5716 57.7131C77.5509 57.6936 77.5377 57.6689 77.516 57.6505L71.0378 52.4656C70.8074 52.2832 70.5219 52.1851 70.2283 52.1869H49.4994C49.2053 52.1869 48.9198 52.2867 48.69 52.4708L42.2118 57.6557C42.19 57.6741 42.1768 57.6987 42.1562 57.7182C42.1184 57.7538 42.0828 57.7922 42.0501 57.8335C41.9831 57.9127 41.9252 57.9999 41.8793 58.0928C41.8552 58.1381 41.834 58.1846 41.8157 58.2328C41.7715 58.3532 41.7457 58.48 41.7394 58.6085C41.7394 58.6309 41.7262 58.6498 41.7262 58.6733V59.9697H36.5437V57.3718C36.5437 56.6559 35.9641 56.076 35.2487 56.076H32.6574V53.4832H39.135C39.8504 53.4832 40.4306 52.9027 40.4306 52.1869C40.4306 51.471 39.8504 50.8905 39.135 50.8905H32.6574V48.2977C32.6574 47.5819 32.0773 47.002 31.3618 47.002C30.6463 47.002 30.0662 47.5819 30.0662 48.2977V50.8905H23.5886C22.8731 50.8905 22.293 51.471 22.293 52.1869C22.293 52.9027 22.8731 53.4832 23.5886 53.4832ZM44.3175 59.9645H75.4103V65.645L71.2178 67.7422H48.5099L44.3175 65.645V59.9645ZM65.0458 74.224C65.0458 77.0875 62.7257 79.4089 59.8639 79.4089C57.002 79.4089 54.6819 77.0875 54.6819 74.224V70.3349H65.0464L65.0458 74.224ZM85.7747 58.6681H90.9572V67.7422C90.9572 69.1739 89.7969 70.3349 88.366 70.3349C86.9351 70.3349 85.7747 69.1739 85.7747 67.7422V58.6681ZM83.184 62.5572V65.15H78.0015V62.5572H83.184ZM49.9541 54.7796H69.776L73.0151 57.3718H46.7156L49.9541 54.7796ZM41.7262 62.5572V65.15H36.5437V62.5572H41.7262ZM33.953 67.7422C33.953 69.1739 32.7927 70.3349 31.3618 70.3349C29.9309 70.3349 28.7705 69.1739 28.7705 67.7422V58.6681H33.953V67.7422Z" stroke="white" stroke-width="10" mask="url(#path-3-outside-1)"/>
<path d="M45.3672 61.1953H74.6504V64.5123L71.059 66.7236H48.9585L45.3672 64.7887V61.1953Z" fill="white"/>
<path d="M58.5664 61.5566H57.5664V62.5566V65.1494V66.1494H58.5664H61.1577H62.1577V65.1494V62.5566V61.5566H61.1577H58.5664Z" fill="#252525" stroke="white" stroke-width="2"/>
<path d="M66.3398 61.5566H65.3398V62.5566V65.1494V66.1494H66.3398H68.9311H69.9311V65.1494V62.5566V61.5566H68.9311H66.3398Z" fill="#252525" stroke="white" stroke-width="2"/>
<path d="M50.7969 61.5566H49.7969V62.5566V65.1494V66.1494H50.7969H53.3881H54.3881V65.1494V62.5566V61.5566H53.3881H50.7969Z" fill="#252525" stroke="white" stroke-width="2"/>
<path d="M44.3122 39.6041L44.311 39.6041C43.4502 39.6024 42.6173 39.3081 41.9476 38.7723L41.946 38.7711C40.3119 37.4617 40.0453 35.0738 41.3554 33.4366C41.3556 33.4363 41.3558 33.4361 41.3559 33.4359C41.3564 33.4354 41.3568 33.4349 41.3572 33.4344L41.5182 33.2329L41.5219 33.2283L41.5219 33.2283C42.6615 31.81 43.96 30.5267 45.3927 29.4041L45.393 29.4039C55.7102 21.3221 70.6207 23.136 78.7023 33.4523C78.7178 33.4718 78.7504 33.5128 78.7852 33.5595C80.0399 35.2337 79.7035 37.6094 78.0306 38.8686M44.3122 39.6041L76.5271 36.8712M44.3122 39.6041C45.4676 39.6057 46.5593 39.0804 47.2795 38.1808M44.3122 39.6041L47.2795 38.1808M78.0306 38.8686L76.5271 36.8712M78.0306 38.8686C78.031 38.8683 78.0314 38.868 78.0318 38.8676L76.5271 36.8712M78.0306 38.8686C76.3623 40.1249 73.9979 39.7956 72.7336 38.1422M76.5271 36.8712C75.9556 37.302 75.1438 37.1872 74.7132 36.6153M72.7336 38.1422C72.7369 38.1464 72.7402 38.1507 72.7435 38.1549L74.7132 36.6153M72.7336 38.1422C71.9694 37.1665 71.0964 36.2822 70.1315 35.507L70.1313 35.5068C63.1789 29.9208 53.0174 31.0314 47.434 37.9885L47.4329 37.9899L47.2825 38.1769M72.7336 38.1422C72.7277 38.1345 72.7218 38.1267 72.716 38.119L74.7132 36.6153M74.7132 36.6153L47.2825 38.1769M47.2825 38.1769L45.3289 36.6171M47.2825 38.1769L45.4842 36.4238L45.3289 36.6171M45.3289 36.6171L47.2775 38.1832L47.2795 38.1808M45.3289 36.6171C45.0829 36.9251 44.7097 37.1046 44.3159 37.1041L47.2795 38.1808" fill="#252525" stroke="white" stroke-width="5"/>
<path d="M57.9388 48.5298L57.9332 48.5359C56.5015 50.0674 54.0991 50.1488 52.5674 48.7163L57.9388 48.5298ZM57.9388 48.5298L57.9445 48.5237M57.9388 48.5298L57.9445 48.5237M57.9445 48.5237C59.0057 47.3733 60.7968 47.3007 61.9473 48.3605C62.0089 48.4179 62.0611 48.4703 62.1056 48.5188L62.1604 48.5785M57.9445 48.5237L62.1604 48.5785M62.1604 48.5785L62.2189 48.6346M62.1604 48.5785L62.2189 48.6346M62.2189 48.6346C63.7325 50.0836 66.1348 50.0329 67.5851 48.5175L62.2189 48.6346ZM67.7085 43.4011L67.7467 43.4464C68.9949 44.9287 68.9271 47.1146 67.5862 48.5163L67.7085 43.4011ZM67.7085 43.4011L67.6682 43.3576M67.7085 43.4011L67.6682 43.3576M67.6682 43.3576C63.7541 39.1335 57.1582 38.8835 52.9362 42.8L52.9362 42.8M67.6682 43.3576L52.9362 42.8M52.9362 42.8L52.9339 42.8021M52.9362 42.8L52.9339 42.8021M52.9339 42.8021C52.7468 42.9761 52.5618 43.1602 52.3813 43.3551C50.9551 44.8867 51.0372 47.2848 52.5664 48.7154L52.9339 42.8021Z" fill="#252525" stroke="white" stroke-width="5"/>
<path d="M73.4455 44.6563H70.3295C69.1983 44.6563 68.1276 44.1522 67.4068 43.2833L67.4016 43.2771L67.3964 43.2708C64.0637 39.2002 58.0651 38.6038 53.9975 41.9371C53.8393 42.0671 53.6888 42.1983 53.5457 42.3318L53.5409 42.3362L53.5409 42.3362C52.0036 43.7619 49.6019 43.6717 48.1762 42.1342L48.1743 42.1321C46.7527 40.5957 46.8419 38.1974 48.3757 36.7713L73.4455 44.6563ZM73.4455 44.6563L73.1623 43.3809M73.4455 44.6563L73.1623 43.3809M73.1623 43.3809C74.3917 42.0049 74.4632 39.9016 73.2554 38.438C73.0335 38.1679 72.8042 37.9058 72.5677 37.6511L72.5672 37.6506C66.1299 30.724 55.2996 30.33 48.3766 36.7706L73.1623 43.3809Z" fill="#252525" stroke="white" stroke-width="5"/>
<rect x="30.1758" y="59.8125" width="2.76256" height="8.84527" fill="white"/>
<rect x="87.082" y="59.8125" width="2.76256" height="8.84527" fill="white"/>
</svg>
