<svg width="87" height="75" viewBox="0 0 87 75" fill="none" xmlns="http://www.w3.org/2000/svg">
<path d="M38.1522 74.8837C12.3998 74.8837 0.000814003 53.5863 0.000815217 25.8009C0.000816432 -1.98449 8.60649 0.032411 34.3588 0.0324121C60.1111 0.0324132 93.2582 22.5569 84.7809 50.3423C84.7808 78.1277 63.9045 74.8837 38.1522 74.8837Z" fill="white" fill-opacity="0.2"/>
<path d="M38.9808 53.293C37.1231 53.293 35.6172 54.7989 35.6172 56.6566C35.6172 58.5142 37.1231 60.0202 38.9808 60.0202H47.9504C49.808 60.0202 51.314 58.5142 51.314 56.6566C51.314 54.7989 49.808 53.293 47.9504 53.293H38.9808ZM49.0716 56.6566C49.0716 57.2758 48.5696 57.7778 47.9504 57.7778H38.9808C38.3616 57.7778 37.8596 57.2758 37.8596 56.6566C37.8596 56.0373 38.3616 55.5354 38.9808 55.5354H47.9504C48.5696 55.5354 49.0716 56.0373 49.0716 56.6566Z" fill="white"/>
<path d="M68.1335 23.3929V12.9288H66.908C65.8575 6.55813 55.9461 1.7168 43.4671 1.7168C30.9882 1.7168 21.0768 6.55813 20.0263 12.9288H18.8008V23.3929L22.1644 27.8777V35.3527C20.9259 35.3527 19.922 36.3567 19.922 37.5951V58.8979C19.922 61.258 21.393 63.2739 23.4638 64.098L24.0177 65.7602C25.1064 69.0273 28.1637 71.2311 31.6074 71.2311H55.3266C58.7699 71.2311 61.8269 69.0278 62.9159 65.7613L63.4704 64.098C65.5413 63.2739 67.0123 61.258 67.0123 58.8979V37.5951C67.0123 36.3567 66.0084 35.3527 64.7699 35.3527V27.8777L68.1335 23.3929ZM43.4671 3.95919C54.215 3.95919 63.4009 7.96411 64.6219 12.9288H22.3124C23.5334 7.96411 32.7193 3.95919 43.4671 3.95919ZM22.1644 37.5951H24.4068V43.2011H22.1644V37.5951ZM25.528 62.2615C23.6735 62.2615 22.1644 60.7524 22.1644 58.8979V51.0495H30.0128V62.2615H25.528ZM60.6173 65.5695C59.9369 67.6114 58.0261 68.9887 55.8738 68.9887H31.0616C28.9093 68.9887 26.9986 67.6114 26.3181 65.5695L25.963 64.5039H60.9724L60.6173 65.5695ZM32.2552 62.2615V51.0495H54.6791V62.2615H32.2552ZM64.7699 58.8979C64.7699 60.7524 63.2608 62.2615 61.4063 62.2615H56.9215V51.0495H64.7699V58.8979ZM64.7699 48.8071H22.1644V45.4435H28.8916V46.5647C28.8916 47.1839 29.3935 47.6859 30.0128 47.6859C30.632 47.6859 31.134 47.1839 31.134 46.5647V45.4435H37.8612V46.5647C37.8612 47.1839 38.3631 47.6859 38.9824 47.6859C39.6016 47.6859 40.1036 47.1839 40.1036 46.5647V45.4435H46.8307V46.5647C46.8307 47.1839 47.3327 47.6859 47.9519 47.6859C48.5712 47.6859 49.0731 47.1839 49.0731 46.5647V45.4435H55.8003V46.5647C55.8003 47.1839 56.3023 47.6859 56.9215 47.6859C57.5407 47.6859 58.0427 47.1839 58.0427 46.5647V45.4435H64.7699V48.8071ZM27.7704 30.8679C28.3896 30.8679 28.8916 30.366 28.8916 29.7467V28.6256H31.134C31.134 31.1024 33.1419 33.1103 35.6188 33.1103H51.3155C53.7924 33.1103 55.8003 31.1024 55.8003 28.6256H58.0427V29.7468C58.0427 30.366 58.5447 30.8679 59.1639 30.8679C59.7831 30.8679 60.2851 30.366 60.2851 29.7467V28.6256H62.5275V35.3527H24.4068V28.6256H26.6492V29.7467C26.6492 30.366 27.1511 30.8679 27.7704 30.8679ZM35.6188 30.8679C34.3803 30.8679 33.3764 29.864 33.3764 28.6256H53.5579C53.5579 29.864 52.554 30.8679 51.3155 30.8679H35.6188ZM60.2851 37.5951V43.2011H58.0427V37.5951H60.2851ZM55.8003 37.5951V43.2011H53.5579V37.5951H55.8003ZM51.3155 37.5951V43.2011H49.0731V37.5951H51.3155ZM46.8307 37.5951V43.2011H44.5883V37.5951H46.8307ZM42.3459 37.5951V43.2011H40.1036V37.5951H42.3459ZM37.8612 37.5951V43.2011H35.6188V37.5951H37.8612ZM33.3764 37.5951V43.2011H31.134V37.5951H33.3764ZM28.8916 37.5951V43.2011H26.6492V37.5951H28.8916ZM64.7699 43.2011H62.5275V37.5951H64.7699V43.2011ZM63.0881 26.3832H23.8462L21.0432 22.6462V20.7772H27.7704C28.3896 20.7772 28.8916 20.2752 28.8916 19.656C28.8916 19.0367 28.3896 18.5348 27.7704 18.5348H21.0432V15.1712H65.8911V18.5348H59.1639C58.5447 18.5348 58.0427 19.0367 58.0427 19.656C58.0427 20.2752 58.5447 20.7772 59.1639 20.7772H65.8911V22.6462L63.0881 26.3832Z" fill="white"/>
<path d="M36.7388 18.5352H32.254C31.6348 18.5352 31.1328 19.0371 31.1328 19.6564C31.1328 20.2756 31.6348 20.7776 32.254 20.7776H36.7388C37.358 20.7776 37.86 20.2756 37.86 19.6564C37.86 19.0371 37.358 18.5352 36.7388 18.5352Z" fill="white"/>
<path d="M45.7115 18.5352H41.2267C40.6074 18.5352 40.1055 19.0371 40.1055 19.6564C40.1055 20.2756 40.6074 20.7776 41.2267 20.7776H45.7115C46.3307 20.7776 46.8327 20.2756 46.8327 19.6564C46.8327 19.0371 46.3307 18.5352 45.7115 18.5352Z" fill="white"/>
<path d="M54.6802 18.5352H50.1954C49.5762 18.5352 49.0742 19.0371 49.0742 19.6564C49.0742 20.2756 49.5762 20.7776 50.1954 20.7776H54.6802C55.2994 20.7776 55.8014 20.2756 55.8014 19.6564C55.8014 19.0371 55.2994 18.5352 54.6802 18.5352Z" fill="white"/>
<path d="M53.5586 66.7462C53.5586 67.3654 54.0606 67.8674 54.6798 67.8674C55.299 67.8674 55.801 67.3654 55.801 66.7462C55.801 66.127 55.299 65.625 54.6798 65.625C54.0606 65.625 53.5586 66.127 53.5586 66.7462Z" fill="white"/>
<path d="M47.9531 66.7462C47.9531 67.3654 48.4551 67.8674 49.0743 67.8674C49.6935 67.8674 50.1955 67.3654 50.1955 66.7462C50.1955 66.127 49.6935 65.625 49.0743 65.625C48.4551 65.625 47.9531 66.127 47.9531 66.7462Z" fill="white"/>
<path d="M42.3477 66.7462C42.3477 67.3654 42.8496 67.8674 43.4689 67.8674C44.0881 67.8674 44.5901 67.3654 44.5901 66.7462C44.5901 66.127 44.0881 65.625 43.4689 65.625C42.8496 65.625 42.3477 66.127 42.3477 66.7462Z" fill="white"/>
<path d="M36.7383 66.7462C36.7383 67.3654 37.2403 67.8674 37.8595 67.8674C38.4787 67.8674 38.9807 67.3654 38.9807 66.7462C38.9807 66.127 38.4787 65.625 37.8595 65.625C37.2403 65.625 36.7383 66.127 36.7383 66.7462Z" fill="white"/>
<path d="M31.1328 66.7462C31.1328 67.3654 31.6348 67.8674 32.254 67.8674C32.8732 67.8674 33.3752 67.3654 33.3752 66.7462C33.3752 66.127 32.8732 65.625 32.254 65.625C31.6348 65.625 31.1328 66.127 31.1328 66.7462Z" fill="white"/>
</svg>
