<svg width="87" height="77" viewBox="0 0 87 77" fill="none" xmlns="http://www.w3.org/2000/svg">
<path opacity="0.2" d="M38.1522 76.8837C12.3998 76.8837 0.000814003 55.5863 0.000815217 27.8009C0.000816432 0.015505 8.60649 2.03241 34.3588 2.03241C60.1111 2.03241 93.2582 24.5569 84.7809 52.3423C84.7808 80.1277 63.9045 76.8837 38.1522 76.8837Z" fill="#F82462"/>
<path d="M20.1562 24.911V16.8576V16.0098H21.4279V13.4666L23.9711 10.4995L31.1768 6.68473L39.6542 4.98926H47.7076L54.4895 5.83699L60.8475 8.80407L64.6624 11.3473L65.934 16.0098H67.2056V24.911L63.8146 29.5736V37.2032L64.6624 38.0509L65.934 39.3225V60.9398L65.5101 63.0591L62.543 65.6023L60.8475 69.841L57.4566 71.9603H29.9052L26.0904 69.4171L24.8188 65.6023L21.004 62.2114V39.3225L23.5472 38.0509V29.1497L20.1562 24.911Z" fill="white"/>
<path d="M38.9808 53.793C36.2947 53.793 34.1172 55.9705 34.1172 58.6566C34.1172 61.3427 36.2947 63.5202 38.9808 63.5202H47.9504C50.6365 63.5202 52.814 61.3427 52.814 58.6566C52.814 55.9705 50.6365 53.793 47.9504 53.793H38.9808Z" fill="#252525" stroke="white" stroke-width="3"/>
<mask id="path-4-outside-1" maskUnits="userSpaceOnUse" x="15.8008" y="0.717773" width="56" height="76" fill="black">
<rect fill="white" x="15.8008" y="0.717773" width="56" height="76"/>
<path d="M68.1335 25.3939V14.9298H66.908C65.8575 8.55911 55.9461 3.71777 43.4671 3.71777C30.9882 3.71777 21.0768 8.55911 20.0263 14.9298H18.8008V25.3939L22.1644 29.8787V37.3537C20.9259 37.3537 19.922 38.3577 19.922 39.5961V60.8989C19.922 63.259 21.393 65.2749 23.4638 66.099L24.0177 67.7612C25.1064 71.0283 28.1637 73.2321 31.6074 73.2321H55.3266C58.7699 73.2321 61.8269 71.0288 62.9159 67.7622L63.4704 66.099C65.5413 65.2749 67.0123 63.259 67.0123 60.8989V39.5961C67.0123 38.3577 66.0084 37.3537 64.7699 37.3537V29.8787L68.1335 25.3939ZM43.4671 5.96017C54.215 5.96017 63.4009 9.96509 64.6219 14.9298H22.3124C23.5334 9.96509 32.7193 5.96017 43.4671 5.96017ZM22.1644 39.5961H24.4068V45.2021H22.1644V39.5961ZM25.528 64.2625C23.6735 64.2625 22.1644 62.7533 22.1644 60.8989V53.0505H30.0128V64.2625H25.528ZM60.6173 67.5704C59.9369 69.6123 58.0261 70.9897 55.8738 70.9897H31.0616C28.9093 70.9897 26.9986 69.6123 26.3181 67.5704L25.963 66.5049H60.9724L60.6173 67.5704ZM32.2552 64.2625V53.0505H54.6791V64.2625H32.2552ZM64.7699 60.8989C64.7699 62.7533 63.2608 64.2625 61.4063 64.2625H56.9215V53.0505H64.7699V60.8989ZM64.7699 50.8081H22.1644V47.4445H28.8916V48.5657C28.8916 49.1849 29.3935 49.6869 30.0128 49.6869C30.632 49.6869 31.134 49.1849 31.134 48.5657V47.4445H37.8612V48.5657C37.8612 49.1849 38.3631 49.6869 38.9824 49.6869C39.6016 49.6869 40.1036 49.1849 40.1036 48.5657V47.4445H46.8307V48.5657C46.8307 49.1849 47.3327 49.6869 47.9519 49.6869C48.5712 49.6869 49.0731 49.1849 49.0731 48.5657V47.4445H55.8003V48.5657C55.8003 49.1849 56.3023 49.6869 56.9215 49.6869C57.5407 49.6869 58.0427 49.1849 58.0427 48.5657V47.4445H64.7699V50.8081ZM27.7704 32.8689C28.3896 32.8689 28.8916 32.3669 28.8916 31.7477V30.6265H31.134C31.134 33.1034 33.1419 35.1113 35.6188 35.1113H51.3155C53.7924 35.1113 55.8003 33.1034 55.8003 30.6265H58.0427V31.7477C58.0427 32.3669 58.5447 32.8689 59.1639 32.8689C59.7831 32.8689 60.2851 32.3669 60.2851 31.7477V30.6265H62.5275V37.3537H24.4068V30.6265H26.6492V31.7477C26.6492 32.3669 27.1511 32.8689 27.7704 32.8689ZM35.6188 32.8689C34.3803 32.8689 33.3764 31.865 33.3764 30.6265H53.5579C53.5579 31.865 52.554 32.8689 51.3155 32.8689H35.6188ZM60.2851 39.5961V45.2021H58.0427V39.5961H60.2851ZM55.8003 39.5961V45.2021H53.5579V39.5961H55.8003ZM51.3155 39.5961V45.2021H49.0731V39.5961H51.3155ZM46.8307 39.5961V45.2021H44.5883V39.5961H46.8307ZM42.3459 39.5961V45.2021H40.1036V39.5961H42.3459ZM37.8612 39.5961V45.2021H35.6188V39.5961H37.8612ZM33.3764 39.5961V45.2021H31.134V39.5961H33.3764ZM28.8916 39.5961V45.2021H26.6492V39.5961H28.8916ZM64.7699 45.2021H62.5275V39.5961H64.7699V45.2021ZM63.0881 28.3841H23.8462L21.0432 24.6472V22.7781H27.7704C28.3896 22.7781 28.8916 22.2762 28.8916 21.6569C28.8916 21.0377 28.3896 20.5357 27.7704 20.5357H21.0432V17.1722H65.8911V20.5357H59.1639C58.5447 20.5357 58.0427 21.0377 58.0427 21.6569C58.0427 22.2762 58.5447 22.7781 59.1639 22.7781H65.8911V24.6472L63.0881 28.3841Z"/>
</mask>
<path d="M68.1335 25.3939V14.9298H66.908C65.8575 8.55911 55.9461 3.71777 43.4671 3.71777C30.9882 3.71777 21.0768 8.55911 20.0263 14.9298H18.8008V25.3939L22.1644 29.8787V37.3537C20.9259 37.3537 19.922 38.3577 19.922 39.5961V60.8989C19.922 63.259 21.393 65.2749 23.4638 66.099L24.0177 67.7612C25.1064 71.0283 28.1637 73.2321 31.6074 73.2321H55.3266C58.7699 73.2321 61.8269 71.0288 62.9159 67.7622L63.4704 66.099C65.5413 65.2749 67.0123 63.259 67.0123 60.8989V39.5961C67.0123 38.3577 66.0084 37.3537 64.7699 37.3537V29.8787L68.1335 25.3939ZM43.4671 5.96017C54.215 5.96017 63.4009 9.96509 64.6219 14.9298H22.3124C23.5334 9.96509 32.7193 5.96017 43.4671 5.96017ZM22.1644 39.5961H24.4068V45.2021H22.1644V39.5961ZM25.528 64.2625C23.6735 64.2625 22.1644 62.7533 22.1644 60.8989V53.0505H30.0128V64.2625H25.528ZM60.6173 67.5704C59.9369 69.6123 58.0261 70.9897 55.8738 70.9897H31.0616C28.9093 70.9897 26.9986 69.6123 26.3181 67.5704L25.963 66.5049H60.9724L60.6173 67.5704ZM32.2552 64.2625V53.0505H54.6791V64.2625H32.2552ZM64.7699 60.8989C64.7699 62.7533 63.2608 64.2625 61.4063 64.2625H56.9215V53.0505H64.7699V60.8989ZM64.7699 50.8081H22.1644V47.4445H28.8916V48.5657C28.8916 49.1849 29.3935 49.6869 30.0128 49.6869C30.632 49.6869 31.134 49.1849 31.134 48.5657V47.4445H37.8612V48.5657C37.8612 49.1849 38.3631 49.6869 38.9824 49.6869C39.6016 49.6869 40.1036 49.1849 40.1036 48.5657V47.4445H46.8307V48.5657C46.8307 49.1849 47.3327 49.6869 47.9519 49.6869C48.5712 49.6869 49.0731 49.1849 49.0731 48.5657V47.4445H55.8003V48.5657C55.8003 49.1849 56.3023 49.6869 56.9215 49.6869C57.5407 49.6869 58.0427 49.1849 58.0427 48.5657V47.4445H64.7699V50.8081ZM27.7704 32.8689C28.3896 32.8689 28.8916 32.3669 28.8916 31.7477V30.6265H31.134C31.134 33.1034 33.1419 35.1113 35.6188 35.1113H51.3155C53.7924 35.1113 55.8003 33.1034 55.8003 30.6265H58.0427V31.7477C58.0427 32.3669 58.5447 32.8689 59.1639 32.8689C59.7831 32.8689 60.2851 32.3669 60.2851 31.7477V30.6265H62.5275V37.3537H24.4068V30.6265H26.6492V31.7477C26.6492 32.3669 27.1511 32.8689 27.7704 32.8689ZM35.6188 32.8689C34.3803 32.8689 33.3764 31.865 33.3764 30.6265H53.5579C53.5579 31.865 52.554 32.8689 51.3155 32.8689H35.6188ZM60.2851 39.5961V45.2021H58.0427V39.5961H60.2851ZM55.8003 39.5961V45.2021H53.5579V39.5961H55.8003ZM51.3155 39.5961V45.2021H49.0731V39.5961H51.3155ZM46.8307 39.5961V45.2021H44.5883V39.5961H46.8307ZM42.3459 39.5961V45.2021H40.1036V39.5961H42.3459ZM37.8612 39.5961V45.2021H35.6188V39.5961H37.8612ZM33.3764 39.5961V45.2021H31.134V39.5961H33.3764ZM28.8916 39.5961V45.2021H26.6492V39.5961H28.8916ZM64.7699 45.2021H62.5275V39.5961H64.7699V45.2021ZM63.0881 28.3841H23.8462L21.0432 24.6472V22.7781H27.7704C28.3896 22.7781 28.8916 22.2762 28.8916 21.6569C28.8916 21.0377 28.3896 20.5357 27.7704 20.5357H21.0432V17.1722H65.8911V20.5357H59.1639C58.5447 20.5357 58.0427 21.0377 58.0427 21.6569C58.0427 22.2762 58.5447 22.7781 59.1639 22.7781H65.8911V24.6472L63.0881 28.3841Z" fill="#252525"/>
<path d="M68.1335 25.3939V14.9298H66.908C65.8575 8.55911 55.9461 3.71777 43.4671 3.71777C30.9882 3.71777 21.0768 8.55911 20.0263 14.9298H18.8008V25.3939L22.1644 29.8787V37.3537C20.9259 37.3537 19.922 38.3577 19.922 39.5961V60.8989C19.922 63.259 21.393 65.2749 23.4638 66.099L24.0177 67.7612C25.1064 71.0283 28.1637 73.2321 31.6074 73.2321H55.3266C58.7699 73.2321 61.8269 71.0288 62.9159 67.7622L63.4704 66.099C65.5413 65.2749 67.0123 63.259 67.0123 60.8989V39.5961C67.0123 38.3577 66.0084 37.3537 64.7699 37.3537V29.8787L68.1335 25.3939ZM43.4671 5.96017C54.215 5.96017 63.4009 9.96509 64.6219 14.9298H22.3124C23.5334 9.96509 32.7193 5.96017 43.4671 5.96017ZM22.1644 39.5961H24.4068V45.2021H22.1644V39.5961ZM25.528 64.2625C23.6735 64.2625 22.1644 62.7533 22.1644 60.8989V53.0505H30.0128V64.2625H25.528ZM60.6173 67.5704C59.9369 69.6123 58.0261 70.9897 55.8738 70.9897H31.0616C28.9093 70.9897 26.9986 69.6123 26.3181 67.5704L25.963 66.5049H60.9724L60.6173 67.5704ZM32.2552 64.2625V53.0505H54.6791V64.2625H32.2552ZM64.7699 60.8989C64.7699 62.7533 63.2608 64.2625 61.4063 64.2625H56.9215V53.0505H64.7699V60.8989ZM64.7699 50.8081H22.1644V47.4445H28.8916V48.5657C28.8916 49.1849 29.3935 49.6869 30.0128 49.6869C30.632 49.6869 31.134 49.1849 31.134 48.5657V47.4445H37.8612V48.5657C37.8612 49.1849 38.3631 49.6869 38.9824 49.6869C39.6016 49.6869 40.1036 49.1849 40.1036 48.5657V47.4445H46.8307V48.5657C46.8307 49.1849 47.3327 49.6869 47.9519 49.6869C48.5712 49.6869 49.0731 49.1849 49.0731 48.5657V47.4445H55.8003V48.5657C55.8003 49.1849 56.3023 49.6869 56.9215 49.6869C57.5407 49.6869 58.0427 49.1849 58.0427 48.5657V47.4445H64.7699V50.8081ZM27.7704 32.8689C28.3896 32.8689 28.8916 32.3669 28.8916 31.7477V30.6265H31.134C31.134 33.1034 33.1419 35.1113 35.6188 35.1113H51.3155C53.7924 35.1113 55.8003 33.1034 55.8003 30.6265H58.0427V31.7477C58.0427 32.3669 58.5447 32.8689 59.1639 32.8689C59.7831 32.8689 60.2851 32.3669 60.2851 31.7477V30.6265H62.5275V37.3537H24.4068V30.6265H26.6492V31.7477C26.6492 32.3669 27.1511 32.8689 27.7704 32.8689ZM35.6188 32.8689C34.3803 32.8689 33.3764 31.865 33.3764 30.6265H53.5579C53.5579 31.865 52.554 32.8689 51.3155 32.8689H35.6188ZM60.2851 39.5961V45.2021H58.0427V39.5961H60.2851ZM55.8003 39.5961V45.2021H53.5579V39.5961H55.8003ZM51.3155 39.5961V45.2021H49.0731V39.5961H51.3155ZM46.8307 39.5961V45.2021H44.5883V39.5961H46.8307ZM42.3459 39.5961V45.2021H40.1036V39.5961H42.3459ZM37.8612 39.5961V45.2021H35.6188V39.5961H37.8612ZM33.3764 39.5961V45.2021H31.134V39.5961H33.3764ZM28.8916 39.5961V45.2021H26.6492V39.5961H28.8916ZM64.7699 45.2021H62.5275V39.5961H64.7699V45.2021ZM63.0881 28.3841H23.8462L21.0432 24.6472V22.7781H27.7704C28.3896 22.7781 28.8916 22.2762 28.8916 21.6569C28.8916 21.0377 28.3896 20.5357 27.7704 20.5357H21.0432V17.1722H65.8911V20.5357H59.1639C58.5447 20.5357 58.0427 21.0377 58.0427 21.6569C58.0427 22.2762 58.5447 22.7781 59.1639 22.7781H65.8911V24.6472L63.0881 28.3841Z" stroke="white" stroke-width="6" mask="url(#path-4-outside-1)"/>
<path d="M36.7388 20.5361H32.254C31.6348 20.5361 31.1328 21.0381 31.1328 21.6573C31.1328 22.2766 31.6348 22.7785 32.254 22.7785H36.7388C37.358 22.7785 37.86 22.2766 37.86 21.6573C37.86 21.0381 37.358 20.5361 36.7388 20.5361Z" fill="#252525"/>
<path d="M45.7115 20.5361H41.2267C40.6074 20.5361 40.1055 21.0381 40.1055 21.6573C40.1055 22.2766 40.6074 22.7785 41.2267 22.7785H45.7115C46.3307 22.7785 46.8327 22.2766 46.8327 21.6573C46.8327 21.0381 46.3307 20.5361 45.7115 20.5361Z" fill="#252525"/>
<path d="M54.6802 20.5361H50.1954C49.5762 20.5361 49.0742 21.0381 49.0742 21.6573C49.0742 22.2766 49.5762 22.7785 50.1954 22.7785H54.6802C55.2994 22.7785 55.8014 22.2766 55.8014 21.6573C55.8014 21.0381 55.2994 20.5361 54.6802 20.5361Z" fill="#252525"/>
<path d="M53.5586 68.7472C53.5586 69.3664 54.0606 69.8684 54.6798 69.8684C55.299 69.8684 55.801 69.3664 55.801 68.7472C55.801 68.128 55.299 67.626 54.6798 67.626C54.0606 67.626 53.5586 68.128 53.5586 68.7472Z" fill="#252525"/>
<path d="M47.9531 68.7472C47.9531 69.3664 48.4551 69.8684 49.0743 69.8684C49.6935 69.8684 50.1955 69.3664 50.1955 68.7472C50.1955 68.128 49.6935 67.626 49.0743 67.626C48.4551 67.626 47.9531 68.128 47.9531 68.7472Z" fill="#252525"/>
<path d="M42.3477 68.7472C42.3477 69.3664 42.8496 69.8684 43.4689 69.8684C44.0881 69.8684 44.5901 69.3664 44.5901 68.7472C44.5901 68.128 44.0881 67.626 43.4689 67.626C42.8496 67.626 42.3477 68.128 42.3477 68.7472Z" fill="#252525"/>
<path d="M36.7383 68.7472C36.7383 69.3664 37.2403 69.8684 37.8595 69.8684C38.4787 69.8684 38.9807 69.3664 38.9807 68.7472C38.9807 68.128 38.4787 67.626 37.8595 67.626C37.2403 67.626 36.7383 68.128 36.7383 68.7472Z" fill="#252525"/>
<path d="M31.1328 68.7472C31.1328 69.3664 31.6348 69.8684 32.254 69.8684C32.8732 69.8684 33.3752 69.3664 33.3752 68.7472C33.3752 68.128 32.8732 67.626 32.254 67.626C31.6348 67.626 31.1328 68.128 31.1328 68.7472Z" fill="#252525"/>
</svg>
