<svg width="111" height="113" viewBox="0 0 111 113" fill="none" xmlns="http://www.w3.org/2000/svg">
<path d="M26.3518 89.0425C3.53368 75.8684 15.2907 47.48 29.5048 22.8604C43.7189 -1.75916 50.3122 4.43033 73.1304 17.6044C95.9485 30.7784 94.4364 66.5315 80.2223 91.151C66.0082 115.771 49.1699 102.217 26.3518 89.0425Z" fill="white" fill-opacity="0.2"/>
<path d="M80.266 32.0098H25.707C22.8143 32.0098 20.4609 34.3631 20.4609 37.2558V68.7322C20.4609 71.6248 22.8143 73.9782 25.707 73.9782H40.3959V76.2243C40.3959 77.8811 41.7391 79.2243 43.3959 79.2243H43.5436V82.3719H37.2483V79.2243H33.953C32.2962 79.2243 30.953 80.5674 30.953 82.2243V88.8148C30.953 90.4716 32.2962 91.8148 33.953 91.8148H37.2483V88.6672H43.5436V90.7656C43.5436 91.1827 43.6658 91.5717 43.8764 91.8987C44.5038 92.8731 45.642 93.8035 45.642 94.9624C45.642 96.1213 46.5815 97.0608 47.7404 97.0608H58.2325C59.3915 97.0608 60.331 96.1213 60.331 94.9624C60.331 93.8035 61.4691 92.8731 62.0966 91.8987C62.3071 91.5717 62.4294 91.1827 62.4294 90.7656V79.2243H62.577C64.2339 79.2243 65.577 77.8811 65.577 76.2243V73.9782H80.266C83.1586 73.9782 85.512 71.6248 85.512 68.7322V37.2558C85.512 34.3631 83.1586 32.0098 80.266 32.0098ZM35.1499 88.6672C35.1499 89.2466 34.6801 89.7164 34.1007 89.7164C33.5212 89.7164 33.0515 89.2466 33.0515 88.6672V82.3719C33.0515 81.7924 33.5212 81.3227 34.1007 81.3227C34.6801 81.3227 35.1499 81.7924 35.1499 82.3719V88.6672ZM43.5436 85.5195C43.5436 86.099 43.0738 86.5687 42.4944 86.5687H38.2975C37.7181 86.5687 37.2483 86.099 37.2483 85.5195C37.2483 84.9401 37.7181 84.4703 38.2975 84.4703H42.4944C43.0738 84.4703 43.5436 84.9401 43.5436 85.5195ZM44.0682 77.1258C43.199 77.1258 42.4944 76.4212 42.4944 75.552C42.4944 74.6828 43.199 73.9782 44.0682 73.9782C44.9374 73.9782 45.642 74.6828 45.642 75.552C45.642 76.4212 44.9374 77.1258 44.0682 77.1258ZM45.642 80.2735C45.642 79.694 46.1117 79.2243 46.6912 79.2243C47.2707 79.2243 47.7404 79.694 47.7404 80.2735V89.7164C47.7404 90.2958 47.2707 90.7656 46.6912 90.7656C46.1117 90.7656 45.642 90.2958 45.642 89.7164V80.2735ZM58.2325 93.9132C58.2325 94.4927 57.7628 94.9624 57.1833 94.9624H48.7896C48.2102 94.9624 47.7404 94.4927 47.7404 93.9132C47.7404 93.3338 48.2102 92.864 48.7896 92.864H49.8388H56.1341H57.1833C57.7628 92.864 58.2325 93.3338 58.2325 93.9132ZM55.0849 84.4703C55.6644 84.4703 56.1341 84.9401 56.1341 85.5195C56.1341 86.099 55.6644 86.5687 55.0849 86.5687H50.8881C50.3086 86.5687 49.8388 86.099 49.8388 85.5195C49.8388 84.9401 50.3086 84.4703 50.8881 84.4703C51.4675 84.4703 51.9373 84.0006 51.9373 83.4211C51.9373 82.8416 51.4675 82.3719 50.8881 82.3719H49.8388V79.2243H56.1341V82.3719H55.0849C54.5054 82.3719 54.0357 82.8416 54.0357 83.4211C54.0357 84.0006 54.5054 84.4703 55.0849 84.4703ZM55.0849 88.6672C55.6644 88.6672 56.1341 89.1369 56.1341 89.7164C56.1341 90.2958 55.6644 90.7656 55.0849 90.7656H50.8881C50.3086 90.7656 49.8388 90.2958 49.8388 89.7164C49.8388 89.1369 50.3086 88.6672 50.8881 88.6672H55.0849ZM49.3142 77.1258C48.445 77.1258 47.7404 76.4212 47.7404 75.552C47.7404 74.6828 48.445 73.9782 49.3142 73.9782H56.6587C57.5279 73.9782 58.2325 74.6828 58.2325 75.552C58.2325 76.4212 57.5279 77.1258 56.6587 77.1258H49.3142ZM60.331 89.7164C60.331 90.2958 59.8612 90.7656 59.2817 90.7656C58.7023 90.7656 58.2325 90.2958 58.2325 89.7164V80.2735C58.2325 79.694 58.7023 79.2243 59.2817 79.2243C59.8612 79.2243 60.331 79.694 60.331 80.2735V89.7164ZM63.4786 75.552C63.4786 76.4212 62.774 77.1258 61.9048 77.1258C61.0356 77.1258 60.331 76.4212 60.331 75.552C60.331 74.6828 61.0356 73.9782 61.9048 73.9782C62.774 73.9782 63.4786 74.6828 63.4786 75.552ZM83.4136 68.7322C83.4136 70.4675 82.0014 71.8798 80.266 71.8798H25.707C23.9716 71.8798 22.5594 70.4675 22.5594 68.7322V37.2558C22.5594 35.5204 23.9716 34.1082 25.707 34.1082H80.266C82.0014 34.1082 83.4136 35.5204 83.4136 37.2558V68.7322Z" fill="white"/>
<path d="M79.2153 50.896C80.3742 50.896 81.3137 49.9565 81.3137 48.7976V42.5023C81.3137 41.3434 80.3742 40.4039 79.2153 40.4039V39.207C79.2153 37.5502 77.8722 36.207 76.2153 36.207H36.1976C35.6182 36.207 35.1484 36.6768 35.1484 37.2562C35.1484 37.8357 35.6182 38.3055 36.1976 38.3055H77.1169V40.4039C75.9579 40.4039 75.0185 41.3434 75.0185 42.5023V48.7976C75.0185 49.9565 75.9579 50.896 77.1169 50.896V55.0928C75.9579 55.0928 75.0185 56.0323 75.0185 57.1912V63.4865C75.0185 64.6454 75.9579 65.5849 77.1169 65.5849V67.6834H73.9692C73.3898 67.6834 72.92 68.1531 72.92 68.7326C72.92 69.312 73.3898 69.7818 73.9692 69.7818H76.2153C77.8721 69.7818 79.2153 68.4386 79.2153 66.7818V65.5849C80.3742 65.5849 81.3137 64.6454 81.3137 63.4865V57.1912C81.3137 56.0323 80.3742 55.0928 79.2153 55.0928V50.896ZM79.2153 62.4373C79.2153 63.0168 78.7455 63.4865 78.1661 63.4865C77.5866 63.4865 77.1169 63.0168 77.1169 62.4373V58.2405C77.1169 57.661 77.5866 57.1912 78.1661 57.1912C78.7455 57.1912 79.2153 57.661 79.2153 58.2405V62.4373ZM78.1661 48.7976C77.5866 48.7976 77.1169 48.3278 77.1169 47.7484V43.5515C77.1169 42.972 77.5866 42.5023 78.1661 42.5023C78.7455 42.5023 79.2153 42.972 79.2153 43.5515V47.7484C79.2153 48.3278 78.7455 48.7976 78.1661 48.7976Z" fill="white"/>
<path d="M28.8531 67.6834V65.5849C30.012 65.5849 30.9515 64.6454 30.9515 63.4865V57.1912C30.9515 56.0323 30.012 55.0928 28.8531 55.0928V50.896C30.012 50.896 30.9515 49.9565 30.9515 48.7976V42.5023C30.9515 41.3434 30.012 40.4039 28.8531 40.4039V38.3055H32.0007C32.5802 38.3055 33.0499 37.8357 33.0499 37.2562C33.0499 36.6768 32.5802 36.207 32.0007 36.207H29.7547C28.0978 36.207 26.7547 37.5502 26.7547 39.207V40.4039C25.5957 40.4039 24.6562 41.3434 24.6562 42.5023V48.7976C24.6562 49.9565 25.5957 50.896 26.7547 50.896V55.0928C25.5957 55.0928 24.6562 56.0323 24.6562 57.1912V63.4865C24.6562 64.6454 25.5957 65.5849 26.7547 65.5849V66.7818C26.7547 68.4386 28.0978 69.7818 29.7547 69.7818H69.7723C70.3518 69.7818 70.8215 69.312 70.8215 68.7326C70.8215 68.1531 70.3518 67.6834 69.7723 67.6834H28.8531ZM26.7547 43.5515C26.7547 42.972 27.2244 42.5023 27.8039 42.5023C28.3833 42.5023 28.8531 42.972 28.8531 43.5515V47.7483C28.8531 48.3278 28.3833 48.7976 27.8039 48.7976C27.2244 48.7976 26.7547 48.3278 26.7547 47.7484V43.5515ZM26.7547 58.2405C26.7547 57.661 27.2244 57.1912 27.8039 57.1912C28.3833 57.1912 28.8531 57.661 28.8531 58.2405V62.4373C28.8531 63.0168 28.3833 63.4865 27.8039 63.4865C27.2244 63.4865 26.7547 63.0168 26.7547 62.4373V58.2405Z" fill="white"/>
<path d="M33.0508 43.5512C33.0508 44.1306 33.5205 44.6004 34.1 44.6004C34.6795 44.6004 35.1492 44.1306 35.1492 43.5512C35.1492 42.9717 34.6795 42.502 34.1 42.502C33.5205 42.502 33.0508 42.9717 33.0508 43.5512Z" fill="white"/>
<path d="M39.3477 43.5512C39.3477 44.1306 39.8174 44.6004 40.3969 44.6004C40.9763 44.6004 41.4461 44.1306 41.4461 43.5512C41.4461 42.9717 40.9763 42.502 40.3969 42.502C39.8174 42.502 39.3477 42.9717 39.3477 43.5512Z" fill="white"/>
<path d="M45.6406 43.5512C45.6406 44.1306 46.1104 44.6004 46.6898 44.6004C47.2693 44.6004 47.739 44.1306 47.739 43.5512C47.739 42.9717 47.2693 42.502 46.6898 42.502C46.1104 42.502 45.6406 42.9717 45.6406 43.5512Z" fill="white"/>
<path d="M51.9375 43.5512C51.9375 44.1306 52.4072 44.6004 52.9867 44.6004C53.5662 44.6004 54.0359 44.1306 54.0359 43.5512C54.0359 42.9717 53.5662 42.502 52.9867 42.502C52.4072 42.502 51.9375 42.9717 51.9375 43.5512Z" fill="white"/>
<path d="M58.2344 43.5512C58.2344 44.1306 58.7041 44.6004 59.2836 44.6004C59.8631 44.6004 60.3328 44.1306 60.3328 43.5512C60.3328 42.9717 59.8631 42.502 59.2836 42.502C58.7041 42.502 58.2344 42.9717 58.2344 43.5512Z" fill="white"/>
<path d="M64.5273 43.5512C64.5273 44.1306 64.9971 44.6004 65.5766 44.6004C66.156 44.6004 66.6258 44.1306 66.6258 43.5512C66.6258 42.9717 66.156 42.502 65.5766 42.502C64.9971 42.502 64.5273 42.9717 64.5273 43.5512Z" fill="white"/>
<path d="M70.8242 43.5512C70.8242 44.1306 71.294 44.6004 71.8734 44.6004C72.4529 44.6004 72.9226 44.1306 72.9226 43.5512C72.9226 42.9717 72.4529 42.502 71.8734 42.502C71.294 42.502 70.8242 42.9717 70.8242 43.5512Z" fill="white"/>
<path d="M33.0508 49.8461C33.0508 50.4255 33.5205 50.8953 34.1 50.8953C34.6795 50.8953 35.1492 50.4255 35.1492 49.8461C35.1492 49.2666 34.6795 48.7969 34.1 48.7969C33.5205 48.7969 33.0508 49.2666 33.0508 49.8461Z" fill="white"/>
<path d="M39.3477 49.8461C39.3477 50.4255 39.8174 50.8953 40.3969 50.8953C40.9763 50.8953 41.4461 50.4255 41.4461 49.8461C41.4461 49.2666 40.9763 48.7969 40.3969 48.7969C39.8174 48.7969 39.3477 49.2666 39.3477 49.8461Z" fill="white"/>
<path d="M45.6406 49.8461C45.6406 50.4255 46.1104 50.8953 46.6898 50.8953C47.2693 50.8953 47.739 50.4255 47.739 49.8461C47.739 49.2666 47.2693 48.7969 46.6898 48.7969C46.1104 48.7969 45.6406 49.2666 45.6406 49.8461Z" fill="white"/>
<path d="M51.9375 49.8461C51.9375 50.4255 52.4072 50.8953 52.9867 50.8953C53.5662 50.8953 54.0359 50.4255 54.0359 49.8461C54.0359 49.2666 53.5662 48.7969 52.9867 48.7969C52.4072 48.7969 51.9375 49.2666 51.9375 49.8461Z" fill="white"/>
<path d="M58.2344 49.8461C58.2344 50.4255 58.7041 50.8953 59.2836 50.8953C59.8631 50.8953 60.3328 50.4255 60.3328 49.8461C60.3328 49.2666 59.8631 48.7969 59.2836 48.7969C58.7041 48.7969 58.2344 49.2666 58.2344 49.8461Z" fill="white"/>
<path d="M64.5273 49.8461C64.5273 50.4255 64.9971 50.8953 65.5766 50.8953C66.156 50.8953 66.6258 50.4255 66.6258 49.8461C66.6258 49.2666 66.156 48.7969 65.5766 48.7969C64.9971 48.7969 64.5273 49.2666 64.5273 49.8461Z" fill="white"/>
<path d="M70.8242 49.8461C70.8242 50.4255 71.294 50.8953 71.8734 50.8953C72.4529 50.8953 72.9226 50.4255 72.9226 49.8461C72.9226 49.2666 72.4529 48.7969 71.8734 48.7969C71.294 48.7969 70.8242 49.2666 70.8242 49.8461Z" fill="white"/>
<path d="M33.0508 56.141C33.0508 56.7205 33.5205 57.1902 34.1 57.1902C34.6795 57.1902 35.1492 56.7205 35.1492 56.141C35.1492 55.5615 34.6795 55.0918 34.1 55.0918C33.5205 55.0918 33.0508 55.5615 33.0508 56.141Z" fill="white"/>
<path d="M39.3477 56.141C39.3477 56.7205 39.8174 57.1902 40.3969 57.1902C40.9763 57.1902 41.4461 56.7205 41.4461 56.141C41.4461 55.5615 40.9763 55.0918 40.3969 55.0918C39.8174 55.0918 39.3477 55.5615 39.3477 56.141Z" fill="white"/>
<path d="M45.6406 56.141C45.6406 56.7205 46.1104 57.1902 46.6898 57.1902C47.2693 57.1902 47.739 56.7205 47.739 56.141C47.739 55.5615 47.2693 55.0918 46.6898 55.0918C46.1104 55.0918 45.6406 55.5615 45.6406 56.141Z" fill="white"/>
<path d="M51.9375 56.141C51.9375 56.7205 52.4072 57.1902 52.9867 57.1902C53.5662 57.1902 54.0359 56.7205 54.0359 56.141C54.0359 55.5615 53.5662 55.0918 52.9867 55.0918C52.4072 55.0918 51.9375 55.5615 51.9375 56.141Z" fill="white"/>
<path d="M58.2344 56.141C58.2344 56.7205 58.7041 57.1902 59.2836 57.1902C59.8631 57.1902 60.3328 56.7205 60.3328 56.141C60.3328 55.5615 59.8631 55.0918 59.2836 55.0918C58.7041 55.0918 58.2344 55.5615 58.2344 56.141Z" fill="white"/>
<path d="M64.5273 56.141C64.5273 56.7205 64.9971 57.1902 65.5766 57.1902C66.156 57.1902 66.6258 56.7205 66.6258 56.141C66.6258 55.5615 66.156 55.0918 65.5766 55.0918C64.9971 55.0918 64.5273 55.5615 64.5273 56.141Z" fill="white"/>
<path d="M70.8242 56.141C70.8242 56.7205 71.294 57.1902 71.8734 57.1902C72.4529 57.1902 72.9226 56.7205 72.9226 56.141C72.9226 55.5615 72.4529 55.0918 71.8734 55.0918C71.294 55.0918 70.8242 55.5615 70.8242 56.141Z" fill="white"/>
<path d="M33.0508 62.4359C33.0508 63.0154 33.5205 63.4851 34.1 63.4851C34.6795 63.4851 35.1492 63.0154 35.1492 62.4359C35.1492 61.8565 34.6795 61.3867 34.1 61.3867C33.5205 61.3867 33.0508 61.8565 33.0508 62.4359Z" fill="white"/>
<path d="M39.3477 62.4359C39.3477 63.0154 39.8174 63.4851 40.3969 63.4851C40.9763 63.4851 41.4461 63.0154 41.4461 62.4359C41.4461 61.8565 40.9763 61.3867 40.3969 61.3867C39.8174 61.3867 39.3477 61.8565 39.3477 62.4359Z" fill="white"/>
<path d="M45.6406 62.4359C45.6406 63.0154 46.1104 63.4851 46.6898 63.4851C47.2693 63.4851 47.739 63.0154 47.739 62.4359C47.739 61.8565 47.2693 61.3867 46.6898 61.3867C46.1104 61.3867 45.6406 61.8565 45.6406 62.4359Z" fill="white"/>
<path d="M51.9375 62.4359C51.9375 63.0154 52.4072 63.4851 52.9867 63.4851C53.5662 63.4851 54.0359 63.0154 54.0359 62.4359C54.0359 61.8565 53.5662 61.3867 52.9867 61.3867C52.4072 61.3867 51.9375 61.8565 51.9375 62.4359Z" fill="white"/>
<path d="M58.2344 62.4359C58.2344 63.0154 58.7041 63.4851 59.2836 63.4851C59.863 63.4851 60.3328 63.0154 60.3328 62.4359C60.3328 61.8565 59.863 61.3867 59.2836 61.3867C58.7041 61.3867 58.2344 61.8565 58.2344 62.4359Z" fill="white"/>
<path d="M64.5273 62.4359C64.5273 63.0154 64.9971 63.4851 65.5766 63.4851C66.156 63.4851 66.6258 63.0154 66.6258 62.4359C66.6258 61.8565 66.156 61.3867 65.5766 61.3867C64.9971 61.3867 64.5273 61.8565 64.5273 62.4359Z" fill="white"/>
<path d="M70.8242 62.4359C70.8242 63.0154 71.294 63.4851 71.8734 63.4851C72.4529 63.4851 72.9226 63.0154 72.9226 62.4359C72.9226 61.8565 72.4529 61.3867 71.8734 61.3867C71.294 61.3867 70.8242 61.8565 70.8242 62.4359Z" fill="white"/>
</svg>
