<svg width="111" height="113" viewBox="0 0 111 113" fill="none" xmlns="http://www.w3.org/2000/svg">
<path opacity="0.2" d="M26.3518 89.0435C3.53368 75.8694 15.2907 47.4809 29.5048 22.8614C43.7189 -1.75818 50.3122 4.4313 73.1304 17.6054C95.9485 30.7794 94.4364 66.5324 80.2223 91.152C66.0082 115.772 49.1699 102.218 26.3518 89.0435Z" fill="#F82462"/>
<path d="M81.6085 35.0459H23.0625V71.4745H39.5421V78.847H65.9962V69.7398H81.6085V35.0459Z" fill="white"/>
<path d="M42.0436 80.5175V80.8719H38.7483V79.2243V77.7243H37.2483H33.953C31.4678 77.7243 29.453 79.739 29.453 82.2243V88.8148C29.453 91.3001 31.4678 93.3148 33.953 93.3148H37.2483H38.7483V91.8148V90.1672H42.0436V90.7656C42.0436 91.4799 42.2538 92.1495 42.6152 92.7108C42.8189 93.0271 43.0521 93.3219 43.2481 93.5656C43.2857 93.6123 43.3218 93.6571 43.3568 93.7004C43.5189 93.9012 43.6548 94.0696 43.7812 94.2434C44.0992 94.6808 44.142 94.8765 44.142 94.9624C44.142 96.9498 45.7531 98.5608 47.7404 98.5608H58.2325C60.2199 98.5608 61.831 96.9498 61.831 94.9624C61.831 94.8765 61.8738 94.6808 62.1917 94.2434C62.3181 94.0696 62.454 93.9012 62.6161 93.7005C62.6511 93.6572 62.6872 93.6124 62.7248 93.5656C62.9209 93.3219 63.154 93.0271 63.3577 92.7108C63.7191 92.1495 63.9294 91.4799 63.9294 90.7656V80.5175C65.7539 79.9434 67.077 78.2383 67.077 76.2243V75.4782H80.266C83.9871 75.4782 87.012 72.4533 87.012 68.7322V37.2558C87.012 33.5347 83.9871 30.5098 80.266 30.5098H25.707C21.9859 30.5098 18.9609 33.5347 18.9609 37.2558V68.7322C18.9609 72.4533 21.9859 75.4782 25.707 75.4782H38.8959V76.2243C38.8959 78.2383 40.2191 79.9434 42.0436 80.5175ZM44.0682 75.6258C44.0274 75.6258 43.9944 75.5928 43.9944 75.552C43.9944 75.5113 44.0274 75.4782 44.0682 75.4782C44.109 75.4782 44.142 75.5113 44.142 75.552C44.142 75.5928 44.109 75.6258 44.0682 75.6258ZM52.9865 84.869C53.0343 84.9381 53.0854 85.0048 53.1396 85.0687H52.8333C52.8876 85.0048 52.9387 84.9381 52.9865 84.869ZM54.6341 80.9116C53.9528 81.0332 53.3651 81.4255 52.9865 81.9733C52.6078 81.4255 52.0202 81.0332 51.3388 80.9116V80.7243H54.6341V80.9116ZM49.3142 75.6258C49.2735 75.6258 49.2404 75.5928 49.2404 75.552C49.2404 75.5113 49.2735 75.4782 49.3142 75.4782H56.6587C56.6995 75.4782 56.7325 75.5113 56.7325 75.552C56.7325 75.5928 56.6995 75.6258 56.6587 75.6258H49.3142ZM61.9786 75.552C61.9786 75.5928 61.9455 75.6258 61.9048 75.6258C61.864 75.6258 61.831 75.5928 61.831 75.552C61.831 75.5113 61.864 75.4782 61.9048 75.4782C61.9455 75.4782 61.9786 75.5113 61.9786 75.552ZM81.9136 68.7322C81.9136 69.6391 81.1729 70.3798 80.266 70.3798H25.707C24.8 70.3798 24.0594 69.6391 24.0594 68.7322V37.2558C24.0594 36.3489 24.8 35.6082 25.707 35.6082H80.266C81.1729 35.6082 81.9136 36.3489 81.9136 37.2558V68.7322Z" fill="#252525" stroke="white" stroke-width="3"/>
<path d="M79.7153 51.3479C80.9111 51.1148 81.8137 50.0616 81.8137 48.7976V42.5023C81.8137 41.2383 80.9111 40.185 79.7153 39.9519V39.207C79.7153 37.274 78.1483 35.707 76.2153 35.707H36.1976C35.342 35.707 34.6484 36.4006 34.6484 37.2562C34.6484 38.1118 35.342 38.8055 36.1976 38.8055H76.6169V39.9519C75.421 40.185 74.5185 41.2383 74.5185 42.5023V48.7976C74.5185 50.0616 75.421 51.1148 76.6169 51.3479V54.6409C75.421 54.874 74.5185 55.9272 74.5185 57.1912V63.4865C74.5185 64.7505 75.421 65.8038 76.6169 66.0369V67.1834H73.9692C73.1136 67.1834 72.42 67.877 72.42 68.7326C72.42 69.5882 73.1136 70.2818 73.9692 70.2818H76.2153C78.1483 70.2818 79.7153 68.7148 79.7153 66.7818V66.0369C80.9111 65.8038 81.8137 64.7506 81.8137 63.4865V57.1912C81.8137 55.9272 80.9111 54.874 79.7153 54.6409V51.3479ZM78.7153 62.4373C78.7153 62.7406 78.4694 62.9865 78.1661 62.9865C77.8628 62.9865 77.6169 62.7406 77.6169 62.4373V58.2405C77.6169 57.9371 77.8628 57.6912 78.1661 57.6912C78.4694 57.6912 78.7153 57.9371 78.7153 58.2405V62.4373ZM78.1661 48.2976C77.8628 48.2976 77.6169 48.0517 77.6169 47.7484V43.5515C77.6169 43.2482 77.8628 43.0023 78.1661 43.0023C78.4694 43.0023 78.7153 43.2482 78.7153 43.5515V47.7484C78.7153 48.0517 78.4694 48.2976 78.1661 48.2976Z" fill="black" stroke="white"/>
<path d="M29.3531 67.1834V66.0369C30.5489 65.8038 31.4515 64.7506 31.4515 63.4865V57.1912C31.4515 55.9272 30.5489 54.874 29.3531 54.6409V51.3479C30.5489 51.1148 31.4515 50.0616 31.4515 48.7976V42.5023C31.4515 41.2383 30.5489 40.185 29.3531 39.9519V38.8055H32.0007C32.8563 38.8055 33.5499 38.1118 33.5499 37.2562C33.5499 36.4006 32.8563 35.707 32.0007 35.707H29.7547C27.8217 35.707 26.2547 37.274 26.2547 39.207V39.9519C25.0588 40.185 24.1562 41.2383 24.1562 42.5023V48.7976C24.1562 50.0616 25.0588 51.1148 26.2547 51.3479V54.6409C25.0588 54.874 24.1562 55.9272 24.1562 57.1912V63.4865C24.1562 64.7505 25.0588 65.8038 26.2547 66.0369V66.7818C26.2547 68.7148 27.8217 70.2818 29.7547 70.2818H69.7723C70.6279 70.2818 71.3215 69.5882 71.3215 68.7326C71.3215 67.877 70.6279 67.1834 69.7723 67.1834H29.3531ZM27.2547 43.5515C27.2547 43.2482 27.5006 43.0023 27.8039 43.0023C28.1072 43.0023 28.3531 43.2482 28.3531 43.5515V47.7483C28.3531 48.0517 28.1072 48.2976 27.8039 48.2976C27.5006 48.2976 27.2547 48.0517 27.2547 47.7484V43.5515ZM27.2547 58.2405C27.2547 57.9371 27.5006 57.6912 27.8039 57.6912C28.1072 57.6912 28.3531 57.9371 28.3531 58.2405V62.4373C28.3531 62.7406 28.1072 62.9865 27.8039 62.9865C27.5006 62.9865 27.2547 62.7406 27.2547 62.4373V58.2405Z" fill="black" stroke="white"/>
<path d="M32.5508 43.5512C32.5508 44.4068 33.2444 45.1004 34.1 45.1004C34.9556 45.1004 35.6492 44.4068 35.6492 43.5512C35.6492 42.6956 34.9556 42.002 34.1 42.002C33.2444 42.002 32.5508 42.6956 32.5508 43.5512Z" fill="black" stroke="white"/>
<path d="M38.8438 43.5512C38.8438 44.4068 39.5374 45.1004 40.393 45.1004C41.2486 45.1004 41.9422 44.4068 41.9422 43.5512C41.9422 42.6956 41.2486 42.002 40.393 42.002C39.5374 42.002 38.8438 42.6956 38.8438 43.5512Z" fill="black" stroke="white"/>
<path d="M45.1406 43.5512C45.1406 44.4068 45.8342 45.1004 46.6898 45.1004C47.5454 45.1004 48.239 44.4068 48.239 43.5512C48.239 42.6956 47.5454 42.002 46.6898 42.002C45.8342 42.002 45.1406 42.6956 45.1406 43.5512Z" fill="black" stroke="white"/>
<path d="M51.4336 43.5512C51.4336 44.4068 52.1272 45.1004 52.9828 45.1004C53.8384 45.1004 54.532 44.4068 54.532 43.5512C54.532 42.6956 53.8384 42.002 52.9828 42.002C52.1272 42.002 51.4336 42.6956 51.4336 43.5512Z" fill="black" stroke="white"/>
<path d="M57.7305 43.5512C57.7305 44.4068 58.4241 45.1004 59.2797 45.1004C60.1353 45.1004 60.8289 44.4068 60.8289 43.5512C60.8289 42.6956 60.1353 42.002 59.2797 42.002C58.4241 42.002 57.7305 42.6956 57.7305 43.5512Z" fill="black" stroke="white"/>
<path d="M64.0273 43.5512C64.0273 44.4068 64.7209 45.1004 65.5766 45.1004C66.4322 45.1004 67.1258 44.4068 67.1258 43.5512C67.1258 42.6956 66.4322 42.002 65.5766 42.002C64.7209 42.002 64.0273 42.6956 64.0273 43.5512Z" fill="black" stroke="white"/>
<path d="M70.3203 43.5512C70.3203 44.4068 71.0139 45.1004 71.8695 45.1004C72.7251 45.1004 73.4187 44.4068 73.4187 43.5512C73.4187 42.6956 72.7251 42.002 71.8695 42.002C71.0139 42.002 70.3203 42.6956 70.3203 43.5512Z" fill="black" stroke="white"/>
<path d="M32.5508 49.8461C32.5508 50.7017 33.2444 51.3953 34.1 51.3953C34.9556 51.3953 35.6492 50.7017 35.6492 49.8461C35.6492 48.9905 34.9556 48.2969 34.1 48.2969C33.2444 48.2969 32.5508 48.9905 32.5508 49.8461Z" fill="black" stroke="white"/>
<path d="M38.8438 49.8461C38.8438 50.7017 39.5374 51.3953 40.393 51.3953C41.2486 51.3953 41.9422 50.7017 41.9422 49.8461C41.9422 48.9905 41.2486 48.2969 40.393 48.2969C39.5374 48.2969 38.8438 48.9905 38.8438 49.8461Z" fill="black" stroke="white"/>
<path d="M45.1406 49.8461C45.1406 50.7017 45.8342 51.3953 46.6898 51.3953C47.5454 51.3953 48.239 50.7017 48.239 49.8461C48.239 48.9905 47.5454 48.2969 46.6898 48.2969C45.8342 48.2969 45.1406 48.9905 45.1406 49.8461Z" fill="black" stroke="white"/>
<path d="M51.4336 49.8461C51.4336 50.7017 52.1272 51.3953 52.9828 51.3953C53.8384 51.3953 54.532 50.7017 54.532 49.8461C54.532 48.9905 53.8384 48.2969 52.9828 48.2969C52.1272 48.2969 51.4336 48.9905 51.4336 49.8461Z" fill="black" stroke="white"/>
<path d="M57.7305 49.8461C57.7305 50.7017 58.4241 51.3953 59.2797 51.3953C60.1353 51.3953 60.8289 50.7017 60.8289 49.8461C60.8289 48.9905 60.1353 48.2969 59.2797 48.2969C58.4241 48.2969 57.7305 48.9905 57.7305 49.8461Z" fill="black" stroke="white"/>
<path d="M64.0273 49.8461C64.0273 50.7017 64.7209 51.3953 65.5766 51.3953C66.4322 51.3953 67.1258 50.7017 67.1258 49.8461C67.1258 48.9905 66.4322 48.2969 65.5766 48.2969C64.7209 48.2969 64.0273 48.9905 64.0273 49.8461Z" fill="black" stroke="white"/>
<path d="M70.3203 49.8461C70.3203 50.7017 71.0139 51.3953 71.8695 51.3953C72.7251 51.3953 73.4187 50.7017 73.4187 49.8461C73.4187 48.9905 72.7251 48.2969 71.8695 48.2969C71.0139 48.2969 70.3203 48.9905 70.3203 49.8461Z" fill="black" stroke="white"/>
<path d="M32.5508 56.142C32.5508 56.9976 33.2444 57.6912 34.1 57.6912C34.9556 57.6912 35.6492 56.9976 35.6492 56.142C35.6492 55.2864 34.9556 54.5928 34.1 54.5928C33.2444 54.5928 32.5508 55.2864 32.5508 56.142Z" fill="black" stroke="white"/>
<path d="M38.8438 56.142C38.8438 56.9976 39.5374 57.6912 40.393 57.6912C41.2486 57.6912 41.9422 56.9976 41.9422 56.142C41.9422 55.2864 41.2486 54.5928 40.393 54.5928C39.5374 54.5928 38.8438 55.2864 38.8438 56.142Z" fill="black" stroke="white"/>
<path d="M45.1406 56.142C45.1406 56.9976 45.8342 57.6912 46.6898 57.6912C47.5454 57.6912 48.239 56.9976 48.239 56.142C48.239 55.2864 47.5454 54.5928 46.6898 54.5928C45.8342 54.5928 45.1406 55.2864 45.1406 56.142Z" fill="black" stroke="white"/>
<path d="M51.4336 56.142C51.4336 56.9976 52.1272 57.6912 52.9828 57.6912C53.8384 57.6912 54.532 56.9976 54.532 56.142C54.532 55.2864 53.8384 54.5928 52.9828 54.5928C52.1272 54.5928 51.4336 55.2864 51.4336 56.142Z" fill="black" stroke="white"/>
<path d="M57.7305 56.142C57.7305 56.9976 58.4241 57.6912 59.2797 57.6912C60.1353 57.6912 60.8289 56.9976 60.8289 56.142C60.8289 55.2864 60.1353 54.5928 59.2797 54.5928C58.4241 54.5928 57.7305 55.2864 57.7305 56.142Z" fill="black" stroke="white"/>
<path d="M64.0273 56.142C64.0273 56.9976 64.7209 57.6912 65.5766 57.6912C66.4322 57.6912 67.1258 56.9976 67.1258 56.142C67.1258 55.2864 66.4322 54.5928 65.5766 54.5928C64.7209 54.5928 64.0273 55.2864 64.0273 56.142Z" fill="black" stroke="white"/>
<path d="M70.3203 56.142C70.3203 56.9976 71.0139 57.6912 71.8695 57.6912C72.7251 57.6912 73.4187 56.9976 73.4187 56.142C73.4187 55.2864 72.7251 54.5928 71.8695 54.5928C71.0139 54.5928 70.3203 55.2864 70.3203 56.142Z" fill="black" stroke="white"/>
<path d="M32.5508 62.4369C32.5508 63.2925 33.2444 63.9861 34.1 63.9861C34.9556 63.9861 35.6492 63.2925 35.6492 62.4369C35.6492 61.5813 34.9556 60.8877 34.1 60.8877C33.2444 60.8877 32.5508 61.5813 32.5508 62.4369Z" fill="black" stroke="white"/>
<path d="M38.8438 62.4369C38.8438 63.2925 39.5374 63.9861 40.393 63.9861C41.2486 63.9861 41.9422 63.2925 41.9422 62.4369C41.9422 61.5813 41.2486 60.8877 40.393 60.8877C39.5374 60.8877 38.8438 61.5813 38.8438 62.4369Z" fill="black" stroke="white"/>
<path d="M45.1406 62.4369C45.1406 63.2925 45.8342 63.9861 46.6898 63.9861C47.5454 63.9861 48.239 63.2925 48.239 62.4369C48.239 61.5813 47.5454 60.8877 46.6898 60.8877C45.8342 60.8877 45.1406 61.5813 45.1406 62.4369Z" fill="black" stroke="white"/>
<path d="M51.4336 62.4369C51.4336 63.2925 52.1272 63.9861 52.9828 63.9861C53.8384 63.9861 54.532 63.2925 54.532 62.4369C54.532 61.5813 53.8384 60.8877 52.9828 60.8877C52.1272 60.8877 51.4336 61.5813 51.4336 62.4369Z" fill="black" stroke="white"/>
<path d="M57.7305 62.4369C57.7305 63.2925 58.4241 63.9861 59.2797 63.9861C60.1353 63.9861 60.8289 63.2925 60.8289 62.4369C60.8289 61.5813 60.1353 60.8877 59.2797 60.8877C58.4241 60.8877 57.7305 61.5813 57.7305 62.4369Z" fill="black" stroke="white"/>
<path d="M64.0273 62.4369C64.0273 63.2925 64.7209 63.9861 65.5766 63.9861C66.4322 63.9861 67.1258 63.2925 67.1258 62.4369C67.1258 61.5813 66.4322 60.8877 65.5766 60.8877C64.7209 60.8877 64.0273 61.5813 64.0273 62.4369Z" fill="black" stroke="white"/>
<path d="M70.3203 62.4369C70.3203 63.2925 71.0139 63.9861 71.8695 63.9861C72.7251 63.9861 73.4187 63.2925 73.4187 62.4369C73.4187 61.5813 72.7251 60.8877 71.8695 60.8877C71.0139 60.8877 70.3203 61.5813 70.3203 62.4369Z" fill="black" stroke="white"/>
</svg>
