<svg width="98" height="104" viewBox="0 0 98 104" fill="none" xmlns="http://www.w3.org/2000/svg">
<path d="M31.0885 17.6675C43.2899 -3.46586 53.5161 7.42302 76.3179 20.5876C99.1196 33.7522 93.3871 39.8587 81.1858 60.9921C68.9845 82.1254 43.9044 96.791 21.1026 83.6265C-1.69913 70.4619 18.8872 38.8008 31.0885 17.6675Z" fill="white" fill-opacity="0.2"/>
<path fill-rule="evenodd" clip-rule="evenodd" d="M72.8004 15.3123H32.6351C32.1914 15.3123 31.8318 15.6719 31.8318 16.1156V77.9701C31.8318 78.4138 32.1914 78.7734 32.6351 78.7734H72.8004C73.2441 78.7734 73.6037 78.4138 73.6037 77.9701V16.1156C73.6037 15.6719 73.2441 15.3123 72.8004 15.3123ZM32.6351 12.9023C30.8605 12.9023 29.4219 14.341 29.4219 16.1156V77.9701C29.4219 79.7448 30.8605 81.1834 32.6351 81.1834H72.8004C74.575 81.1834 76.0136 79.7448 76.0136 77.9701V16.1156C76.0136 14.341 74.575 12.9023 72.8004 12.9023H32.6351Z" fill="white"/>
<path fill-rule="evenodd" clip-rule="evenodd" d="M53.1211 32.9846C55.5612 32.9846 57.5393 31.0065 57.5393 28.5664C57.5393 26.1263 55.5612 24.1482 53.1211 24.1482C50.681 24.1482 48.7029 26.1263 48.7029 28.5664C48.7029 31.0065 50.681 32.9846 53.1211 32.9846ZM53.1211 35.3945C56.8921 35.3945 59.9492 32.3374 59.9492 28.5664C59.9492 24.7953 56.8921 21.7383 53.1211 21.7383C49.35 21.7383 46.293 24.7953 46.293 28.5664C46.293 32.3374 49.35 35.3945 53.1211 35.3945Z" fill="white"/>
<path fill-rule="evenodd" clip-rule="evenodd" d="M53.1202 29.7724C53.7856 29.7724 54.3251 29.2329 54.3251 28.5674C54.3251 27.902 53.7856 27.3625 53.1202 27.3625C52.4547 27.3625 51.9152 27.902 51.9152 28.5674C51.9152 29.2329 52.4547 29.7724 53.1202 29.7724ZM53.1202 31.379C54.673 31.379 55.9317 30.1202 55.9317 28.5674C55.9317 27.0146 54.673 25.7559 53.1202 25.7559C51.5674 25.7559 50.3086 27.0146 50.3086 28.5674C50.3086 30.1202 51.5674 31.379 53.1202 31.379Z" fill="white"/>
<path fill-rule="evenodd" clip-rule="evenodd" d="M52.7185 71.5446C60.2606 71.5446 66.3747 65.4305 66.3747 57.8884C66.3747 50.3463 60.2606 44.2322 52.7185 44.2322C45.1764 44.2322 39.0623 50.3463 39.0623 57.8884C39.0623 65.4305 45.1764 71.5446 52.7185 71.5446ZM52.7185 73.9545C61.5915 73.9545 68.7846 66.7615 68.7846 57.8884C68.7846 49.0153 61.5915 41.8223 52.7185 41.8223C43.8454 41.8223 36.6523 49.0153 36.6523 57.8884C36.6523 66.7615 43.8454 73.9545 52.7185 73.9545Z" fill="white"/>
<path fill-rule="evenodd" clip-rule="evenodd" d="M52.717 62.0925C55.0397 62.0925 56.9226 60.2096 56.9226 57.8869C56.9226 55.5643 55.0397 53.6814 52.717 53.6814C50.3944 53.6814 48.5115 55.5643 48.5115 57.8869C48.5115 60.2096 50.3944 62.0925 52.717 62.0925ZM52.717 64.5024C56.3706 64.5024 59.3325 61.5406 59.3325 57.8869C59.3325 54.2333 56.3706 51.2715 52.717 51.2715C49.0634 51.2715 46.1016 54.2333 46.1016 57.8869C46.1016 61.5406 49.0634 64.5024 52.717 64.5024Z" fill="white"/>
<path d="M33.4375 81.1836H35.8474V83.1919C35.8474 83.8573 35.3079 84.3968 34.6425 84.3968C33.977 84.3968 33.4375 83.8573 33.4375 83.1919V81.1836Z" fill="white"/>
<path d="M69.5859 81.1836H71.9959V83.1919C71.9959 83.8573 71.4564 84.3968 70.7909 84.3968C70.1254 84.3968 69.5859 83.8573 69.5859 83.1919V81.1836Z" fill="white"/>
</svg>
