<svg width="98" height="104" viewBox="0 0 98 104" fill="none" xmlns="http://www.w3.org/2000/svg">
<path opacity="0.2" d="M31.0885 17.6675C43.2899 -3.46586 53.5161 7.42302 76.3179 20.5876C99.1196 33.7522 93.3871 39.8587 81.1858 60.9921C68.9845 82.1254 43.9044 96.791 21.1026 83.6265C-1.69913 70.4619 18.8872 38.8008 31.0885 17.6675Z" fill="#F82462"/>
<rect x="31.0312" y="14.5088" width="43.3785" height="65.0678" fill="white"/>
<rect x="30.9219" y="14.4023" width="43.5918" height="65.281" rx="2.5" stroke="#252525" stroke-width="3"/>
<circle cx="53.1211" cy="28.5664" r="5.3281" stroke="#252525" stroke-width="3"/>
<circle cx="53.1202" cy="28.5665" r="1.81157" stroke="#252525" stroke-width="2"/>
<circle cx="52.7185" cy="57.8874" r="14.5661" stroke="#252525" stroke-width="3"/>
<circle cx="52.717" cy="57.8869" r="5.11546" stroke="#252525" stroke-width="3"/>
<path d="M33.4375 81.1836H35.8474V83.1919C35.8474 83.8573 35.3079 84.3968 34.6425 84.3968C33.977 84.3968 33.4375 83.8573 33.4375 83.1919V81.1836Z" fill="#252525"/>
<path d="M69.5859 81.1836H71.9959V83.1919C71.9959 83.8573 71.4564 84.3968 70.7909 84.3968C70.1254 84.3968 69.5859 83.8573 69.5859 83.1919V81.1836Z" fill="#252525"/>
<path d="M33.3318 77.2734V16.8123H72.1037V77.2734H33.3318ZM32.6351 11.4023C30.0321 11.4023 27.9219 13.5125 27.9219 16.1156V77.9701C27.9219 80.5732 30.0321 82.6834 32.6351 82.6834H72.8004C75.4035 82.6834 77.5136 80.5732 77.5136 77.9701V16.1156C77.5136 13.5125 75.4034 11.4023 72.8004 11.4023H32.6351Z" fill="#252525" stroke="white" stroke-width="3"/>
<path d="M56.0393 28.5664C56.0393 30.1781 54.7327 31.4846 53.1211 31.4846C51.5094 31.4846 50.2029 30.1781 50.2029 28.5664C50.2029 26.9547 51.5094 25.6482 53.1211 25.6482C54.7327 25.6482 56.0393 26.9547 56.0393 28.5664ZM53.1211 36.8945C57.7206 36.8945 61.4492 33.1659 61.4492 28.5664C61.4492 23.9669 57.7206 20.2383 53.1211 20.2383C48.5216 20.2383 44.793 23.9669 44.793 28.5664C44.793 33.1659 48.5216 36.8945 53.1211 36.8945Z" fill="#252525" stroke="white" stroke-width="3"/>
<path d="M53.3251 28.5665C53.3251 28.6797 53.2334 28.7714 53.1202 28.7714C53.007 28.7714 52.9152 28.6797 52.9152 28.5665C52.9152 28.4533 53.007 28.3615 53.1202 28.3615C53.2334 28.3615 53.3251 28.4533 53.3251 28.5665ZM53.1202 32.378C55.2252 32.378 56.9317 30.6715 56.9317 28.5665C56.9317 26.4614 55.2252 24.7549 53.1202 24.7549C51.0151 24.7549 49.3086 26.4614 49.3086 28.5665C49.3086 30.6715 51.0151 32.378 53.1202 32.378Z" fill="#252525" stroke="white" stroke-width="2"/>
<path d="M64.8747 57.8874C64.8747 64.6011 59.4322 70.0436 52.7185 70.0436C46.0048 70.0436 40.5623 64.6011 40.5623 57.8874C40.5623 51.1737 46.0048 45.7312 52.7185 45.7312C59.4322 45.7312 64.8747 51.1737 64.8747 57.8874ZM52.7185 75.4535C62.42 75.4535 70.2846 67.5889 70.2846 57.8874C70.2846 48.1859 62.42 40.3213 52.7185 40.3213C43.017 40.3213 35.1523 48.1859 35.1523 57.8874C35.1523 67.5889 43.017 75.4535 52.7185 75.4535Z" fill="#252525" stroke="white" stroke-width="3"/>
<path d="M55.4226 57.8869C55.4226 59.3812 54.2113 60.5925 52.717 60.5925C51.2228 60.5925 50.0115 59.3812 50.0115 57.8869C50.0115 56.3927 51.2228 55.1814 52.717 55.1814C54.2113 55.1814 55.4226 56.3927 55.4226 57.8869ZM52.717 66.0024C57.1991 66.0024 60.8325 62.369 60.8325 57.8869C60.8325 53.4049 57.1991 49.7715 52.717 49.7715C48.235 49.7715 44.6016 53.4049 44.6016 57.8869C44.6016 62.369 48.235 66.0024 52.717 66.0024Z" fill="#252525" stroke="white" stroke-width="3"/>
<path d="M33.4375 81.1836H35.8474V83.1919C35.8474 83.8573 35.3079 84.3968 34.6425 84.3968C33.977 84.3968 33.4375 83.8573 33.4375 83.1919V81.1836Z" fill="#252525"/>
<path d="M33.4375 81.1836H35.8474V83.1919C35.8474 83.8573 35.3079 84.3968 34.6425 84.3968C33.977 84.3968 33.4375 83.8573 33.4375 83.1919V81.1836Z" stroke="white"/>
<path d="M69.5859 81.1836H71.9959V83.1919C71.9959 83.8573 71.4564 84.3968 70.7909 84.3968C70.1254 84.3968 69.5859 83.8573 69.5859 83.1919V81.1836Z" fill="#252525"/>
<path d="M69.5859 81.1836H71.9959V83.1919C71.9959 83.8573 71.4564 84.3968 70.7909 84.3968C70.1254 84.3968 69.5859 83.8573 69.5859 83.1919V81.1836Z" stroke="white"/>
</svg>
