<svg width="120" height="120" viewBox="0 0 120 120" fill="none" xmlns="http://www.w3.org/2000/svg">
<path d="M75.2257 101.962C53.7454 123.442 44.9572 107.054 21.7811 83.8778C-1.39507 60.7017 7.46536 55.2059 28.9457 33.7256C50.426 12.2452 65.3085 2.6913 88.4846 25.8675C111.661 49.0436 96.706 80.4813 75.2257 101.962Z" fill="white" fill-opacity="0.2"/>
<path d="M88.7148 34.661C88.3478 33.5092 87.557 32.5709 86.4884 32.0187L78.0135 27.6402C76.0928 26.6478 73.7827 27.1734 72.4588 28.7768L59.2215 21.9381H60.5295C61.2268 21.9381 61.7919 21.373 61.7919 20.6757V13.5573C61.7919 12.86 61.2268 12.2949 60.5295 12.2949H43.1935C42.4963 12.2949 41.9311 12.86 41.9311 13.5573V20.6757C41.9311 21.373 42.4963 21.9381 43.1935 21.9381H48.183V29.1088H43.1935C42.4963 29.1088 41.9311 29.6739 41.9311 30.3712V34.1134C41.9311 34.8106 42.4963 35.3757 43.1935 35.3757C43.8908 35.3757 44.4559 34.8106 44.4559 34.1134V31.6336H49.4453H54.3086H59.2672V48.6231H54.7612H48.9928H44.4561V43.6012C44.4561 42.9039 43.891 42.3388 43.1937 42.3388C42.4964 42.3388 41.9313 42.9039 41.9313 43.6012V49.6906L21.8173 95.5252C21.646 95.9155 21.6834 96.3659 21.9165 96.7228C22.1495 97.0796 22.5472 97.2949 22.9733 97.2949H28.7417C29.2427 97.2949 29.6964 96.9986 29.8977 96.5399L47.7301 55.9037V96.0325C47.7301 96.7298 48.2952 97.2949 48.9924 97.2949H54.7608C55.4581 97.2949 56.0232 96.7298 56.0232 96.0325V55.9037L73.8556 96.5399C74.057 96.9987 74.5107 97.2949 75.0116 97.2949H80.78C81.2061 97.2949 81.6039 97.0798 81.8368 96.723C82.0697 96.3662 82.1071 95.9158 81.9359 95.5254L61.7918 49.6205V30.3712C61.7918 29.6739 61.2266 29.1088 60.5294 29.1088H55.5708V22.8939L71.2998 31.0198C70.7584 33.0273 71.6665 35.2155 73.5872 36.2076L82.0624 40.5861C82.7094 40.9203 83.4128 41.0897 84.1232 41.0897C84.5857 41.0897 85.0512 41.0176 85.5058 40.8729C86.6576 40.5058 87.5959 39.7151 88.1481 38.6464L88.4281 38.1042C88.9801 37.0357 89.0822 35.813 88.7148 34.661ZM27.9169 94.7702H24.9057L44.0485 51.1479H47.0597L27.9169 94.7702ZM53.4986 94.7702H50.255V51.1479H53.4986V94.7702ZM78.8477 94.7702H75.8365L56.6936 51.1479H59.7049L78.8477 94.7702ZM53.0462 29.1088H50.7076V21.9381H53.0462V29.1088ZM54.3084 19.4133H49.4452H44.4556V14.8197H44.4557H59.267V19.4133H54.3084ZM86.1851 36.9456L85.905 37.4878C85.6625 37.9573 85.2484 38.3051 84.7389 38.4676C84.2299 38.6298 83.6907 38.5858 83.2212 38.3433L74.746 33.9648C73.7703 33.4608 73.3866 32.2566 73.8906 31.281L74.1707 30.7388C74.4133 30.2693 74.8273 29.9215 75.3368 29.7589C75.5385 29.6947 75.745 29.6628 75.9497 29.6628C76.2622 29.6628 76.571 29.7369 76.8547 29.8834L85.3298 34.2619C85.7993 34.5045 86.1471 34.9185 86.3096 35.428C86.4718 35.937 86.4275 36.4761 86.1851 36.9456Z" fill="white"/>
</svg>
