<svg width="120" height="120" viewBox="0 0 120 120" fill="none" xmlns="http://www.w3.org/2000/svg">
<path opacity="0.2" d="M75.2257 101.962C53.7454 123.442 44.9572 107.054 21.7811 83.8778C-1.39507 60.7017 7.46536 55.2059 28.9457 33.7256C50.426 12.2452 65.3085 2.6913 88.4846 25.8675C111.661 49.0436 96.706 80.4813 75.2257 101.962Z" fill="#F82462"/>
<path d="M84.1346 36.5732L84.0908 36.4358L83.7398 36.2544C83.7188 36.2807 83.6999 36.3095 83.6839 36.3403M84.1346 36.5732L83.7307 36.2497L83.6839 36.3403M84.1346 36.5732L83.6839 36.3403M84.1346 36.5732L83.6839 36.3403M83.6839 36.3403L83.6838 36.3405L84.1347 36.5733L83.6839 36.3403ZM72.1048 25.78L64.1579 21.6745C64.2453 21.3564 64.2919 21.0215 64.2919 20.6757V13.5573C64.2919 11.4793 62.6075 9.79492 60.5295 9.79492H43.1935C41.1155 9.79492 39.4311 11.4793 39.4311 13.5573V20.6757C39.4311 22.7537 41.1155 24.4381 43.1935 24.4381H45.683V26.6088H43.1935C41.1155 26.6088 39.4311 28.2932 39.4311 30.3712V34.1134C39.4311 36.1913 41.1155 37.8757 43.1935 37.8757C45.2647 37.8757 46.945 36.2023 46.9558 34.1336H49.4453H54.3086H56.7672V46.1231H54.7612H48.9928H46.9561V43.6012C46.9561 41.5232 45.2717 39.8388 43.1937 39.8388C41.1157 39.8388 39.4313 41.5232 39.4313 43.6012V49.1662L19.5282 94.5203C19.0173 95.6843 19.129 97.0266 19.8232 98.0897L19.8235 98.0902C20.518 99.1531 21.7024 99.7949 22.9733 99.7949H28.7417C30.2346 99.7949 31.587 98.912 32.1871 97.5441L45.2301 67.822V96.0325C45.2301 98.1105 46.9145 99.7949 48.9924 99.7949H54.7608C56.8388 99.7949 58.5232 98.1105 58.5232 96.0325V67.822L71.5663 97.5445L73.8556 96.5399L71.5664 97.5445C72.1666 98.9124 73.5189 99.7949 75.0116 99.7949H80.78C82.0496 99.7949 83.2352 99.1542 83.9302 98.0897L82.6749 97.2702L83.9302 98.0897C84.6243 97.0265 84.7354 95.6847 84.2256 94.5217L84.2252 94.5208L64.2918 49.0961V30.3712C64.2918 30.3177 64.2906 30.2645 64.2884 30.2115L68.651 32.4653C68.7479 34.9046 70.1138 37.2273 72.4397 38.4288C72.4397 38.4288 72.4398 38.4288 72.4398 38.4288L80.915 42.8072L80.9151 42.8073C81.9156 43.3241 83.0123 43.5897 84.1232 43.5897C84.8461 43.5897 85.5674 43.4769 86.2644 43.255L86.2648 43.2548C88.045 42.6875 89.5109 41.4549 90.3691 39.794L90.3692 39.7937L90.6492 39.2517C91.5072 37.591 91.6645 35.6821 91.0966 33.9014C90.5293 32.1215 89.2967 30.6558 87.636 29.7977L87.6359 29.7977L79.1611 25.4192C79.1611 25.4192 79.161 25.4192 79.161 25.4192C76.8351 24.2174 74.1503 24.4473 72.1048 25.78ZM88.1481 38.6464L88.4281 38.1042C88.9801 37.0357 89.0822 35.813 88.7148 34.661L88.1481 38.6464ZM84.2789 36.0758L84.4151 36.0324L84.1354 36.5737L85.905 37.4878L84.1355 36.5736L84.1354 36.5735L84.0916 36.4362L84.1823 36.483C84.1473 36.465 84.1151 36.4431 84.086 36.4185L84.0046 36.1633L84.2618 36.0813C84.2982 36.0908 84.3341 36.1043 84.3687 36.1222L84.2789 36.0758ZM75.7071 32.1045L75.7072 32.1045L75.7071 32.1045ZM76.1118 32.4284L76.1118 32.4283L76.1118 32.4284Z" fill="#252525" stroke="white" stroke-width="5"/>
</svg>
