<svg width="82" height="95" viewBox="0 0 82 95" fill="none" xmlns="http://www.w3.org/2000/svg">
<path d="M33.3124 87.1141C14.4373 81.9769 9.19153 72.6658 4.4254 40.2382C-0.340741 7.81052 8.7471 8.87954 34.907 5.03463C61.0669 1.18971 71.7032 19.0829 76.4693 51.5106C81.2355 83.9382 54.1063 92.7735 33.3124 87.1141Z" fill="white" fill-opacity="0.2"/>
<path d="M65.6033 69.4125C68.4067 65.2067 69.8887 60.3133 69.8887 55.2581C69.8887 50.2028 68.4067 45.3094 65.6033 41.1037L64.4155 39.3226H63.7597V35.6452C63.7597 34.9682 63.2109 34.4194 62.5339 34.4194V8.67742C62.5339 6.64994 60.884 5 58.8565 5C56.829 5 55.1791 6.64994 55.1791 8.67742V34.4194C54.5021 34.4194 53.9532 34.9682 53.9532 35.6452V39.3226H53.2974L52.1096 41.1037C49.3062 45.3094 47.8242 50.2028 47.8242 55.2581C47.8242 60.3133 49.3062 65.2067 52.1096 69.4125L52.1771 69.513C51.7615 69.953 51.5016 70.5414 51.5016 71.1936V73.6452C51.5016 74.9972 52.6012 76.0968 53.9532 76.0968V78C53.9532 79.6569 55.2964 81 56.9532 81H60.7597C62.4166 81 63.7597 79.6569 63.7597 78V76.0968C65.1118 76.0968 66.2113 74.9972 66.2113 73.6452V71.1936C66.2113 70.5414 65.9514 69.953 65.5359 69.513L65.6033 69.4125ZM57.6307 8.67742C57.6307 8.002 58.1811 7.45161 58.8565 7.45161C59.5319 7.45161 60.0823 8.002 60.0823 8.67742V34.4194H57.6307V8.67742ZM56.4049 36.871H61.3081V39.3226H56.4049V36.871ZM61.3081 77.5484C61.3081 78.1007 60.8604 78.5484 60.3081 78.5484H57.4049C56.8526 78.5484 56.4049 78.1007 56.4049 77.5484V76.0968H61.3081V77.5484ZM53.9532 73.6452V71.1936H63.7597L63.7609 73.6452H53.9532ZM63.5636 68.053L63.1039 68.7419H62.8134C63.851 65.673 64.5399 62.416 64.8294 59.0017C64.8867 58.327 64.3673 57.7478 63.6912 57.7103C63.0154 57.6727 62.4391 58.1903 62.3813 58.8647C62.0827 62.3503 61.3478 65.6584 60.2232 68.7432H57.4885C56.3639 65.6584 55.63 62.3503 55.3307 58.8647C55.2728 58.1903 54.6963 57.6727 54.0205 57.7103C53.3443 57.7478 52.8249 58.3269 52.882 59.0017C53.1708 62.4161 53.8608 65.673 54.8983 68.7419H54.6078L54.1482 68.053C51.6156 64.2506 50.2758 59.8266 50.2758 55.2581C50.2758 50.6895 51.6156 46.2655 54.1494 42.4631L54.6091 41.7742H54.8996C53.862 44.8431 53.173 48.1001 52.8835 51.5144C52.8263 52.1892 53.3456 52.7683 54.0218 52.8059C54.6975 52.8434 55.2738 52.3258 55.3316 51.6515C55.6302 48.1659 56.3652 44.8577 57.4897 41.773H60.2245C61.349 44.8577 62.083 48.1659 62.3823 51.6515C62.4402 52.3259 63.0166 52.8434 63.6924 52.8059C64.3686 52.7683 64.8881 52.1892 64.831 51.5144C64.5421 48.1001 63.8522 44.8431 62.8146 41.7742H63.1051L63.5648 42.4631C66.0973 46.2655 67.4371 50.6895 67.4371 55.2581C67.4371 59.8266 66.0973 64.2506 63.5636 68.053Z" fill="white"/>
<path d="M36.7909 36.871V33.1935C36.7909 32.5166 36.2421 31.9677 35.5651 31.9677V28.2903C35.5651 27.6133 35.0163 27.0645 34.3393 27.0645V23.5183L38.3072 5H18.1133L22.0812 23.5183V27.0645C21.4042 27.0645 20.8554 27.6133 20.8554 28.2903V31.9677C20.1784 31.9677 19.6296 32.5166 19.6296 33.1936V66.2903C19.6296 67.6443 20.7272 68.7419 22.0812 68.7419V73.6452C22.0812 74.9992 23.1788 76.0968 24.5328 76.0968V77.3226C24.5328 79.3536 26.1793 81 28.2102 81C30.2412 81 31.8877 79.3536 31.8877 77.3226V76.0968C33.2417 76.0968 34.3393 74.9992 34.3393 73.6452V68.7419C35.6933 68.7419 36.7909 67.6443 36.7909 66.2903V46.6774C39.4989 46.6774 41.6941 44.4822 41.6941 41.7742C41.6941 39.0662 39.4989 36.871 36.7909 36.871ZM32.9492 7.45161H35.2733L32.1218 22.1613H30.8482L32.9492 7.45161ZM33.1135 29.5161V31.9677H23.307V29.5161H33.1135ZM24.5328 27.0645V24.6129H31.8877V27.0645H24.5328ZM30.4743 7.45161L28.3733 22.1613H28.0472L25.9462 7.45161H30.4743ZM21.1459 7.45161H23.4701L25.5711 22.1613H24.2975L21.1459 7.45161ZM29.4361 77.3226C29.4361 77.9996 28.8872 78.5484 28.2102 78.5484C27.5333 78.5484 26.9844 77.9996 26.9844 77.3226V76.0968H29.4361V77.3226ZM31.8877 73.6452H24.5328V68.7419H31.8877V73.6452ZM34.3393 66.2903H22.0812V34.4194H34.3393V66.2903ZM39.2425 41.7742C39.2425 43.1282 38.1449 44.2258 36.7909 44.2258V39.3226C38.1449 39.3226 39.2425 40.4202 39.2425 41.7742Z" fill="white"/>
<path d="M24.5312 36.8711V46.6775H26.9829V63.8388H29.4345V46.6775H31.8861V36.8711H24.5312ZM29.4345 44.2259H26.9829V39.3227H29.4345V44.2259Z" fill="white"/>
</svg>
