<svg width="82" height="95" viewBox="0 0 82 95" fill="none" xmlns="http://www.w3.org/2000/svg">
<path opacity="0.2" d="M33.3124 87.1141C14.4373 81.9769 9.19153 72.6658 4.4254 40.2382C-0.340741 7.81052 8.7471 8.87954 34.907 5.03463C61.0669 1.18971 71.7032 19.0829 76.4693 51.5106C81.2355 83.9382 54.1063 92.7735 33.3124 87.1141Z" fill="#F82462"/>
<path d="M60.5 7.5L58 6.5H57.5L55.5 8.5L55 34.5L54 36V39.5L51.5 43.5L49.5 49.5L49 57.5L50 63.5L53 70L51.5 71V74.5L54 75.5V77L55.5 79.5L61.5 79V75.5L64 74.5V71L62.5 70L66 64.5L68 57.5L67 49.5L65 43.5L61.5 40V36L60.5 34.5V7.5Z" fill="white"/>
<path d="M37 6H19.5L23.5 23.5L22.5 27.5L22 33.5H21V67.5H23.5V74.5H25.5V79.5H31V75.5L33 74.5L34 67.5L35 67L36 45.5H38C39.6569 45.5 41 44.1569 41 42.5V41C41 39.3431 39.6569 38 38 38H36L35 32L33.5 27L33 23.5L37 6Z" fill="white"/>
<path d="M66.8514 40.2717L66.8513 40.2714L65.6634 38.4903L65.2597 37.8849V35.6452C65.2597 34.6939 64.7724 33.8565 64.0339 33.3688V8.67742C64.0339 5.82151 61.7124 3.5 58.8565 3.5C56.0006 3.5 53.6791 5.82151 53.6791 8.67742V33.3688C52.9405 33.8565 52.4532 34.6939 52.4532 35.6452V37.8849L52.0495 38.4903L50.8617 40.2714L50.8615 40.2717C47.8939 44.7238 46.3242 49.9066 46.3242 55.2581C46.3242 60.3154 47.7261 65.2222 50.3849 69.5039C50.1414 70.0128 50.0016 70.5848 50.0016 71.1936V73.6452C50.0016 75.2949 51.0154 76.7102 52.4532 77.3016V78C52.4532 80.4853 54.468 82.5 56.9532 82.5H60.7597C63.245 82.5 65.2597 80.4853 65.2597 78V77.3016C66.6975 76.7102 67.7113 75.2949 67.7113 73.6452V71.1936C67.7113 70.5848 67.5715 70.0128 67.328 69.5039C69.9868 65.2222 71.3887 60.3154 71.3887 55.2581C71.3887 49.9066 69.819 44.7238 66.8514 40.2717ZM60.8868 58.7366C60.6309 61.7235 60.043 64.5688 59.157 67.2432H58.5548C57.669 64.569 57.0817 61.7236 56.8252 58.7363C56.7004 57.283 55.4513 56.1284 53.9373 56.2126C53.0906 56.2596 52.3417 56.6946 51.876 57.3444C51.8094 56.6539 51.7758 55.9578 51.7758 55.2581C51.7758 54.5577 51.8095 53.8611 51.8762 53.17C52.3417 53.8208 53.0911 54.2565 53.9385 54.3036C55.4527 54.3877 56.7016 53.2328 56.8261 51.7795C57.082 48.7926 57.67 45.9473 58.556 43.273H59.1582C60.0439 45.9471 60.6312 48.7925 60.8878 51.7798C61.0125 53.2332 62.2616 54.3877 63.7757 54.3036C64.6223 54.2565 65.3713 53.8216 65.8369 53.1718C65.9035 53.8622 65.9371 54.5583 65.9371 55.2581C65.9371 55.9584 65.9035 56.6551 65.8368 57.3461C65.3713 56.6954 64.6218 56.2597 63.7744 56.2126C62.2603 56.1284 61.0113 57.2833 60.8868 58.7366Z" fill="#252525" stroke="white" stroke-width="3"/>
<path d="M16.6466 5.31427L20.5812 23.6772V26.014C19.8427 26.5016 19.3554 27.3391 19.3554 28.2903V30.9172C18.6169 31.4049 18.1296 32.2423 18.1296 33.1936V66.2903C18.1296 67.9418 19.1427 69.3566 20.5812 69.9473V73.6452C20.5812 75.2966 21.5943 76.7114 23.0328 77.3021V77.3226C23.0328 80.182 25.3508 82.5 28.2102 82.5C31.0697 82.5 33.3877 80.182 33.3877 77.3226V77.3021C34.8262 76.7114 35.8393 75.2966 35.8393 73.6452V69.9473C37.2778 69.3566 38.2909 67.9418 38.2909 66.2903V48.0008C41.1037 47.3256 43.1941 44.794 43.1941 41.7742C43.1941 38.7544 41.1037 36.2228 38.2909 35.5476V33.1935C38.2909 32.2423 37.8036 31.4049 37.0651 30.9172V28.2903C37.0651 27.3391 36.5778 26.5016 35.8393 26.014V23.6772L39.7739 5.31427L40.1627 3.5H38.3072H18.1133H16.2578L16.6466 5.31427ZM28.7448 8.95161L28.2102 12.6944L27.6757 8.95161H28.7448ZM30.3877 72.1452H26.0328V70.2419H30.3877V72.1452ZM32.8393 64.7903H23.5812V35.9194H32.8393V64.7903Z" fill="#252525" stroke="white" stroke-width="3"/>
<path d="M24.5312 35.3711H23.0312V36.8711V46.6775V48.1775H24.5312H25.4829V63.8388V65.3388H26.9829H29.4345H30.9345V63.8388V48.1775H31.8861H33.3861V46.6775V36.8711V35.3711H31.8861H24.5312Z" fill="#252525" stroke="white" stroke-width="3"/>
</svg>
