<svg width="114" height="113" viewBox="0 0 114 113" fill="none" xmlns="http://www.w3.org/2000/svg">
<path d="M21.1289 78.2184C9.5169 62.4761 11.1823 51.9195 27.5703 23.5346C43.9584 -4.85025 60.4208 11.6281 83.3193 24.8485C106.218 38.069 103.453 58.7004 87.065 87.0853C70.677 115.47 33.9214 95.5611 21.1289 78.2184Z" fill="white" fill-opacity="0.2"/>
<path d="M21.7656 24.7188V31.1058H22.8301V78.7579L21.7656 80.8869V90.7188H30.2818V80.8869L29.2172 78.7579V31.1058H84.5721V56.6542H86.7011V31.1058H87.7656V24.7188H21.7656ZM28.1527 88.5897H23.8947V81.3893L24.5525 80.0736H27.4949L28.1527 81.3893V88.5897ZM24.9592 77.9446V31.1058H27.0882V77.9446H24.9592ZM85.6366 28.9768H23.8947V26.8478H85.6366V28.9768Z" fill="white"/>
<path d="M82.4415 33.2344H80.3125V56.6537H82.4415V33.2344Z" fill="white"/>
<path d="M84.5707 63.0413V60.9122C84.5707 59.7381 83.6158 58.7832 82.4417 58.7832H69.6675C68.4933 58.7832 67.5384 59.7381 67.5384 60.9122V63.0413H57.9578V60.9122C57.9578 59.7381 57.0029 58.7832 55.8288 58.7832H51.5707C50.3965 58.7832 49.4417 59.7381 49.4417 60.9122V63.0413H48.3771C46.6164 63.0413 45.1836 64.4741 45.1836 66.2348V87.5251C45.1836 89.2859 46.6164 90.7187 48.3771 90.7187H56.8933V88.5897H48.3771C47.7906 88.5897 47.3126 88.1128 47.3126 87.5251V73.6864H56.0566C55.2369 75.2853 54.7642 77.0918 54.7642 79.009C54.7642 85.4653 60.0176 90.7187 66.4739 90.7187C72.9302 90.7187 78.1836 85.4653 78.1836 79.009C78.1836 77.0918 77.7109 75.2853 76.8913 73.6864H85.6352V87.5251C85.6352 88.1128 85.1572 88.5897 84.5707 88.5897H76.0546V90.7187H84.5707C86.3314 90.7187 87.7642 89.2859 87.7642 87.5251V66.2348C87.7642 64.4741 86.3314 63.0413 84.5707 63.0413ZM51.5707 60.9122H55.8288V63.0413H51.5707V60.9122ZM47.3126 71.5574V66.2348C47.3126 65.6472 47.7906 65.1703 48.3771 65.1703H57.9578V70.9975C57.7843 71.1816 57.6097 71.3637 57.4479 71.5574H47.3126ZM66.4739 88.5897C61.1918 88.5897 56.8933 84.2922 56.8933 79.009C56.8933 73.7258 61.1918 69.4284 66.4739 69.4284C71.756 69.4284 76.0546 73.7258 76.0546 79.009C76.0546 84.2922 71.756 88.5897 66.4739 88.5897ZM77.1191 71.5574H75.4999C73.3496 68.9589 70.1018 67.2993 66.4739 67.2993C64.1171 67.2993 61.9252 68.0051 60.0868 69.2069V65.1703H77.1191V71.5574ZM81.3771 71.5574H79.2481V65.1703H81.3771V71.5574ZM82.4417 63.0413H69.6675V60.9122H82.4417V63.0413ZM85.6352 71.5574H83.5062V65.1703H84.5707C85.1572 65.1703 85.6352 65.6472 85.6352 66.2348V71.5574Z" fill="white"/>
<path d="M66.4748 75.8164C64.7141 75.8164 63.2812 77.2492 63.2812 79.01C63.2812 80.7707 64.7141 82.2035 66.4748 82.2035C68.2355 82.2035 69.6683 80.7707 69.6683 79.01C69.6683 77.2492 68.2355 75.8164 66.4748 75.8164ZM66.4748 80.0745C65.8882 80.0745 65.4103 79.5976 65.4103 79.01C65.4103 78.4223 65.8882 77.9454 66.4748 77.9454C67.0613 77.9454 67.5393 78.4223 67.5393 79.01C67.5393 79.5976 67.0613 80.0745 66.4748 80.0745Z" fill="white"/>
<path d="M66.4751 71.5566C62.366 71.5566 59.0234 74.9003 59.0234 79.0083C59.0234 83.1162 62.366 86.4599 66.4751 86.4599C70.5841 86.4599 73.9267 83.1162 73.9267 79.0083C73.9267 74.9003 70.5841 71.5566 66.4751 71.5566ZM66.4751 84.3308C63.5402 84.3308 61.1525 81.9431 61.1525 79.0083C61.1525 76.0734 63.5402 73.6857 66.4751 73.6857C69.4099 73.6857 71.7976 76.0734 71.7976 79.0083C71.7976 81.9431 69.4099 84.3308 66.4751 84.3308Z" fill="white"/>
<path d="M51.5704 67.2988H49.4414V69.4279H51.5704V67.2988Z" fill="white"/>
<path d="M55.8322 67.2988H53.7031V69.4279H55.8322V67.2988Z" fill="white"/>
<path d="M83.5081 84.332H79.25V86.4611H83.5081V84.332Z" fill="white"/>
<path d="M53.6995 84.332H49.4414V86.4611H53.6995V84.332Z" fill="white"/>
<path d="M53.6995 80.0742H49.4414V82.2033H53.6995V80.0742Z" fill="white"/>
<path d="M34.5392 33.2344H32.4102V88.5892H43.0553V86.4602H34.5392V33.2344Z" fill="white"/>
</svg>
