<svg width="114" height="113" viewBox="0 0 114 113" fill="none" xmlns="http://www.w3.org/2000/svg">
<path opacity="0.2" d="M21.1289 78.2174C9.5169 62.4751 11.1823 51.9185 27.5703 23.5336C43.9584 -4.85123 60.4208 11.6271 83.3193 24.8476C106.218 38.068 103.453 58.6994 87.065 87.0843C70.677 115.469 33.9214 95.5601 21.1289 78.2174Z" fill="#F82462"/>
<rect x="21.7695" y="24.7178" width="66" height="66" fill="white"/>
<path d="M21.7656 23.2178H20.2656V24.7178V31.1049V32.6049H21.3301V78.4028L20.424 80.2151L20.2656 80.5318V80.8859V90.7178V92.2178H21.7656H30.2818H31.7818V90.7178V80.8859V80.5318L31.6234 80.2151L30.7172 78.4028V32.6049H83.0721V56.6533V58.1533H84.5721H86.7011H88.2011V56.6533V32.6049H89.2656V31.1049V24.7178V23.2178H87.7656H21.7656ZM26.6527 87.0887H25.3947V81.7425L25.4796 81.5726H26.5678L26.6527 81.7425V87.0887Z" fill="#252525" stroke="white" stroke-width="3"/>
<path d="M82.4415 33.2344H80.3125V56.6537H82.4415V33.2344Z" fill="#252525"/>
<path d="M61.7685 66.6693C61.7077 66.6927 61.6472 66.7164 61.5868 66.7407V66.6693H61.7685ZM75.6191 69.4842C74.3574 68.2728 72.8551 67.3076 71.1916 66.6693H75.6191V69.4842ZM48.8126 75.1855H53.8353C53.4659 76.3943 53.2642 77.6772 53.2642 79.008C53.2642 82.0493 54.2969 84.8536 56.0301 87.0887H48.8126V75.1855ZM58.3933 90.7177V89.4518C60.6284 91.185 63.4326 92.2177 66.4739 92.2177C69.5152 92.2177 72.3195 91.185 74.5546 89.4518V90.7177V92.2177H76.0546H84.5707C87.1598 92.2177 89.2642 90.1133 89.2642 87.5242V66.2338C89.2642 64.1691 87.9259 62.4126 86.0707 61.7858V60.9113C86.0707 58.9087 84.4442 57.2822 82.4417 57.2822H69.6675C67.6649 57.2822 66.0384 58.9087 66.0384 60.9113V61.5403H59.4578V60.9113C59.4578 58.9087 57.8313 57.2822 55.8288 57.2822H51.5707C49.5681 57.2822 47.9417 58.9087 47.9417 60.9113V61.5603C45.5561 61.7805 43.6836 63.7915 43.6836 66.2338V87.5242C43.6836 90.1133 45.788 92.2177 48.3771 92.2177H56.8933H58.3933V90.7177ZM84.1352 87.0887H76.9177C78.6509 84.8536 79.6836 82.0493 79.6836 79.008C79.6836 77.6772 79.4819 76.3943 79.1125 75.1855H84.1352V87.0887ZM48.8126 70.0564V66.6693H56.4578V70.0564H48.8126ZM66.4739 87.0887C62.0201 87.0887 58.3933 83.4627 58.3933 79.008C58.3933 74.5534 62.0201 70.9274 66.4739 70.9274C70.9277 70.9274 74.5546 74.5534 74.5546 79.008C74.5546 83.4627 70.9277 87.0887 66.4739 87.0887Z" fill="#252525" stroke="white" stroke-width="3"/>
<path d="M66.4748 75.8145C64.7141 75.8145 63.2812 77.2473 63.2812 79.008C63.2812 80.7687 64.7141 82.2016 66.4748 82.2016C68.2355 82.2016 69.6683 80.7687 69.6683 79.008C69.6683 77.2473 68.2355 75.8145 66.4748 75.8145ZM66.4748 80.0725C65.8882 80.0725 65.4103 79.5956 65.4103 79.008C65.4103 78.4204 65.8882 77.9435 66.4748 77.9435C67.0613 77.9435 67.5393 78.4204 67.5393 79.008C67.5393 79.5956 67.0613 80.0725 66.4748 80.0725Z" fill="#252525"/>
<path d="M66.4748 75.8145C64.7141 75.8145 63.2812 77.2473 63.2812 79.008C63.2812 80.7687 64.7141 82.2016 66.4748 82.2016C68.2355 82.2016 69.6683 80.7687 69.6683 79.008C69.6683 77.2473 68.2355 75.8145 66.4748 75.8145ZM66.4748 80.0725C65.8882 80.0725 65.4103 79.5956 65.4103 79.008C65.4103 78.4204 65.8882 77.9435 66.4748 77.9435C67.0613 77.9435 67.5393 78.4204 67.5393 79.008C67.5393 79.5956 67.0613 80.0725 66.4748 80.0725Z" stroke="white"/>
<path d="M66.4751 71.5566C62.366 71.5566 59.0234 74.9003 59.0234 79.0083C59.0234 83.1162 62.366 86.4599 66.4751 86.4599C70.5841 86.4599 73.9267 83.1162 73.9267 79.0083C73.9267 74.9003 70.5841 71.5566 66.4751 71.5566ZM66.4751 84.3308C63.5402 84.3308 61.1525 81.9431 61.1525 79.0083C61.1525 76.0734 63.5402 73.6857 66.4751 73.6857C69.4099 73.6857 71.7976 76.0734 71.7976 79.0083C71.7976 81.9431 69.4099 84.3308 66.4751 84.3308Z" fill="#252525"/>
<path d="M66.4751 71.5566C62.366 71.5566 59.0234 74.9003 59.0234 79.0083C59.0234 83.1162 62.366 86.4599 66.4751 86.4599C70.5841 86.4599 73.9267 83.1162 73.9267 79.0083C73.9267 74.9003 70.5841 71.5566 66.4751 71.5566ZM66.4751 84.3308C63.5402 84.3308 61.1525 81.9431 61.1525 79.0083C61.1525 76.0734 63.5402 73.6857 66.4751 73.6857C69.4099 73.6857 71.7976 76.0734 71.7976 79.0083C71.7976 81.9431 69.4099 84.3308 66.4751 84.3308Z" stroke="white"/>
<path d="M51.5704 67.2988H49.4414V69.4279H51.5704V67.2988Z" fill="#252525"/>
<path d="M51.5704 67.2988H49.4414V69.4279H51.5704V67.2988Z" stroke="white"/>
<path d="M55.8322 67.2988H53.7031V69.4279H55.8322V67.2988Z" fill="#252525"/>
<path d="M55.8322 67.2988H53.7031V69.4279H55.8322V67.2988Z" stroke="white"/>
<path d="M83.5081 84.3311H79.25V86.4601H83.5081V84.3311Z" fill="#252525"/>
<path d="M83.5081 84.3311H79.25V86.4601H83.5081V84.3311Z" stroke="white"/>
<path d="M53.6995 84.3311H49.4414V86.4601H53.6995V84.3311Z" fill="#252525"/>
<path d="M53.6995 84.3311H49.4414V86.4601H53.6995V84.3311Z" stroke="white"/>
<path d="M53.6995 80.0723H49.4414V82.2013H53.6995V80.0723Z" fill="#252525"/>
<path d="M53.6995 80.0723H49.4414V82.2013H53.6995V80.0723Z" stroke="white"/>
<path d="M34.5392 33.2344H32.4102V88.5892H43.0553V86.4602H34.5392V33.2344Z" fill="#252525"/>
</svg>
