<svg width="108" height="110" viewBox="0 0 108 110" fill="none" xmlns="http://www.w3.org/2000/svg">
<path d="M25.6512 86.6796C3.43883 73.8554 14.8837 46.2205 28.7204 22.2546C42.5572 -1.71133 48.9755 4.31383 71.1878 17.1381C93.4001 29.9624 91.9282 64.7663 78.0914 88.7322C64.2547 112.698 47.8635 99.5039 25.6512 86.6796Z" fill="white" fill-opacity="0.2"/>
<path d="M45.9335 52.7563C45.3812 52.7563 44.9335 52.3086 44.9335 51.7563V51.0284C44.9335 50.4761 45.3812 50.0284 45.9335 50.0284H58.0548C58.6071 50.0284 59.0548 49.5806 59.0548 49.0284V25.5137C59.0548 24.9614 58.6071 24.5137 58.0548 24.5137H21.7025C21.1503 24.5137 20.7025 24.9614 20.7025 25.5137V49.0284C20.7025 49.5806 21.1503 50.0284 21.7025 50.0284H33.8239C34.3762 50.0284 34.8239 50.4761 34.8239 51.0284V51.7563C34.8239 52.3086 34.3762 52.7563 33.8239 52.7563H14C13.4477 52.7563 13 53.2041 13 53.7563V82.4863C13 83.0386 13.4477 83.4863 14 83.4863H14.407C14.9593 83.4863 15.407 83.0386 15.407 82.4863V56.1634C15.407 55.6111 15.8548 55.1634 16.407 55.1634H91.593C92.1452 55.1634 92.593 55.6111 92.593 56.1634V82.4863C92.593 83.0386 93.0407 83.4863 93.593 83.4863H94C94.5523 83.4863 95 83.0386 95 82.4863V53.7563C95 53.2041 94.5523 52.7563 94 52.7563H45.9335ZM28.696 26.9207C28.9612 26.9207 29.2155 27.0261 29.4031 27.2136L31.9007 29.7112C32.2912 30.1017 32.9244 30.1017 33.3149 29.7112L33.7838 29.2423C34.0743 28.9518 34.0743 28.4809 33.7838 28.1904C33.3152 27.7219 33.6471 26.9207 34.3097 26.9207H55.6477C56.2 26.9207 56.6478 27.3684 56.6478 27.9207V41.4863C56.6478 42.0386 56.2 42.4863 55.6478 42.4863H48.4938C48.2286 42.4863 47.9743 42.3809 47.7867 42.1934L37.5824 31.9891C37.1919 31.5985 36.5587 31.5985 36.1682 31.9891L35.8805 32.2768C35.49 32.6673 35.49 33.3005 35.8805 33.691L42.9686 40.7792C43.5986 41.4091 43.1524 42.4863 42.2615 42.4863H24.1096C23.5573 42.4863 23.1096 42.0386 23.1096 41.4863V27.9207C23.1096 27.3684 23.5573 26.9207 24.1096 26.9207H28.696ZM23.1096 45.8933C23.1096 45.341 23.5573 44.8933 24.1096 44.8933H55.6478C56.2 44.8933 56.6478 45.341 56.6478 45.8933V46.6213C56.6478 47.1736 56.2 47.6213 55.6478 47.6213H24.1096C23.5573 47.6213 23.1096 47.1736 23.1096 46.6213V45.8933ZM37.2309 51.0284C37.2309 50.4761 37.6786 50.0284 38.2309 50.0284H41.5264C42.0787 50.0284 42.5264 50.4761 42.5264 51.0284V51.7563C42.5264 52.3086 42.0787 52.7563 41.5264 52.7563H38.2309C37.6786 52.7563 37.2309 52.3086 37.2309 51.7563V51.0284Z" fill="white"/>
<path d="M59.2148 82.4856C59.2148 83.0378 59.6626 83.4856 60.2148 83.4856H60.6219C61.1742 83.4856 61.6219 83.0378 61.6219 82.4856V81.8378C61.6219 81.2855 62.0696 80.8378 62.6219 80.8378H86.4575C87.0098 80.8378 87.4575 81.2855 87.4575 81.8378V82.4856C87.4575 83.0378 87.9052 83.4856 88.4575 83.4856H88.8645C89.4168 83.4856 89.8645 83.0378 89.8645 82.4856V58.8906C89.8645 58.3383 89.4168 57.8906 88.8645 57.8906H60.2148C59.6626 57.8906 59.2148 58.3383 59.2148 58.8906V82.4856ZM62.6219 78.4308C62.0696 78.4308 61.6219 77.983 61.6219 77.4308V71.5677C61.6219 71.0155 62.0696 70.5677 62.6219 70.5677H86.4575C87.0098 70.5677 87.4575 71.0155 87.4575 71.5677V77.4308C87.4575 77.983 87.0098 78.4308 86.4575 78.4308H62.6219ZM86.4575 60.2977C87.0098 60.2977 87.4575 60.7454 87.4575 61.2977V67.1607C87.4575 67.713 87.0098 68.1607 86.4575 68.1607H62.6219C62.0696 68.1607 61.6219 67.713 61.6219 67.1607V61.2977C61.6219 60.7454 62.0696 60.2977 62.6219 60.2977H86.4575Z" fill="white"/>
<path d="M77.3914 73.2969H72.9727C72.4204 73.2969 71.9727 73.7446 71.9727 74.2969V74.7039C71.9727 75.2562 72.4204 75.7039 72.9727 75.7039H77.3914C77.9437 75.7039 78.3914 75.2562 78.3914 74.7039V74.2969C78.3914 73.7446 77.9437 73.2969 77.3914 73.2969Z" fill="white"/>
<path d="M77.3914 63.0273H72.9727C72.4204 63.0273 71.9727 63.4751 71.9727 64.0273V64.4344C71.9727 64.9867 72.4204 65.4344 72.9727 65.4344H77.3914C77.9437 65.4344 78.3914 64.9867 78.3914 64.4344V64.0273C78.3914 63.4751 77.9437 63.0273 77.3914 63.0273Z" fill="white"/>
<path d="M88.9453 45.5234H72.9727C72.4204 45.5234 71.9727 45.9712 71.9727 46.5234V46.9305C71.9727 47.4828 72.4204 47.9305 72.9727 47.9305H88.9453C89.4976 47.9305 89.9453 47.4828 89.9453 46.9305V46.5234C89.9453 45.9712 89.4976 45.5234 88.9453 45.5234Z" fill="white"/>
<path d="M88.9453 38.291H72.9727C72.4204 38.291 71.9727 38.7387 71.9727 39.291V39.6981C71.9727 40.2503 72.4204 40.6981 72.9727 40.6981H88.9453C89.4976 40.6981 89.9453 40.2503 89.9453 39.6981V39.291C89.9453 38.7387 89.4976 38.291 88.9453 38.291Z" fill="white"/>
<path d="M86.3777 31.0586H72.9727C72.4204 31.0586 71.9727 31.5063 71.9727 32.0586V32.4656C71.9727 33.0179 72.4204 33.4656 72.9727 33.4656H86.3777C86.93 33.4656 87.3777 33.0179 87.3777 32.4656V32.0586C87.3777 31.5063 86.93 31.0586 86.3777 31.0586Z" fill="white"/>
</svg>
