<svg width="108" height="110" viewBox="0 0 108 110" fill="none" xmlns="http://www.w3.org/2000/svg">
<path opacity="0.2" d="M25.6512 86.6796C3.43883 73.8554 14.8837 46.2205 28.7204 22.2546C42.5572 -1.71133 48.9755 4.31383 71.1878 17.1381C93.4001 29.9624 91.9282 64.7663 78.0914 88.7322C64.2547 112.698 47.8635 99.5039 25.6512 86.6796Z" fill="#F82462"/>
<g clip-path="url(#clip0)">
<rect x="23.9883" y="28.2168" width="30.433" height="12.6804" fill="white"/>
<rect x="62.875" y="62.0312" width="22.8247" height="4.2268" fill="white"/>
<rect x="62.875" y="72.1748" width="23.6701" height="5.07217" fill="white"/>
<path d="M59.19 51.2563C60.0001 50.8427 60.5548 50.0003 60.5548 49.0284V25.5137C60.5548 24.133 59.4355 23.0137 58.0548 23.0137H21.7025C20.3218 23.0137 19.2025 24.133 19.2025 25.5137V49.0284C19.2025 50.0003 19.7572 50.8427 20.5673 51.2563H14C12.6193 51.2563 11.5 52.3756 11.5 53.7563V82.4863C11.5 83.867 12.6193 84.9863 14 84.9863H14.407C15.7878 84.9863 16.907 83.867 16.907 82.4863V56.6634H91.093V82.4863C91.093 83.867 92.2122 84.9863 93.593 84.9863H94C95.3807 84.9863 96.5 83.867 96.5 82.4863V53.7563C96.5 52.3756 95.3807 51.2563 94 51.2563H59.19ZM35.1076 30.9284L36.134 31.9549L35.1075 30.9284L34.8198 31.2161C33.8435 32.1924 33.8435 33.7754 34.8198 34.7517L41.0544 40.9863H24.6096V28.4207H28.4889L30.84 30.7719C31.8163 31.7482 33.3992 31.7482 34.3756 30.7719L34.8445 30.303C35.358 29.7895 35.5705 29.089 35.4822 28.4207H55.1478V40.9863H48.701L38.6431 30.9284C37.6668 29.9521 36.0839 29.9521 35.1076 30.9284Z" fill="#252525" stroke="white" stroke-width="3"/>
<path d="M58.2148 82.4865C58.2148 83.5911 59.1103 84.4865 60.2148 84.4865H60.6219C61.7265 84.4865 62.6219 83.5911 62.6219 82.4865V81.8388H86.4575V82.4865C86.4575 83.5911 87.3529 84.4865 88.4575 84.4865H88.8645C89.9691 84.4865 90.8645 83.5911 90.8645 82.4865V58.8916C90.8645 57.787 89.9691 56.8916 88.8645 56.8916H60.2148C59.1103 56.8916 58.2148 57.787 58.2148 58.8916V82.4865ZM62.6219 77.4317L62.6219 71.5687H86.4575V77.4317H62.6219ZM86.4575 61.2986V67.1617H62.6219L62.6219 61.2986L86.4575 61.2986Z" fill="#252525" stroke="white" stroke-width="2"/>
<path d="M77.3914 72.2969H72.9727C71.8681 72.2969 70.9727 73.1923 70.9727 74.2969V74.7039C70.9727 75.8085 71.8681 76.7039 72.9727 76.7039H77.3914C78.496 76.7039 79.3914 75.8085 79.3914 74.7039V74.2969C79.3914 73.1923 78.496 72.2969 77.3914 72.2969Z" fill="#252525" stroke="white" stroke-width="2"/>
<path d="M77.3914 62.0264H72.9727C71.8681 62.0264 70.9727 62.9218 70.9727 64.0264V64.4334C70.9727 65.538 71.8681 66.4334 72.9727 66.4334H77.3914C78.496 66.4334 79.3914 65.538 79.3914 64.4334V64.0264C79.3914 62.9218 78.496 62.0264 77.3914 62.0264Z" fill="#252525" stroke="white" stroke-width="2"/>
<path d="M88.9453 44.0234H72.9727C71.5919 44.0234 70.4727 45.1427 70.4727 46.5234V46.9305C70.4727 48.3112 71.5919 49.4305 72.9727 49.4305H88.9453C90.326 49.4305 91.4453 48.3112 91.4453 46.9305V46.5234C91.4453 45.1427 90.326 44.0234 88.9453 44.0234Z" fill="#252525" stroke="white" stroke-width="3"/>
<path d="M88.9453 36.791H72.9727C71.5919 36.791 70.4727 37.9103 70.4727 39.291V39.6981C70.4727 41.0788 71.5919 42.1981 72.9727 42.1981H88.9453C90.326 42.1981 91.4453 41.0788 91.4453 39.6981V39.291C91.4453 37.9103 90.326 36.791 88.9453 36.791Z" fill="#252525" stroke="white" stroke-width="3"/>
<path d="M86.3777 29.5586H72.9727C71.5919 29.5586 70.4727 30.6779 70.4727 32.0586V32.4656C70.4727 33.8463 71.5919 34.9656 72.9727 34.9656H86.3777C87.7584 34.9656 88.8777 33.8464 88.8777 32.4656V32.0586C88.8777 30.6779 87.7584 29.5586 86.3777 29.5586Z" fill="#252525" stroke="white" stroke-width="3"/>
</g>
<defs>
<clipPath id="clip0">
<rect width="82" height="82" fill="white" transform="translate(13 13)"/>
</clipPath>
</defs>
</svg>
