<svg width="92" height="102" viewBox="0 0 92 102" fill="none" xmlns="http://www.w3.org/2000/svg">
<path opacity="0.2" d="M75.3095 64.9091C66.3142 85.2069 42.2356 94.2222 20.3355 84.5168C-1.5647 74.8114 3.03096 68.733 12.0262 48.4353C21.0215 28.1375 50.3534 9.87913 72.2535 19.5846C94.1537 29.29 84.3047 44.6114 75.3095 64.9091Z" fill="#F82462"/>
<path d="M57.3008 79.6445H34.3008L32.3008 73.1445L28.8008 70.1445L24.8008 63.6445L21.8008 58.6445L17.8008 49.6445L14.3008 45.1445L11.3008 40.1445L12.3008 38.1445L15.3008 36.6445L17.8008 38.1445L20.8008 40.1445L24.8008 45.1445L27.8008 48.6445L30.3008 50.6445L32.3008 48.1445L33.3008 42.1445V26.6445V14.6445V11.6445L35.8008 9.64453H37.8008L41.3008 12.6445V28.6445L41.8008 26.6445L44.8008 25.1445L47.8008 26.6445L48.8008 31.1445L51.3008 29.1445H53.8008L56.3008 31.1445V40.1445L57.8008 36.6445L60.8008 35.6445L62.8008 37.1445L64.3008 40.1445V62.6445L59.3008 72.1445V77.6445L57.3008 79.6445Z" fill="white"/>
<path d="M8.82353 37.9539L8.85253 37.8936C9.96936 35.5692 12.3384 34.1099 14.9159 34.1579C16.2025 34.1625 17.4998 34.717 18.65 35.4108C19.8359 36.1262 21.0327 37.0929 22.1494 38.1328C24.3805 40.2105 26.4381 42.7184 27.629 44.4999L27.6355 44.5095L27.6354 44.5095C28.2753 45.483 29.0141 46.3879 29.8394 47.2099C30.1715 45.9997 30.3251 44.7474 30.2949 43.4914L30.2945 43.4734V43.4554V23.3662C27.0491 21.1837 25.0825 17.5118 25.0962 13.5619C25.0976 6.99263 30.4232 1.66797 36.9928 1.66797C43.5624 1.66797 48.8888 6.99273 48.8901 13.5623M8.82353 37.9539L47.3901 13.5646M8.82353 37.9539L8.80002 38.0166C7.98356 40.1944 8.60645 42.6487 10.3584 44.1729C11.4425 45.2778 13.2308 47.948 15.1156 51.2592C16.9931 54.5575 18.8667 58.3136 20.0973 61.3909L20.0974 61.3912C21.9443 66.0068 25.9242 70.4164 28.8195 73.2294C29.7657 74.1621 30.2972 75.4365 30.2945 76.7667V76.7698V77.2452C30.2945 80.2272 32.7115 82.6442 35.6935 82.6442H56.4869C59.4689 82.6442 61.8859 80.2272 61.8859 77.2452V73.3443C64.4888 70.8945 65.7713 67.7218 66.4113 65.1992C67.066 62.6183 67.0843 60.5757 67.0843 60.3503V39.7886M8.82353 37.9539L55.9033 27.226M48.8901 13.5623C48.8901 13.5631 48.8901 13.5638 48.8901 13.5646H47.3901M48.8901 13.5623C48.8901 13.5612 48.8901 13.5602 48.8901 13.5591L47.3901 13.5646M48.8901 13.5623C48.9019 17.0086 47.4062 20.2433 44.8686 22.4617M47.3901 13.5646C47.4038 17.2733 45.4168 20.7012 42.1912 22.5317M44.8686 22.4617C44.4745 22.4587 44.0804 22.4908 43.6912 22.5578V22.5317H42.1912M44.8686 22.4617C44.4979 22.7857 44.1049 23.0881 43.6912 23.3663V24.0866M44.8686 22.4617C45.88 22.4693 46.8917 22.7078 47.8223 23.1798L47.8225 23.1799C49.258 23.9083 50.359 25.1212 50.9562 26.5709M42.1912 22.5317L42.4083 22.9144M42.1912 22.5317L42.4083 22.9144M42.4083 22.9144C42.3355 22.9428 42.2631 22.9725 42.1912 23.0035L42.4083 22.9144ZM43.6912 24.0866C43.1698 24.2038 42.6632 24.4032 42.1912 24.6841L43.6912 24.0866ZM43.6912 24.0866L47.1438 24.5176C48.243 25.0753 49.0887 26.0001 49.5543 27.1063C50.0044 26.8733 50.4749 26.6948 50.9562 26.5709M50.9562 26.5709C52.6042 26.1468 54.3797 26.3634 55.9033 27.226M50.9562 26.5709C51.1457 27.0308 51.2845 27.5145 51.3672 28.0142C52.634 27.6982 53.995 27.8692 55.1644 28.5314M55.9033 27.226L59.2868 33.063M55.9033 27.226C55.9034 27.2261 55.9035 27.2261 55.9035 27.2262L55.1644 28.5314M55.9033 27.226L55.1644 28.5314M55.9033 27.226C57.9746 28.3985 59.2613 30.5837 59.2865 32.9578M55.1644 28.5314C56.7945 29.4541 57.7975 31.1859 57.7868 33.0587M57.7868 33.0587V33.4018C58.1105 33.2631 58.4441 33.1504 58.7844 33.0644L57.7868 33.0587ZM57.7868 33.0587H58.8071C58.9656 33.0193 59.1255 32.9856 59.2865 32.9578M59.2865 32.9578C59.2869 32.9929 59.287 33.0279 59.2868 33.063M59.2865 32.9578C59.804 32.8686 60.3329 32.8401 60.8627 32.8749L60.886 32.8764L60.9092 32.8787C64.4534 33.2228 67.1388 36.2298 67.0843 39.7886M59.2868 33.063V34.4865V33.063ZM67.0843 39.7886V39.7764H65.5843L67.0841 39.8024C67.0841 39.7978 67.0842 39.7932 67.0843 39.7886ZM26.2555 51.5371L26.2521 51.5339C25.0113 50.353 23.9085 49.0351 22.9651 47.6051C21.6605 45.6488 19.8568 43.6111 18.1724 42.0709C17.33 41.3005 16.5481 40.6829 15.902 40.2683C15.5788 40.0608 15.3152 39.9209 15.1147 39.837C14.9619 39.773 14.8878 39.7594 14.8779 39.757H14.8773L14.8551 39.7564C14.5859 39.7484 14.3286 39.8428 14.1307 40.013C14.1693 40.06 14.2182 40.1144 14.2797 40.1758L14.2802 40.1763C15.7959 41.692 17.884 44.8391 19.8799 48.3194C21.9022 51.8458 23.9277 55.8878 25.2974 59.3098L25.2975 59.3102C26.8026 63.0739 30.524 67.0804 32.7239 69.2162L32.7302 69.2223C34.7552 71.2113 35.8957 73.9318 35.8937 76.7709M26.2555 51.5371L34.3937 77.2452C34.3937 77.9632 34.9755 78.545 35.6935 78.545H56.4869C57.2049 78.545 57.7868 77.9632 57.7868 77.2452V73.2527M26.2555 51.5371C27.5839 52.7936 29.4626 53.2841 31.2359 52.8368C33.0338 52.3877 34.4764 51.0502 35.0618 49.2932L35.0668 49.2782L35.0715 49.263C35.6553 47.3786 35.9333 45.4128 35.8937 43.44V13.5646C35.8937 12.9575 36.3857 12.4655 36.9928 12.4655C37.5999 12.4655 38.092 12.9575 38.092 13.5646V40.8562C38.092 42.4027 39.3454 43.6561 40.8919 43.6561C42.4382 43.6561 43.6912 42.4022 43.6912 40.8562V29.1602C43.6912 28.5534 44.1836 28.0611 44.7903 28.0611C45.3979 28.0611 45.8901 28.5536 45.8901 29.1602V40.8562C45.8901 42.4022 47.1431 43.6561 48.6894 43.6561C50.2359 43.6561 51.4893 42.4027 51.4893 40.8562V33.0587C51.4893 32.4516 51.9813 31.9595 52.5884 31.9595C53.1955 31.9595 53.6876 32.4516 53.6876 33.0587V42.1561C53.6876 43.702 54.941 44.9554 56.4869 44.9554C58.0329 44.9554 59.2868 43.7024 59.2868 42.1561L59.2868 39.5569L59.2868 39.553C59.286 39.2653 59.4007 38.9888 59.6054 38.7858C59.8247 38.5684 60.1228 38.4507 60.4302 38.4588C61.0485 38.5631 61.501 39.1071 61.4856 39.7399L61.4851 39.7582V39.7764V60.3503C61.4851 60.3482 61.4851 60.3492 61.485 60.3533C61.4832 60.4392 61.4533 61.8865 61.0029 63.7148C60.5264 65.6487 59.6235 67.8285 57.9652 69.344L57.9566 69.3519L57.9482 69.3599C56.8752 70.3715 56.2728 71.7856 56.2868 73.2604M26.2555 51.5371L57.7868 73.2527M35.8937 76.7709L34.3937 76.7698H35.8937V76.7709ZM35.8937 76.7709V77.045M35.8937 77.045H35.6935C35.8039 77.045 35.8937 77.1348 35.8937 77.2452V77.045ZM35.8937 77.045H56.2868M56.2868 77.045V77.2452C56.2868 77.1348 56.3765 77.045 56.4869 77.045H56.2868ZM56.2868 77.045V73.2604M56.2868 73.2604C56.2868 73.2634 56.2868 73.2665 56.2869 73.2696L57.7868 73.2527M56.2868 73.2604V73.2527H57.7868" fill="#252525" stroke="white" stroke-width="3"/>
<path d="M26.5967 24.6624C27.1154 24.6624 27.5842 24.3548 27.79 23.8789C27.9959 23.4029 27.8995 22.8503 27.5443 22.4725C23.0415 17.7132 22.797 10.3428 26.975 5.29562C27.2838 4.93927 27.3754 4.44371 27.2148 4.0005C27.0535 3.55729 26.6651 3.23603 26.1993 3.16108C25.7334 3.08612 25.2641 3.26935 24.972 3.63998C19.9604 9.69618 20.2507 18.5389 25.6496 24.2531C25.8953 24.5142 26.2379 24.6624 26.5967 24.6624Z" fill="#252525"/>
<path d="M49.1241 21.2196C49.4305 21.3767 49.7874 21.4058 50.1152 21.2999C50.4436 21.194 50.7161 20.9626 50.8731 20.6556C53.7144 15.123 52.9839 8.42902 49.0158 3.63998C48.7243 3.26935 48.2543 3.08612 47.7885 3.16108C47.3233 3.23603 46.9348 3.55729 46.7736 4.0005C46.6124 4.44371 46.704 4.93927 47.0133 5.29562C50.3199 9.2851 50.9285 14.8618 48.5613 19.4706C48.2335 20.1089 48.4857 20.8918 49.1241 21.2196Z" fill="#252525"/>
</svg>
