<svg width="108" height="101" viewBox="0 0 108 101" fill="none" xmlns="http://www.w3.org/2000/svg">
<path d="M25.1971 17.1273C42.7465 -1.79171 75.6443 20.2398 85.5305 44.0762C92.5759 61.0632 91.0602 71.6092 79.9593 90.8364C68.8585 110.064 44.1655 74.4972 23.4204 62.52C2.67528 50.5428 13.1323 30.1337 25.1971 17.1273Z" fill="#F82462" fill-opacity="0.2"/>
<g clip-path="url(#clip0)">
<rect x="15.9805" y="15" width="56" height="34" rx="3" fill="white"/>
<path d="M79.9805 33L73.4805 30L70.9805 42L59.9805 47.5L20.4805 49.5V51.5L23.9805 60L26.4805 65H29.4805H32.9805L45.4805 60L61.4805 53.5L59.9805 60V65L63.4805 71V83.5H84.9805L83.9805 42L79.9805 33Z" fill="white"/>
<path d="M74.9805 19V18.9987C74.9756 15.1354 71.845 12.0049 67.9817 12H67.9805L19.9805 12L19.9792 12C16.1159 12.0049 12.9854 15.1354 12.9805 18.9987V19L12.9805 45.4L12.9805 45.403C12.9907 48.768 15.3909 51.6144 18.6376 52.2415L22.9389 63.407L22.939 63.4071C24.3292 67.0144 28.3801 68.811 31.9872 67.4227L31.9874 67.4226L58.2156 57.319C56.9884 62.1442 57.7704 67.2985 60.4432 71.5709C60.4432 71.571 60.4433 71.571 60.4433 71.5711L60.9805 72.4301V83.8C60.9805 85.0153 61.9652 86 63.1805 86H84.7805C85.9958 86 86.9805 85.0153 86.9805 83.8V44.1895V44.1868C86.9683 39.7728 85.2111 35.5434 82.0902 32.4215L74.9805 25.2991V19ZM75.1955 46.0632L74.9374 46.1629C74.9655 45.9107 74.9799 45.6568 74.9805 45.4022V45.4V38.2671L76.6891 42.7026C77.2047 44.0431 76.5366 45.5469 75.1965 46.0628L75.1955 46.0632ZM80.336 53.4445L76.9768 50.0853C80.4493 48.6255 82.155 44.6603 80.7939 41.1204L80.7937 41.1199L78.4316 34.9865L78.9783 35.5344L78.9791 35.5352C81.2764 37.8319 82.5716 40.944 82.5805 44.1922V69.6H64.4003L64.1737 69.2379C64.1737 69.2379 64.1736 69.2379 64.1736 69.2379C61.4433 64.8745 61.3347 59.3634 63.8901 54.8966C64.3654 54.0658 64.2487 53.0229 63.6018 52.3176L53.7694 41.5911C52.6693 40.3869 52.7314 38.5258 53.9087 37.3983C55.0871 36.2701 56.9493 36.2889 58.104 37.4391L77.225 56.5556L77.9322 57.2625L78.6392 56.5555L80.336 54.8587L81.0431 54.1516L80.336 53.4445ZM53.6815 48H19.9805C18.545 48 17.3805 46.8355 17.3805 45.4V19C17.3805 17.5645 18.545 16.4 19.9805 16.4H67.9805C69.416 16.4 70.5805 17.5645 70.5805 19V25.6272H70.114L70.5805 26.8401V43.6888L61.214 34.3213L61.2141 34.3213L61.2057 34.3131C58.349 31.5223 53.7947 31.5007 50.9122 34.2625L50.9121 34.2627C48.0294 37.0258 47.8559 41.5766 50.5225 44.5494L50.5224 44.5495L50.5293 44.557L53.6815 48ZM30.4053 63.3162L30.4052 63.3162C29.0656 63.8327 27.5608 63.1649 27.0444 61.8248L25.3789 57.4938L38.616 52.3928H57.7128L57.9833 52.6878L30.4053 63.3162ZM23.4136 52.4H26.373L23.795 53.3926L23.4136 52.4ZM65.3805 81.6V74H82.5805V81.6H65.3805Z" fill="#252525" stroke="white" stroke-width="2"/>
<path d="M27.6613 29.8008C29.3845 29.8008 30.7813 28.404 30.7813 26.6808V20.9208C30.7813 19.1976 29.3845 17.8008 27.6613 17.8008H21.9013C20.1781 17.8008 18.7812 19.1976 18.7812 20.9208V26.6808C18.7812 28.404 20.1781 29.8008 21.9013 29.8008H27.6613ZM21.1813 26.6808V25.0008H23.5813V22.6008H21.1813V20.9208C21.1813 20.5233 21.5038 20.2008 21.9013 20.2008H27.6613C28.0588 20.2008 28.3813 20.5233 28.3813 20.9208V22.6008H25.9813V25.0008H28.3813V26.6808C28.3813 27.0783 28.0588 27.4008 27.6613 27.4008H21.9013C21.5038 27.4008 21.1813 27.0783 21.1813 26.6808Z" fill="#252525"/>
<path d="M19.9805 33.4004H24.7805V35.8004H19.9805V33.4004Z" fill="#252525"/>
<path d="M19.9805 40.5996H24.7805V42.9996H19.9805V40.5996Z" fill="#252525"/>
<path d="M41.582 40.5996H46.382V42.9996H41.582V40.5996Z" fill="#252525"/>
<path d="M27.1797 33.4004H31.9797V35.8004H27.1797V33.4004Z" fill="#252525"/>
<path d="M34.3789 33.4004H39.1789V35.8004H34.3789V33.4004Z" fill="#252525"/>
<path d="M41.582 33.4004H46.382V35.8004H41.582V33.4004Z" fill="#252525"/>
<path d="M64.3789 19H66.7789V22.6H64.3789V19Z" fill="#252525"/>
<path d="M59.582 19H61.982V22.6H59.582V19Z" fill="#252525"/>
<path d="M54.7812 19H57.1813V22.6H54.7812V19Z" fill="#252525"/>
<path d="M49.9805 19H52.3804V22.6H49.9805V19Z" fill="#252525"/>
<path d="M66.7812 75.4004H69.1812V77.8004H66.7812V75.4004Z" fill="#252525"/>
</g>
<defs>
<clipPath id="clip0">
<rect width="72" height="72" fill="white" transform="translate(13.9805 13)"/>
</clipPath>
</defs>
</svg>
