<svg width="110" height="107" viewBox="0 0 110 107" fill="none" xmlns="http://www.w3.org/2000/svg">
<path d="M33.5956 12.2464C51.1449 -6.67257 73.0427 26.359 82.9289 50.1954C89.9743 67.1824 88.4586 77.7283 77.3578 96.9555C66.257 116.183 41.5639 80.6164 20.8188 68.6392C0.0737218 56.662 21.5307 25.2529 33.5956 12.2464Z" fill="#F82462" fill-opacity="0.2"/>
<path d="M22.0039 44.623H49.0039L56.0039 34.623L81.0039 35.623L83.0039 44.623V80.623H22.0039V44.623Z" fill="white"/>
<mask id="path-3-outside-1" maskUnits="userSpaceOnUse" x="18.0039" y="31.373" width="68" height="54" fill="black">
<rect fill="white" x="18.0039" y="31.373" width="68" height="54"/>
<path d="M77.7539 33.373H57.0566C55.8423 33.373 54.6982 33.9644 53.9961 34.9556L48.6689 42.4771C48.4346 42.8076 48.0532 43.0044 47.6484 43.0044H46.8584V40.9277C46.8584 39.3154 45.5464 38.0034 43.9336 38.0034H38.2407C36.6284 38.0034 35.3164 39.3154 35.3164 40.9277V43.0044H31.7539V41.7534C31.7539 39.6855 30.0718 38.0034 28.0039 38.0034C25.936 38.0034 24.2539 39.6855 24.2539 41.7534V43.0044H23.7539C21.686 43.0044 20.0039 44.687 20.0039 46.7544V76.373C20.0039 79.8193 22.8076 82.623 26.2539 82.623H80.2539C82.3218 82.623 84.0039 80.9409 84.0039 78.873V39.623C84.0039 36.1768 81.2002 33.373 77.7539 33.373ZM37.8164 40.9277C37.8164 40.6938 38.0068 40.5034 38.2407 40.5034H43.9336C44.1675 40.5034 44.3584 40.6938 44.3584 40.9277V43.0034H37.8164V40.9277ZM26.7539 41.7534C26.7539 41.064 27.3145 40.5034 28.0039 40.5034C28.6934 40.5034 29.2539 41.064 29.2539 41.7534V43.0034H26.7539V41.7534ZM81.5039 71.623H73.791C74.5908 69.2656 75.0039 66.7803 75.0039 64.248C75.0039 60.7266 74.1836 57.2573 72.6455 54.123H81.5039V71.623ZM22.5039 54.123H31.3628C29.8247 57.2583 29.0039 60.729 29.0039 64.248C29.0039 66.7808 29.417 69.2656 30.2168 71.623H22.5039V54.123ZM67.2012 67.3022L59.522 59.6235C59.2876 59.3892 58.9697 59.2573 58.6382 59.2573C58.3066 59.2573 57.9888 59.3892 57.7544 59.6235L49.0444 68.3335L45.1201 64.4087C44.6318 63.9209 43.8403 63.9209 43.3521 64.4087L37.6543 70.1064C36.9136 68.2979 36.5039 66.3203 36.5039 64.248C36.5039 55.7012 43.457 48.748 52.0039 48.748C60.5508 48.748 67.5039 55.7012 67.5039 64.248C67.5039 65.2935 67.3994 66.3145 67.2012 67.3022ZM44.2358 67.0605L53.7554 76.5801C53.9995 76.8242 54.3193 76.9463 54.6392 76.9463C54.959 76.9463 55.2788 76.8242 55.5229 76.5801C56.0112 76.0918 56.0112 75.3003 55.5229 74.812L50.812 70.1011L58.6382 62.2749L66.3867 70.0239C64.0918 75.7183 58.5103 79.748 52.0039 79.748C46.4644 79.748 41.5947 76.8262 38.8535 72.4434L44.2358 67.0605ZM80.2539 80.123H60.481C66.1436 77.0869 70.0039 71.1104 70.0039 64.248C70.0039 54.3228 61.9292 46.248 52.0039 46.248C42.0786 46.248 34.0039 54.3228 34.0039 64.248C34.0039 71.1104 37.8643 77.0869 43.5269 80.123H26.2539C24.186 80.123 22.5039 78.4409 22.5039 76.373V74.123H31.2324C31.7231 75.1504 32.2925 76.1455 32.938 77.1006C33.1797 77.4575 33.5737 77.6504 33.9746 77.6504C34.2158 77.6504 34.459 77.5806 34.6738 77.4355C35.2456 77.0488 35.396 76.272 35.0093 75.7002C34.2993 74.6504 33.6934 73.5459 33.1943 72.3999C33.1895 72.3867 33.1836 72.3745 33.1777 72.3618C32.0762 69.8164 31.5039 67.0654 31.5039 64.248C31.5039 59.6001 33.1094 55.0449 36.0239 51.4214C36.4565 50.8838 36.3711 50.0967 35.8335 49.6641C35.2954 49.2314 34.5088 49.3164 34.0757 49.8545C33.6177 50.4238 33.1895 51.0151 32.7896 51.623H22.5039V46.7544C22.5039 46.0649 23.0645 45.5044 23.7539 45.5044H47.6484C48.8628 45.5044 50.0068 44.9131 50.7085 43.9219L56.0361 36.4004C56.27 36.0698 56.6514 35.873 57.0562 35.873H77.7539C79.8218 35.873 81.5039 37.5552 81.5039 39.623V51.623H71.2183C70.7915 50.9736 70.332 50.3442 69.8384 49.7388C69.4023 49.2036 68.6147 49.1235 68.0796 49.5596C67.5444 49.9956 67.4644 50.7832 67.9004 51.3184C70.8691 54.9609 72.5039 59.5527 72.5039 64.248C72.5039 67.0713 71.9287 69.8281 70.8223 72.3784C70.8203 72.3818 70.8188 72.3857 70.8174 72.3892C70.3228 73.5269 69.7231 74.624 69.021 75.6675C68.6353 76.2397 68.7871 77.0166 69.3594 77.4023C69.5737 77.5464 69.8164 77.6157 70.0566 77.6157C70.4585 77.6157 70.853 77.4219 71.0947 77.0635C71.73 76.1201 72.2905 75.1372 72.7749 74.123H81.5039V78.873C81.5039 79.5625 80.9434 80.123 80.2539 80.123Z"/>
</mask>
<path d="M77.7539 33.373H57.0566C55.8423 33.373 54.6982 33.9644 53.9961 34.9556L48.6689 42.4771C48.4346 42.8076 48.0532 43.0044 47.6484 43.0044H46.8584V40.9277C46.8584 39.3154 45.5464 38.0034 43.9336 38.0034H38.2407C36.6284 38.0034 35.3164 39.3154 35.3164 40.9277V43.0044H31.7539V41.7534C31.7539 39.6855 30.0718 38.0034 28.0039 38.0034C25.936 38.0034 24.2539 39.6855 24.2539 41.7534V43.0044H23.7539C21.686 43.0044 20.0039 44.687 20.0039 46.7544V76.373C20.0039 79.8193 22.8076 82.623 26.2539 82.623H80.2539C82.3218 82.623 84.0039 80.9409 84.0039 78.873V39.623C84.0039 36.1768 81.2002 33.373 77.7539 33.373ZM37.8164 40.9277C37.8164 40.6938 38.0068 40.5034 38.2407 40.5034H43.9336C44.1675 40.5034 44.3584 40.6938 44.3584 40.9277V43.0034H37.8164V40.9277ZM26.7539 41.7534C26.7539 41.064 27.3145 40.5034 28.0039 40.5034C28.6934 40.5034 29.2539 41.064 29.2539 41.7534V43.0034H26.7539V41.7534ZM81.5039 71.623H73.791C74.5908 69.2656 75.0039 66.7803 75.0039 64.248C75.0039 60.7266 74.1836 57.2573 72.6455 54.123H81.5039V71.623ZM22.5039 54.123H31.3628C29.8247 57.2583 29.0039 60.729 29.0039 64.248C29.0039 66.7808 29.417 69.2656 30.2168 71.623H22.5039V54.123ZM67.2012 67.3022L59.522 59.6235C59.2876 59.3892 58.9697 59.2573 58.6382 59.2573C58.3066 59.2573 57.9888 59.3892 57.7544 59.6235L49.0444 68.3335L45.1201 64.4087C44.6318 63.9209 43.8403 63.9209 43.3521 64.4087L37.6543 70.1064C36.9136 68.2979 36.5039 66.3203 36.5039 64.248C36.5039 55.7012 43.457 48.748 52.0039 48.748C60.5508 48.748 67.5039 55.7012 67.5039 64.248C67.5039 65.2935 67.3994 66.3145 67.2012 67.3022ZM44.2358 67.0605L53.7554 76.5801C53.9995 76.8242 54.3193 76.9463 54.6392 76.9463C54.959 76.9463 55.2788 76.8242 55.5229 76.5801C56.0112 76.0918 56.0112 75.3003 55.5229 74.812L50.812 70.1011L58.6382 62.2749L66.3867 70.0239C64.0918 75.7183 58.5103 79.748 52.0039 79.748C46.4644 79.748 41.5947 76.8262 38.8535 72.4434L44.2358 67.0605ZM80.2539 80.123H60.481C66.1436 77.0869 70.0039 71.1104 70.0039 64.248C70.0039 54.3228 61.9292 46.248 52.0039 46.248C42.0786 46.248 34.0039 54.3228 34.0039 64.248C34.0039 71.1104 37.8643 77.0869 43.5269 80.123H26.2539C24.186 80.123 22.5039 78.4409 22.5039 76.373V74.123H31.2324C31.7231 75.1504 32.2925 76.1455 32.938 77.1006C33.1797 77.4575 33.5737 77.6504 33.9746 77.6504C34.2158 77.6504 34.459 77.5806 34.6738 77.4355C35.2456 77.0488 35.396 76.272 35.0093 75.7002C34.2993 74.6504 33.6934 73.5459 33.1943 72.3999C33.1895 72.3867 33.1836 72.3745 33.1777 72.3618C32.0762 69.8164 31.5039 67.0654 31.5039 64.248C31.5039 59.6001 33.1094 55.0449 36.0239 51.4214C36.4565 50.8838 36.3711 50.0967 35.8335 49.6641C35.2954 49.2314 34.5088 49.3164 34.0757 49.8545C33.6177 50.4238 33.1895 51.0151 32.7896 51.623H22.5039V46.7544C22.5039 46.0649 23.0645 45.5044 23.7539 45.5044H47.6484C48.8628 45.5044 50.0068 44.9131 50.7085 43.9219L56.0361 36.4004C56.27 36.0698 56.6514 35.873 57.0562 35.873H77.7539C79.8218 35.873 81.5039 37.5552 81.5039 39.623V51.623H71.2183C70.7915 50.9736 70.332 50.3442 69.8384 49.7388C69.4023 49.2036 68.6147 49.1235 68.0796 49.5596C67.5444 49.9956 67.4644 50.7832 67.9004 51.3184C70.8691 54.9609 72.5039 59.5527 72.5039 64.248C72.5039 67.0713 71.9287 69.8281 70.8223 72.3784C70.8203 72.3818 70.8188 72.3857 70.8174 72.3892C70.3228 73.5269 69.7231 74.624 69.021 75.6675C68.6353 76.2397 68.7871 77.0166 69.3594 77.4023C69.5737 77.5464 69.8164 77.6157 70.0566 77.6157C70.4585 77.6157 70.853 77.4219 71.0947 77.0635C71.73 76.1201 72.2905 75.1372 72.7749 74.123H81.5039V78.873C81.5039 79.5625 80.9434 80.123 80.2539 80.123Z" fill="#252525"/>
<path d="M77.7539 33.373H57.0566C55.8423 33.373 54.6982 33.9644 53.9961 34.9556L48.6689 42.4771C48.4346 42.8076 48.0532 43.0044 47.6484 43.0044H46.8584V40.9277C46.8584 39.3154 45.5464 38.0034 43.9336 38.0034H38.2407C36.6284 38.0034 35.3164 39.3154 35.3164 40.9277V43.0044H31.7539V41.7534C31.7539 39.6855 30.0718 38.0034 28.0039 38.0034C25.936 38.0034 24.2539 39.6855 24.2539 41.7534V43.0044H23.7539C21.686 43.0044 20.0039 44.687 20.0039 46.7544V76.373C20.0039 79.8193 22.8076 82.623 26.2539 82.623H80.2539C82.3218 82.623 84.0039 80.9409 84.0039 78.873V39.623C84.0039 36.1768 81.2002 33.373 77.7539 33.373ZM37.8164 40.9277C37.8164 40.6938 38.0068 40.5034 38.2407 40.5034H43.9336C44.1675 40.5034 44.3584 40.6938 44.3584 40.9277V43.0034H37.8164V40.9277ZM26.7539 41.7534C26.7539 41.064 27.3145 40.5034 28.0039 40.5034C28.6934 40.5034 29.2539 41.064 29.2539 41.7534V43.0034H26.7539V41.7534ZM81.5039 71.623H73.791C74.5908 69.2656 75.0039 66.7803 75.0039 64.248C75.0039 60.7266 74.1836 57.2573 72.6455 54.123H81.5039V71.623ZM22.5039 54.123H31.3628C29.8247 57.2583 29.0039 60.729 29.0039 64.248C29.0039 66.7808 29.417 69.2656 30.2168 71.623H22.5039V54.123ZM67.2012 67.3022L59.522 59.6235C59.2876 59.3892 58.9697 59.2573 58.6382 59.2573C58.3066 59.2573 57.9888 59.3892 57.7544 59.6235L49.0444 68.3335L45.1201 64.4087C44.6318 63.9209 43.8403 63.9209 43.3521 64.4087L37.6543 70.1064C36.9136 68.2979 36.5039 66.3203 36.5039 64.248C36.5039 55.7012 43.457 48.748 52.0039 48.748C60.5508 48.748 67.5039 55.7012 67.5039 64.248C67.5039 65.2935 67.3994 66.3145 67.2012 67.3022ZM44.2358 67.0605L53.7554 76.5801C53.9995 76.8242 54.3193 76.9463 54.6392 76.9463C54.959 76.9463 55.2788 76.8242 55.5229 76.5801C56.0112 76.0918 56.0112 75.3003 55.5229 74.812L50.812 70.1011L58.6382 62.2749L66.3867 70.0239C64.0918 75.7183 58.5103 79.748 52.0039 79.748C46.4644 79.748 41.5947 76.8262 38.8535 72.4434L44.2358 67.0605ZM80.2539 80.123H60.481C66.1436 77.0869 70.0039 71.1104 70.0039 64.248C70.0039 54.3228 61.9292 46.248 52.0039 46.248C42.0786 46.248 34.0039 54.3228 34.0039 64.248C34.0039 71.1104 37.8643 77.0869 43.5269 80.123H26.2539C24.186 80.123 22.5039 78.4409 22.5039 76.373V74.123H31.2324C31.7231 75.1504 32.2925 76.1455 32.938 77.1006C33.1797 77.4575 33.5737 77.6504 33.9746 77.6504C34.2158 77.6504 34.459 77.5806 34.6738 77.4355C35.2456 77.0488 35.396 76.272 35.0093 75.7002C34.2993 74.6504 33.6934 73.5459 33.1943 72.3999C33.1895 72.3867 33.1836 72.3745 33.1777 72.3618C32.0762 69.8164 31.5039 67.0654 31.5039 64.248C31.5039 59.6001 33.1094 55.0449 36.0239 51.4214C36.4565 50.8838 36.3711 50.0967 35.8335 49.6641C35.2954 49.2314 34.5088 49.3164 34.0757 49.8545C33.6177 50.4238 33.1895 51.0151 32.7896 51.623H22.5039V46.7544C22.5039 46.0649 23.0645 45.5044 23.7539 45.5044H47.6484C48.8628 45.5044 50.0068 44.9131 50.7085 43.9219L56.0361 36.4004C56.27 36.0698 56.6514 35.873 57.0562 35.873H77.7539C79.8218 35.873 81.5039 37.5552 81.5039 39.623V51.623H71.2183C70.7915 50.9736 70.332 50.3442 69.8384 49.7388C69.4023 49.2036 68.6147 49.1235 68.0796 49.5596C67.5444 49.9956 67.4644 50.7832 67.9004 51.3184C70.8691 54.9609 72.5039 59.5527 72.5039 64.248C72.5039 67.0713 71.9287 69.8281 70.8223 72.3784C70.8203 72.3818 70.8188 72.3857 70.8174 72.3892C70.3228 73.5269 69.7231 74.624 69.021 75.6675C68.6353 76.2397 68.7871 77.0166 69.3594 77.4023C69.5737 77.5464 69.8164 77.6157 70.0566 77.6157C70.4585 77.6157 70.853 77.4219 71.0947 77.0635C71.73 76.1201 72.2905 75.1372 72.7749 74.123H81.5039V78.873C81.5039 79.5625 80.9434 80.123 80.2539 80.123Z" stroke="white" stroke-width="4" mask="url(#path-3-outside-1)"/>
<path d="M78.2124 41.7539C78.2124 39.686 76.5303 38.0039 74.4624 38.0039H63.2539C61.186 38.0039 59.5039 39.686 59.5039 41.7539C59.5039 43.8218 61.186 45.5039 63.2539 45.5039H74.4624C76.5303 45.5039 78.2124 43.8213 78.2124 41.7539ZM75.7124 41.7539C75.7124 42.4429 75.1514 43.0039 74.4624 43.0039H70.1079V40.5039H74.4624C75.1514 40.5039 75.7124 41.0645 75.7124 41.7539ZM62.0039 41.7539C62.0039 41.0645 62.5645 40.5039 63.2539 40.5039H67.6079V43.0039H63.2539C62.5645 43.0039 62.0039 42.4429 62.0039 41.7539Z" fill="#2B2B4D"/>
<path d="M50.2969 52.582C48.229 52.582 46.5469 54.2642 46.5469 56.332C46.5469 58.3999 48.229 60.082 50.2969 60.082C52.3647 60.082 54.0469 58.3999 54.0469 56.332C54.0469 54.2642 52.3647 52.582 50.2969 52.582ZM50.2969 57.582C49.6079 57.582 49.0469 57.021 49.0469 56.332C49.0469 55.6426 49.6079 55.082 50.2969 55.082C50.9863 55.082 51.5469 55.6426 51.5469 56.332C51.5469 57.021 50.9863 57.582 50.2969 57.582Z" fill="#2B2B4D"/>
<path d="M68.7539 27.1646C69.4443 27.1646 70.0039 26.605 70.0039 25.9146V19.873C70.0039 19.1826 69.4443 18.623 68.7539 18.623C68.064 18.623 67.5039 19.1826 67.5039 19.873V25.9146C67.5039 26.605 68.064 27.1646 68.7539 27.1646Z" fill="#2B2B4D"/>
<path d="M68.7539 28.998C68.4253 28.998 68.1025 29.1318 67.8706 29.3643C67.6377 29.5967 67.5039 29.9194 67.5039 30.248C67.5039 30.5767 67.6377 30.8994 67.8706 31.1318C68.1025 31.3643 68.4253 31.498 68.7539 31.498C69.083 31.498 69.4053 31.3643 69.6377 31.1318C69.8701 30.8994 70.0039 30.5767 70.0039 30.248C70.0039 29.9194 69.8706 29.5967 69.6377 29.3643C69.4053 29.1318 69.083 28.998 68.7539 28.998Z" fill="#2B2B4D"/>
<path d="M61.3389 29.9503C61.583 30.1945 61.9028 30.3165 62.2227 30.3165C62.5425 30.3165 62.8623 30.1945 63.1064 29.9503C63.5947 29.462 63.5947 28.6705 63.1064 28.1823L58.9111 23.9869C58.4229 23.4991 57.6318 23.4991 57.1436 23.9869C56.6553 24.4752 56.6553 25.2667 57.1436 25.755L61.3389 29.9503Z" fill="#2B2B4D"/>
<path d="M75.3594 30.2042C75.6797 30.2042 75.9996 30.0821 76.2437 29.838L80.3223 25.7564C80.8106 25.2681 80.8101 24.4771 80.3218 23.9888C79.8336 23.501 79.0425 23.501 78.5543 23.9893L74.4752 28.0704C73.9874 28.5587 73.9874 29.3502 74.4756 29.8384C74.7203 30.0821 75.0396 30.2042 75.3594 30.2042Z" fill="#2B2B4D"/>
</svg>
