<svg width="90" height="90" viewBox="0 0 90 90" fill="none" xmlns="http://www.w3.org/2000/svg">
<path d="M44.9984 86.0358C27.4725 86.0358 11.8757 74.9077 6.18345 58.3437C5.76063 57.1202 6.41336 55.783 7.63954 55.3655C8.86044 54.9426 10.1976 55.5927 10.6178 56.8215C15.6599 71.4908 29.4782 81.3425 45.001 81.3425C65.0454 81.3425 81.3504 65.0375 81.3504 44.9958C81.3504 43.7009 82.4022 42.6465 83.697 42.6465C84.9919 42.6465 86.041 43.6983 86.041 44.9958C86.0384 67.6246 67.6299 86.0358 44.9984 86.0358Z" fill="#F82462"/>
<path d="M6.30495 47.3443C5.0127 47.3443 3.96094 46.2978 3.96094 45.0003C3.96094 22.3741 22.3721 3.96289 44.9983 3.96289C62.5189 3.96289 78.1157 15.0857 83.8132 31.6444C84.2334 32.868 83.5833 34.2051 82.3571 34.628C81.1283 35.0455 79.7964 34.3954 79.3763 33.1719C74.3315 18.5026 60.5158 8.65091 44.9957 8.65091C24.954 8.65091 8.64632 24.9612 8.64632 45.0029C8.64896 46.2952 7.59984 47.3443 6.30495 47.3443Z" fill="#F82462"/>
<path d="M81.5045 35.2289C81.2746 35.2289 81.0368 35.1919 80.8042 35.1205L64.5177 30.0203C63.2836 29.6318 62.5965 28.3158 62.9823 27.079C63.3682 25.8449 64.6895 25.1578 65.9183 25.541L80.133 29.9965L85.4738 16.6089C85.9547 15.4065 87.321 14.8172 88.5207 15.3035C89.7231 15.7844 90.3124 17.1454 89.8314 18.3478L83.6794 33.7543C83.3174 34.6607 82.44 35.2289 81.5045 35.2289Z" fill="#F82462"/>
<path d="M2.34296 74.8723C2.05491 74.8723 1.75894 74.8168 1.47618 74.7005C0.27378 74.2195 -0.312883 72.8586 0.168075 71.6562L6.31747 56.2497C6.772 55.108 8.02461 54.5108 9.19529 54.8808L25.4818 59.9811C26.7186 60.3669 27.403 61.6829 27.0172 62.917C26.6314 64.1564 25.3127 64.8435 24.0812 64.455L9.86916 60.0048L4.52313 73.3924C4.1558 74.3094 3.27316 74.8723 2.34296 74.8723Z" fill="#F82462"/>
</svg>
