<svg width="110" height="86" viewBox="0 0 110 86" fill="none" xmlns="http://www.w3.org/2000/svg">
<path d="M16 2H5C3.34315 2 2 3.34315 2 5V16" stroke="#252525" stroke-width="3" stroke-linecap="round" stroke-linejoin="round"/>
<path d="M94 2H105C106.657 2 108 3.34315 108 5V16" stroke="#252525" stroke-width="3" stroke-linecap="round" stroke-linejoin="round"/>
<path d="M16 84H5C3.34315 84 2 82.6569 2 81V70" stroke="#252525" stroke-width="3" stroke-linecap="round" stroke-linejoin="round"/>
<path d="M94 84H105C106.657 84 108 82.6569 108 81V70" stroke="#252525" stroke-width="3" stroke-linecap="round" stroke-linejoin="round"/>
<path d="M95.3934 8.5332H14.6066C10.9641 8.5332 8 11.4973 8 15.1398V16.3665V32.0332V70.8599C8 74.5024 10.9641 77.4665 14.6066 77.4665H95.3934C99.0359 77.4665 102 74.5024 102 70.8599V32.0332V16.3665V15.1398C102 11.4973 99.0359 8.5332 95.3934 8.5332ZM12.7 21.0665C13.5648 21.0665 14.2667 20.3647 14.2667 19.4999H20.5333C20.5333 20.3647 21.2352 21.0665 22.1 21.0665C22.9648 21.0665 23.6667 20.3647 23.6667 19.4999H29.9333C29.9333 20.3647 30.6352 21.0665 31.5 21.0665C32.3648 21.0665 33.0667 20.3647 33.0667 19.4999H39.3333C39.3333 20.3647 40.0352 21.0665 40.9 21.0665C41.7648 21.0665 42.4667 20.3647 42.4667 19.4999H48.7333C48.7333 20.3647 49.4352 21.0665 50.3 21.0665C51.1648 21.0665 51.8667 20.3647 51.8667 19.4999H58.1333C58.1333 20.3647 58.8352 21.0665 59.7 21.0665C60.5648 21.0665 61.2667 20.3647 61.2667 19.4999H67.5333C67.5333 20.3647 68.2352 21.0665 69.1 21.0665C69.9648 21.0665 70.6667 20.3647 70.6667 19.4999H76.9333C76.9333 20.3647 77.6352 21.0665 78.5 21.0665C79.3648 21.0665 80.0667 20.3647 80.0667 19.4999H86.3333C86.3333 20.3647 87.0352 21.0665 87.9 21.0665C88.7648 21.0665 89.4667 20.3647 89.4667 19.4999H95.7333C95.7333 20.3647 96.4352 21.0665 97.3 21.0665C98.1648 21.0665 98.8667 20.3647 98.8667 19.4999V28.8999C98.8667 28.0351 98.1648 27.3332 97.3 27.3332C96.4352 27.3332 95.7333 28.0351 95.7333 28.8999H89.4667C89.4667 28.0351 88.7648 27.3332 87.9 27.3332C87.0352 27.3332 86.3333 28.0351 86.3333 28.8999H80.0667C80.0667 28.0351 79.3648 27.3332 78.5 27.3332C77.6352 27.3332 76.9333 28.0351 76.9333 28.8999H70.6667C70.6667 28.0351 69.9648 27.3332 69.1 27.3332C68.2352 27.3332 67.5333 28.0351 67.5333 28.8999H61.2667C61.2667 28.0351 60.5648 27.3332 59.7 27.3332C58.8352 27.3332 58.1333 28.0351 58.1333 28.8999H51.8667C51.8667 28.0351 51.1648 27.3332 50.3 27.3332C49.4352 27.3332 48.7333 28.0351 48.7333 28.8999H42.4667C42.4667 28.0351 41.7648 27.3332 40.9 27.3332C40.0352 27.3332 39.3333 28.0351 39.3333 28.8999H33.0667C33.0667 28.0351 32.3648 27.3332 31.5 27.3332C30.6352 27.3332 29.9333 28.0351 29.9333 28.8999H23.6667C23.6667 28.0351 22.9648 27.3332 22.1 27.3332C21.2352 27.3332 20.5333 28.0351 20.5333 28.8999H14.2667C14.2667 28.0351 13.5648 27.3332 12.7 27.3332C11.8352 27.3332 11.1333 28.0351 11.1333 28.8999V19.4999C11.1333 20.3647 11.8352 21.0665 12.7 21.0665ZM98.8667 70.8599C98.8667 72.7759 97.3094 74.3332 95.3934 74.3332H14.6066C12.6906 74.3332 11.1333 72.7759 11.1333 70.8599V32.0332H98.8667V70.8599ZM11.1333 16.3665V15.1398C11.1333 13.2238 12.6906 11.6665 14.6066 11.6665H95.3934C97.3094 11.6665 98.8667 13.2238 98.8667 15.1398V16.3665H11.1333Z" fill="#252525"/>
<path d="M87.3493 69.6337H94.1659V35.167H59.6992V69.6337H66.5158H87.3493ZM69.0992 66.5003V66.4925C69.0992 65.811 69.4705 65.1859 70.0095 64.8914L74.0483 62.9017C74.8614 62.4975 75.3659 61.6844 75.3659 60.7789V58.5511L74.4196 58.1422C72.9924 57.528 72.0602 56.3389 71.5699 54.5059L71.3458 53.6709L70.5218 53.414C70.34 53.3576 70.1458 53.1805 70.1458 52.9236V51.8786C70.1458 51.6577 70.2946 51.4995 70.434 51.4259L71.1704 51.0342L71.2581 50.2039C71.3552 49.2717 71.5589 48.4179 71.8707 47.6643C72.0054 47.3337 72.1198 47.0878 72.2138 46.8872C72.4566 46.3655 72.6039 45.9801 72.6571 45.5477C73.8024 46.0256 75.0996 46.2183 76.4798 46.107C76.6286 46.0945 76.7806 46.0882 76.9357 46.0882C81.5088 46.0882 82.3705 48.1782 82.6102 50.2211L82.7073 51.0389L83.4358 51.4243C83.5752 51.4979 83.7256 51.6546 83.7256 51.8786V52.9236C83.7256 53.1805 83.5314 53.3576 83.3496 53.414L82.5256 53.6709L82.3015 54.5059C81.8112 56.3389 80.879 57.5296 79.4518 58.1422L78.4992 58.5511V60.7883C78.4992 61.6813 78.9927 62.4912 79.7902 62.8986L83.7382 64.9133C84.3492 65.2188 84.7377 65.8235 84.7643 66.5019H69.0992V66.5003ZM62.8326 38.3003H91.0326V66.5003H87.8945C87.8663 64.6297 86.8214 62.9534 85.1466 62.1121L81.8284 60.4185C83.3543 59.4425 84.4541 57.973 85.109 56.0303C86.1822 55.3786 86.8558 54.2161 86.8558 52.922V51.8771C86.8558 50.8164 86.3937 49.8279 85.6135 49.1432C85.0542 46.1697 83.0363 42.9533 76.9341 42.9533C76.6944 42.9533 76.4579 42.9627 76.2291 42.9815C75.4066 43.0458 74.2144 42.9815 73.1945 42.2953C72.7167 41.9757 72.477 41.7298 72.3548 41.5731C71.855 40.9417 71.0215 40.7255 70.2805 41.0295C69.5395 41.335 69.1055 42.0776 69.1964 42.8719C69.2418 43.2745 69.3107 43.7445 69.4141 44.2599C69.5457 44.9195 69.5551 45.1075 69.5489 45.1576C69.5348 45.2125 69.4455 45.4067 69.3734 45.5634C69.2637 45.7984 69.129 46.0882 68.9708 46.4752C68.6292 47.3024 68.3833 48.2048 68.2329 49.1699C67.4652 49.8545 67.014 50.8337 67.014 51.8786V52.9236C67.014 54.2177 67.6892 55.3801 68.7608 56.0319C69.4141 57.9667 70.5077 59.4331 72.0242 60.4076L68.5697 62.1105C66.9623 62.9879 65.9659 64.6658 65.9659 66.4925V66.5003H62.8326V38.3003Z" fill="#252525"/>
<path d="M17.3987 41.4331H31.4987C32.3651 41.4331 33.0654 40.7328 33.0654 39.8665C33.0654 39.0001 32.3651 38.2998 31.4987 38.2998H17.3987C16.5323 38.2998 15.832 39.0001 15.832 39.8665C15.832 40.7328 16.5323 41.4331 17.3987 41.4331Z" fill="#252525"/>
<path d="M37.7659 41.4331H51.8659C52.7322 41.4331 53.4325 40.7328 53.4325 39.8665C53.4325 39.0001 52.7322 38.2998 51.8659 38.2998H37.7659C36.8995 38.2998 36.1992 39.0001 36.1992 39.8665C36.1992 40.7328 36.8995 41.4331 37.7659 41.4331Z" fill="#252525"/>
<path d="M17.3987 49.2661H18.9654C19.8317 49.2661 20.532 48.5658 20.532 47.6995C20.532 46.8331 19.8317 46.1328 18.9654 46.1328H17.3987C16.5323 46.1328 15.832 46.8331 15.832 47.6995C15.832 48.5658 16.5323 49.2661 17.3987 49.2661Z" fill="#252525"/>
<path d="M28.368 49.2661C29.2343 49.2661 29.9346 48.5658 29.9346 47.6995C29.9346 46.8331 29.2343 46.1328 28.368 46.1328H25.2346C24.3683 46.1328 23.668 46.8331 23.668 47.6995C23.668 48.5658 24.3683 49.2661 25.2346 49.2661H28.368Z" fill="#252525"/>
<path d="M34.6331 49.2661H36.1997C37.0661 49.2661 37.7664 48.5658 37.7664 47.6995C37.7664 46.8331 37.0661 46.1328 36.1997 46.1328H34.6331C33.7667 46.1328 33.0664 46.8331 33.0664 47.6995C33.0664 48.5658 33.7667 49.2661 34.6331 49.2661Z" fill="#252525"/>
<path d="M45.5984 49.2661C46.4648 49.2661 47.1651 48.5658 47.1651 47.6995C47.1651 46.8331 46.4648 46.1328 45.5984 46.1328H42.4651C41.5987 46.1328 40.8984 46.8331 40.8984 47.6995C40.8984 48.5658 41.5987 49.2661 42.4651 49.2661H45.5984Z" fill="#252525"/>
<path d="M50.7551 46.5881C50.4715 46.8842 50.3008 47.2758 50.3008 47.7004C50.3008 48.1234 50.4715 48.5151 50.7551 48.8127C51.0512 49.0947 51.4601 49.2671 51.8674 49.2671C52.2748 49.2671 52.6821 49.0947 52.9798 48.8127C53.2618 48.5151 53.4341 48.1077 53.4341 47.7004C53.4341 47.2931 53.2618 46.8842 52.9798 46.5881C52.4001 46.0084 51.3348 46.0084 50.7551 46.5881Z" fill="#252525"/>
<path d="M26.2529 54.5933C22.8219 56.3793 21.6657 59.7962 21.2458 63.3385C20.5972 62.7948 19.9486 62.2528 19.3016 61.7091C17.7662 60.4229 15.5384 62.6272 17.0863 63.9244C18.5511 65.1511 20.0175 66.3794 21.4824 67.6076C22.5132 68.4724 24.1097 67.9257 24.1567 66.5C24.271 63.1066 24.4308 59.0709 27.8352 57.299C29.6243 56.3684 28.042 53.6627 26.2529 54.5933Z" fill="#252525"/>
<path d="M47.0208 59.2496C44.7366 59.1055 41.3934 62.6258 39.6324 59.4893C39.2251 58.7624 38.2021 58.4898 37.4892 58.9269C35.2708 60.2883 32.3709 62.2466 30.0382 59.7102C28.6705 58.2234 26.4583 60.4434 27.8229 61.9255C30.7526 65.1105 34.522 64.1407 37.848 62.3375C38.5969 63.1757 39.5259 63.7882 40.726 64.0311C41.9683 64.2817 47.0318 62.2435 47.306 62.6195C48.4841 64.2316 51.2038 62.6696 50.0116 61.0372C49.2016 59.9311 48.4543 59.3389 47.0208 59.2496Z" fill="#252525"/>
<path d="M73.801 25.7661C74.6663 25.7661 75.3677 25.0647 75.3677 24.1995C75.3677 23.3342 74.6663 22.6328 73.801 22.6328C72.9358 22.6328 72.2344 23.3342 72.2344 24.1995C72.2344 25.0647 72.9358 25.7661 73.801 25.7661Z" fill="#252525"/>
<path d="M83.1995 25.7661C84.0647 25.7661 84.7661 25.0647 84.7661 24.1995C84.7661 23.3342 84.0647 22.6328 83.1995 22.6328C82.3342 22.6328 81.6328 23.3342 81.6328 24.1995C81.6328 25.0647 82.3342 25.7661 83.1995 25.7661Z" fill="#252525"/>
<path d="M45.6018 25.7661C46.4671 25.7661 47.1685 25.0647 47.1685 24.1995C47.1685 23.3342 46.4671 22.6328 45.6018 22.6328C44.7366 22.6328 44.0352 23.3342 44.0352 24.1995C44.0352 25.0647 44.7366 25.7661 45.6018 25.7661Z" fill="#252525"/>
<path d="M55.0003 25.7661C55.8655 25.7661 56.5669 25.0647 56.5669 24.1995C56.5669 23.3342 55.8655 22.6328 55.0003 22.6328C54.135 22.6328 53.4336 23.3342 53.4336 24.1995C53.4336 25.0647 54.135 25.7661 55.0003 25.7661Z" fill="#252525"/>
<path d="M64.3987 25.7661C65.2639 25.7661 65.9654 25.0647 65.9654 24.1995C65.9654 23.3342 65.2639 22.6328 64.3987 22.6328C63.5335 22.6328 62.832 23.3342 62.832 24.1995C62.832 25.0647 63.5335 25.7661 64.3987 25.7661Z" fill="#252525"/>
<path d="M92.6018 25.7661C93.4671 25.7661 94.1685 25.0647 94.1685 24.1995C94.1685 23.3342 93.4671 22.6328 92.6018 22.6328C91.7366 22.6328 91.0352 23.3342 91.0352 24.1995C91.0352 25.0647 91.7366 25.7661 92.6018 25.7661Z" fill="#252525"/>
<path d="M36.1995 25.7661C37.0647 25.7661 37.7661 25.0647 37.7661 24.1995C37.7661 23.3342 37.0647 22.6328 36.1995 22.6328C35.3342 22.6328 34.6328 23.3342 34.6328 24.1995C34.6328 25.0647 35.3342 25.7661 36.1995 25.7661Z" fill="#252525"/>
<path d="M17.3987 25.7661C18.2639 25.7661 18.9654 25.0647 18.9654 24.1995C18.9654 23.3342 18.2639 22.6328 17.3987 22.6328C16.5335 22.6328 15.832 23.3342 15.832 24.1995C15.832 25.0647 16.5335 25.7661 17.3987 25.7661Z" fill="#252525"/>
<path d="M26.801 25.7661C27.6663 25.7661 28.3677 25.0647 28.3677 24.1995C28.3677 23.3342 27.6663 22.6328 26.801 22.6328C25.9358 22.6328 25.2344 23.3342 25.2344 24.1995C25.2344 25.0647 25.9358 25.7661 26.801 25.7661Z" fill="#252525"/>
</svg>
