<svg width="1895" height="178" viewBox="0 0 1895 178" fill="none" xmlns="http://www.w3.org/2000/svg">
<path opacity="0.15" d="M0.0263672 91.0269C0.0263672 79.0688 2.2251 67.8052 6.62256 57.2358C11.0972 46.5894 17.1533 37.4473 24.791 29.8096C32.5059 22.0947 41.8022 16 52.6802 11.5254C63.5581 7.05078 75.1689 4.81348 87.5127 4.81348C117.061 4.81348 140.282 16.5015 157.178 39.8774L123.502 65.915C113.242 53.1084 101.052 46.7051 86.9341 46.7051C75.439 46.7051 65.9497 50.9868 58.4663 59.5503C51.0601 68.0366 47.3569 78.5288 47.3569 91.0269C47.3569 103.602 51.0601 114.133 58.4663 122.619C65.9497 131.105 75.439 135.349 86.9341 135.349C95.0347 135.349 101.901 133.69 107.533 130.373C113.242 126.978 118.874 121.925 124.428 115.213L159.029 139.862C153.397 147.577 147.418 154.057 141.092 159.303C134.843 164.549 126.936 168.87 117.369 172.264C107.88 175.659 97.272 177.356 85.5454 177.356C69.8843 177.356 55.5347 173.691 42.4966 166.362C29.4585 158.956 19.1206 148.657 11.4829 135.464C3.84521 122.195 0.0263672 107.382 0.0263672 91.0269ZM176.156 174V45.7793H221.288V71.5854C229.003 52.9927 241.732 43.6963 259.477 43.6963C260.248 43.6963 261.02 43.6963 261.791 43.6963V91.0269H257.972C233.516 91.0269 221.288 105.415 221.288 134.191V174H176.156ZM270.007 110.005C270.007 100.748 271.589 91.9912 274.752 83.7363C277.992 75.4814 282.428 68.3838 288.06 62.4434C293.692 56.4258 300.52 51.6812 308.543 48.2095C316.644 44.6606 325.361 42.8862 334.696 42.8862C345.42 42.8862 354.986 44.7764 363.396 48.5566C371.805 52.2598 378.594 57.3901 383.763 63.9478C388.932 70.4282 392.828 77.8345 395.451 86.1665C398.151 94.4985 399.501 103.486 399.501 113.13C399.501 117.219 399.424 120.305 399.27 122.388H313.403C315.178 129.254 318.457 134.5 323.24 138.126C328.1 141.675 334.079 143.449 341.177 143.449C351.206 143.449 360.695 139.09 369.645 130.373L394.525 150.971C380.87 168.407 362.277 177.125 338.747 177.125C325.4 177.125 313.519 174.347 303.104 168.792C292.689 163.238 284.55 155.369 278.687 145.185C272.9 135.001 270.007 123.275 270.007 110.005ZM312.709 99.3589H357.262C356.414 92.1841 354.022 86.5137 350.087 82.3477C346.153 78.1816 341.138 76.0986 335.043 76.0986C329.257 76.0986 324.358 78.2202 320.347 82.4634C316.412 86.6294 313.866 92.2612 312.709 99.3589ZM412.346 136.737C412.346 123.776 416.859 113.824 425.886 106.881C434.912 99.9375 447.14 96.4658 462.57 96.4658C474.065 96.4658 484.364 98.1245 493.468 101.442V99.3589C493.468 85.4722 484.904 78.5288 467.777 78.5288C456.051 78.5288 444.286 80.8818 432.482 85.5879L423.224 53.8799C439.502 47.2451 456.822 43.9277 475.184 43.9277C497.325 43.9277 513.604 49.1353 524.019 59.5503C533.199 68.4995 537.79 82.0776 537.79 100.285V174H493.236V160.692C483.438 171.493 470.863 176.893 455.511 176.893C442.858 176.893 432.482 173.383 424.381 166.362C416.358 159.265 412.346 149.39 412.346 136.737ZM455.742 134.654C455.742 138.975 457.208 142.408 460.14 144.954C463.071 147.422 466.89 148.657 471.596 148.657C478.231 148.657 483.593 146.728 487.682 142.871C491.848 139.013 493.931 133.921 493.931 127.595V121.578C488.685 119.417 482.821 118.337 476.341 118.337C469.86 118.337 464.807 119.803 461.181 122.735C457.555 125.667 455.742 129.64 455.742 134.654ZM553.296 82.0005V45.7793H568.456V13.2612H613.472V45.7793H643.329V82.0005H613.472V125.396C613.472 129.871 614.475 133.15 616.481 135.233C618.487 137.239 621.611 138.242 625.854 138.242C631.332 138.242 637.002 136.814 642.866 133.96V169.255C633.994 174.193 623.579 176.662 611.621 176.662C597.58 176.662 586.856 173.306 579.45 166.594C572.121 159.805 568.456 149.004 568.456 134.191V82.0005H553.296ZM662.654 34.207V0.994629H709.638V34.207H662.654ZM663.696 174V45.7793H708.712V174H663.696ZM723.987 45.7793H771.434L796.083 120.652L820.731 45.7793H867.483L816.218 174.926H775.252L723.987 45.7793ZM868.988 110.005C868.988 100.748 870.569 91.9912 873.732 83.7363C876.973 75.4814 881.409 68.3838 887.041 62.4434C892.672 56.4258 899.5 51.6812 907.523 48.2095C915.624 44.6606 924.342 42.8862 933.677 42.8862C944.4 42.8862 953.967 44.7764 962.376 48.5566C970.785 52.2598 977.574 57.3901 982.743 63.9478C987.912 70.4282 991.808 77.8345 994.431 86.1665C997.131 94.4985 998.481 103.486 998.481 113.13C998.481 117.219 998.404 120.305 998.25 122.388H912.384C914.158 129.254 917.437 134.5 922.22 138.126C927.081 141.675 933.06 143.449 940.157 143.449C950.187 143.449 959.676 139.09 968.625 130.373L993.505 150.971C979.85 168.407 961.257 177.125 937.727 177.125C924.38 177.125 912.5 174.347 902.084 168.792C891.669 163.238 883.53 155.369 877.667 145.185C871.881 135.001 868.988 123.275 868.988 110.005ZM911.689 99.3589H956.243C955.394 92.1841 953.002 86.5137 949.068 82.3477C945.133 78.1816 940.119 76.0986 934.024 76.0986C928.238 76.0986 923.339 78.2202 919.327 82.4634C915.393 86.6294 912.847 92.2612 911.689 99.3589ZM1086.08 174V8.05371H1134.69L1174.26 72.2798L1213.84 8.05371H1262.44V174H1216.62V78.7603L1174.26 143.681H1173.34L1131.1 79.2231V174H1086.08ZM1282.81 136.737C1282.81 123.776 1287.33 113.824 1296.35 106.881C1305.38 99.9375 1317.61 96.4658 1333.04 96.4658C1344.53 96.4658 1354.83 98.1245 1363.93 101.442V99.3589C1363.93 85.4722 1355.37 78.5288 1338.24 78.5288C1326.52 78.5288 1314.75 80.8818 1302.95 85.5879L1293.69 53.8799C1309.97 47.2451 1327.29 43.9277 1345.65 43.9277C1367.79 43.9277 1384.07 49.1353 1394.48 59.5503C1403.67 68.4995 1408.26 82.0776 1408.26 100.285V174H1363.7V160.692C1353.9 171.493 1341.33 176.893 1325.98 176.893C1313.32 176.893 1302.95 173.383 1294.85 166.362C1286.82 159.265 1282.81 149.39 1282.81 136.737ZM1326.21 134.654C1326.21 138.975 1327.67 142.408 1330.61 144.954C1333.54 147.422 1337.36 148.657 1342.06 148.657C1348.7 148.657 1354.06 146.728 1358.15 142.871C1362.31 139.013 1364.4 133.921 1364.4 127.595V121.578C1359.15 119.417 1353.29 118.337 1346.81 118.337C1340.33 118.337 1335.27 119.803 1331.65 122.735C1328.02 125.667 1326.21 129.64 1326.21 134.654ZM1431.05 174V45.7793H1476.18V71.5854C1483.9 52.9927 1496.63 43.6963 1514.37 43.6963C1515.14 43.6963 1515.92 43.6963 1516.69 43.6963V91.0269H1512.87C1488.41 91.0269 1476.18 105.415 1476.18 134.191V174H1431.05ZM1532.43 174V0.994629H1577.56V88.7124L1612.39 45.7793H1663.31L1618.75 97.1602L1664.47 174H1614.94L1589.13 130.373L1577.56 143.912V174H1532.43ZM1662.85 110.005C1662.85 100.748 1664.43 91.9912 1667.59 83.7363C1670.83 75.4814 1675.27 68.3838 1680.9 62.4434C1686.53 56.4258 1693.36 51.6812 1701.38 48.2095C1709.48 44.6606 1718.2 42.8862 1727.53 42.8862C1738.26 42.8862 1747.82 44.7764 1756.23 48.5566C1764.64 52.2598 1771.43 57.3901 1776.6 63.9478C1781.77 70.4282 1785.67 77.8345 1788.29 86.1665C1790.99 94.4985 1792.34 103.486 1792.34 113.13C1792.34 117.219 1792.26 120.305 1792.11 122.388H1706.24C1708.02 129.254 1711.29 134.5 1716.08 138.126C1720.94 141.675 1726.92 143.449 1734.01 143.449C1744.04 143.449 1753.53 139.09 1762.48 130.373L1787.36 150.971C1773.71 168.407 1755.11 177.125 1731.58 177.125C1718.24 177.125 1706.36 174.347 1695.94 168.792C1685.53 163.238 1677.39 155.369 1671.52 145.185C1665.74 135.001 1662.85 123.275 1662.85 110.005ZM1705.55 99.3589H1750.1C1749.25 92.1841 1746.86 86.5137 1742.93 82.3477C1738.99 78.1816 1733.98 76.0986 1727.88 76.0986C1722.1 76.0986 1717.2 78.2202 1713.18 82.4634C1709.25 86.6294 1706.7 92.2612 1705.55 99.3589ZM1804.26 82.0005V45.7793H1819.42V13.2612H1864.43V45.7793H1894.29V82.0005H1864.43V125.396C1864.43 129.871 1865.44 133.15 1867.44 135.233C1869.45 137.239 1872.57 138.242 1876.82 138.242C1882.29 138.242 1887.96 136.814 1893.83 133.96V169.255C1884.96 174.193 1874.54 176.662 1862.58 176.662C1848.54 176.662 1837.82 173.306 1830.41 166.594C1823.08 159.805 1819.42 149.004 1819.42 134.191V82.0005H1804.26Z" fill="white"/>
</svg>
