<svg width="528" height="365" viewBox="0 0 528 365" fill="none" xmlns="http://www.w3.org/2000/svg">
<g clip-path="url(#clip0)">
<path opacity="0.1" d="M4.05532 192.155C13.388 176.888 34.493 179.549 49.4595 187.519C64.4261 195.488 79.3602 207.385 95.8313 205.099C109.719 203.171 121.107 191.042 127.26 177.05C133.412 163.058 135.217 147.281 136.949 131.828C139.125 112.414 141.299 92.9882 143.471 73.5498C144.268 66.4424 145.207 58.941 149.198 53.3172C154.471 45.8991 164.137 43.6181 172.405 45.8481C180.673 48.0782 187.723 54.059 193.755 60.7306C213.078 82.0945 224.026 110.974 240.918 134.749C244.358 139.589 248.242 144.374 253.38 146.71C260.787 150.072 269.291 147.693 276.527 143.952C300.136 131.763 315.996 106.889 331.583 83.6801C339.166 72.4001 348.411 60.3365 361.026 59.1079C374.298 57.7865 385.82 69.1129 393.621 81.107C418.656 119.699 424.021 172.386 454.264 206.045C458.019 210.218 462.162 214.075 466.935 216.667C468.509 217.519 470.15 218.24 471.842 218.823C498.229 227.97 507.025 264.689 487.507 286.461C487.086 286.925 486.656 287.389 486.22 287.852C483.323 290.917 480.04 293.815 476.124 294.728C472.481 295.572 468.717 294.598 465.106 293.546C442.025 286.8 419.221 276.489 395.357 276.99C372.136 277.453 350.11 288.195 327.148 292.062C311.71 294.663 296.002 294.144 280.392 293.583C228.402 291.71 176.423 289.531 124.454 287.046C98.6598 285.859 72.856 284.727 47.0662 283.406C27.1972 282.372 14.5407 280.096 12.2353 257.003C10.2169 236.779 -7.91143 211.739 4.05532 192.155Z" fill="#F82462"/>
<path d="M365.669 365C434.697 365 490.655 357.168 490.655 347.507C490.655 337.846 434.697 330.015 365.669 330.015C296.641 330.015 240.682 337.846 240.682 347.507C240.682 357.168 296.641 365 365.669 365Z" fill="#30374E"/>
<path d="M68.8563 272.043C68.8563 272.043 74.967 270.652 78.9713 274.764C78.9713 274.764 76.3974 277.082 70.3423 274.514L68.8563 272.043Z" fill="#F82462"/>
<path d="M68.1804 271.982C68.1804 271.982 64.5603 277.119 66.8565 282.391C66.8565 282.391 69.9859 280.884 69.8979 274.301L68.1804 271.982Z" fill="#F82462"/>
<path d="M64.1066 264.24C64.1066 264.24 66.2777 259.534 76.6057 265.223C76.6057 265.223 75.4947 268.366 71.1061 268.412C66.7175 268.459 65.4028 266.553 64.1066 264.24Z" fill="#F82462"/>
<path d="M63.4493 263.952C63.4493 263.952 58.2783 263.711 58.57 275.506C58.57 275.506 61.8707 275.97 63.9307 272.084C65.9908 268.199 64.8983 266.192 63.4493 263.952Z" fill="#F82462"/>
<path d="M59.8477 254.773C59.8477 254.773 62.1623 246.576 73.0273 251.583C73.0273 251.583 71.1293 259.089 61.0837 257.443L59.8477 254.773Z" fill="#F82462"/>
<path d="M55.8156 243.024C55.8156 243.024 60.7134 234.568 70.8562 241.429C70.8562 241.429 67.9906 249.251 56.834 245.857L55.8156 243.024Z" fill="#F82462"/>
<path d="M53.8989 231.712C53.8989 231.712 59.7457 223.853 69.8052 230.641C69.8052 230.641 64.2223 237.567 54.0239 233.608L53.8989 231.712Z" fill="#F82462"/>
<path d="M52.1676 220.714C52.1676 220.714 58.0746 212.527 67.7174 219.254C67.7174 219.254 60.9216 226.593 52.288 222.532L52.1676 220.714Z" fill="#F82462"/>
<path d="M52.0844 210.858C52.0844 210.858 58.1719 200.412 67.199 206.606C67.199 206.606 60.5236 215.679 52.214 212.754L52.0844 210.858Z" fill="#F82462"/>
<path d="M52.9037 199.276C52.9037 199.276 59.3847 188.891 68.2221 195.948C68.2221 195.948 60.3059 205.104 53.0055 201.117L52.9037 199.276Z" fill="#F82462"/>
<path d="M54.5842 188.863C54.5842 188.863 62.454 178.983 70.1155 182.201C70.1155 182.201 61.9309 192.679 54.3759 191.362L54.5842 188.863Z" fill="#F82462"/>
<path d="M56.8988 178.942C56.8988 178.942 65.9444 166.887 71.8838 170.309C71.8838 170.309 65.2593 179.623 56.3386 181.135L56.8988 178.942Z" fill="#F82462"/>
<path d="M60.4263 167.379C60.4263 167.379 68.3748 157.494 74.7771 159.386C74.7771 159.386 68.0878 169.535 59.4541 170.365L60.4263 167.379Z" fill="#F82462"/>
<path d="M63.5975 156.572C63.5975 156.572 72.4765 147.021 76.703 148.31C76.703 148.31 70.5229 158.677 63.3151 158.579L63.5975 156.572Z" fill="#F82462"/>
<path d="M66.7314 146.576C66.7314 146.576 74.18 135.379 78.6843 135.912C78.6843 135.912 74.3744 145.737 66.8055 147.656L66.7314 146.576Z" fill="#F82462"/>
<path d="M69.9673 133.172C69.9673 133.172 76.6289 124.521 80.5267 124.28C80.5267 124.28 75.5687 135.565 69.8469 135.871L69.9673 133.172Z" fill="#F82462"/>
<path d="M71.819 124.266L77.6427 106.792C77.6427 106.792 79.0314 122.138 71.1616 127.479L71.819 124.266Z" fill="#F82462"/>
<path d="M73.3884 105.322C73.3884 105.322 73.5921 91.0472 72.7727 89.9437C72.7727 89.9437 78.5454 101.414 73.7634 111.6L73.3884 105.322Z" fill="#F82462"/>
<path d="M59.5514 254.601C59.5514 254.601 52.0241 250.605 48.0846 261.894C48.0846 261.894 54.7971 265.733 60.5837 257.346L59.5514 254.601Z" fill="#F82462"/>
<path d="M55.5517 242.584C55.5517 242.584 46.4227 239.13 42.8905 250.874C42.8905 250.874 50.052 255.116 56.5516 245.421L55.5517 242.584Z" fill="#F82462"/>
<path d="M53.5332 232.421C53.5332 232.421 46.6865 225.416 37.627 233.501C37.627 233.501 44.0802 239.617 53.6582 234.331L53.5332 232.421Z" fill="#F82462"/>
<path d="M51.9501 220.733C51.9501 220.733 45.0062 213.403 36.3447 221.364C36.3447 221.364 44.0571 227.729 52.0844 222.546L51.9501 220.733Z" fill="#F82462"/>
<path d="M52.1029 211.136C52.1029 211.136 46.844 200.255 37.3678 205.725C37.3678 205.725 43.3211 215.29 51.8297 213.023L52.1029 211.136Z" fill="#F82462"/>
<path d="M53.4453 199.193C53.4453 199.193 48.2003 188.112 38.6038 194.061C38.6038 194.061 45.3903 204.08 53.112 200.983L53.4453 199.193Z" fill="#F82462"/>
<path d="M55.5424 188.854C55.5424 188.854 52.9315 176.498 44.6404 175.933C44.6404 175.933 47.2698 188.975 54.598 191.177L55.5424 188.854Z" fill="#F82462"/>
<path d="M57.1117 178.951C57.1117 178.951 55.4128 163.971 48.566 163.902C48.566 163.902 49.5613 175.293 56.4868 181.125L57.1117 178.951Z" fill="#F82462"/>
<path d="M61.1068 166.901C61.1068 166.901 58.232 154.541 51.6306 153.456C51.6306 153.456 53.2509 165.51 60.6716 170.017L61.1068 166.901Z" fill="#F82462"/>
<path d="M64.3751 156.609C64.3751 156.609 63.4493 143.595 59.3292 141.949C59.3292 141.949 57.658 153.901 63.3335 158.352L64.3751 156.609Z" fill="#F82462"/>
<path d="M67.0277 146.414C67.0277 146.414 65.5695 133.038 61.329 131.429C61.329 131.429 60.6346 142.134 66.4676 147.332L67.0277 146.414Z" fill="#F82462"/>
<path d="M70.6155 134.202C70.6155 134.202 69.8563 123.302 66.75 120.937C66.75 120.937 64.6298 133.08 69.2267 136.497L70.6155 134.202Z" fill="#F82462"/>
<path d="M71.4209 123.751L67.3472 105.79C67.3472 105.79 64.4631 120.923 71.7774 127.015L71.4209 123.751Z" fill="#F82462"/>
<path d="M70.7867 105.67C70.7867 105.67 62.6253 93.9495 62.6901 92.5864C62.6901 92.5864 64.3289 105.327 73.9902 111.081L70.7867 105.67Z" fill="#F82462"/>
<path d="M71.421 102.012C71.421 102.012 63.3382 85.1405 60.1116 83.9305C60.1116 83.9305 70.3377 88.3025 71.9672 101.456L71.421 102.012Z" fill="#F82462"/>
<path d="M69.8191 135.959L69.3562 135.843C73.9161 116.371 74.5595 104.094 71.1616 101.275L71.4764 100.895C75.0595 103.88 74.4947 116.009 69.8191 135.959Z" fill="#444053"/>
<path d="M56.7275 181.7L56.01 181.501C56.5146 179.711 57.0609 177.889 57.6442 176.095C62.7364 160.461 66.9676 145.959 69.5646 134.86L70.1525 134.512C67.5509 145.639 63.4354 160.675 58.3524 176.322C57.7738 178.112 57.2275 179.92 56.7275 181.7Z" fill="#444053"/>
<path d="M78.5084 285.738C78.4066 285.641 68.2221 275.599 60.3986 257.809C55.8146 247.397 52.9069 236.322 51.7835 224.998C50.3947 210.844 52.2927 194.802 56.4128 180.073L57.0053 180.685C47.7467 213.746 54.1398 241.114 61.2782 257.369C69.023 274.987 79.0917 284.932 79.1936 285.029L78.5084 285.738Z" fill="#444053"/>
<path d="M89.7206 232.787C89.7206 232.787 93.424 231.939 95.8405 234.433C95.8405 234.433 94.2805 235.824 90.6233 234.28L89.7206 232.787Z" fill="#F82462"/>
<path d="M89.3178 232.755C89.3178 232.755 87.1328 235.861 88.5216 239.046C88.5216 239.046 90.4103 238.119 90.3733 234.155L89.3178 232.755Z" fill="#F82462"/>
<path d="M86.855 228.068C86.855 228.068 88.1651 225.226 94.4008 228.666C94.4008 228.666 93.7295 230.562 91.0769 230.59C88.4243 230.618 87.6466 229.468 86.855 228.068Z" fill="#F82462"/>
<path d="M86.4569 227.896C86.4569 227.896 83.3275 227.752 83.5034 234.878C83.5034 234.878 85.4986 235.156 86.7439 232.81C87.9892 230.465 87.3318 229.25 86.4569 227.896Z" fill="#F82462"/>
<path d="M84.2672 222.346C84.2672 222.346 85.6884 217.39 92.2435 220.408C92.2435 220.408 91.1001 224.947 85.0264 223.951L84.2672 222.346Z" fill="#F82462"/>
<path d="M81.8414 215.244C81.8414 215.244 84.7996 210.144 90.9334 214.279C90.9334 214.279 89.1974 219.008 82.4571 216.954L81.8414 215.244Z" fill="#F82462"/>
<path d="M80.6796 208.405C80.6796 208.405 84.2164 203.653 90.2946 207.756C90.2946 207.756 86.9245 211.929 80.7583 209.55L80.6796 208.405Z" fill="#F82462"/>
<path d="M79.6333 201.757C79.6333 201.757 83.2071 196.805 89.0354 200.876C89.0354 200.876 84.9292 205.313 79.7074 202.856L79.6333 201.757Z" fill="#F82462"/>
<path d="M79.587 195.795C79.587 195.795 83.2905 189.485 88.7206 193.226C88.7206 193.226 84.6839 198.711 79.6611 196.935L79.587 195.795Z" fill="#F82462"/>
<path d="M80.0685 188.798C80.0685 188.798 83.9988 182.516 89.3271 186.768C89.3271 186.768 84.5404 192.303 80.124 189.893L80.0685 188.798Z" fill="#F82462"/>
<path d="M81.0962 182.502C81.0962 182.502 85.8505 176.531 90.4844 178.478C90.4844 178.478 85.5357 184.811 80.9805 184.014L81.0962 182.502Z" fill="#F82462"/>
<path d="M82.4942 176.503C82.4942 176.503 87.9614 169.219 91.5537 171.283C91.5537 171.283 87.5494 176.916 82.1562 177.829L82.4942 176.503Z" fill="#F82462"/>
<path d="M84.6284 169.521C84.6284 169.521 89.4336 163.545 93.3129 164.69C93.3129 164.69 89.2715 170.824 84.0543 171.324L84.6284 169.521Z" fill="#F82462"/>
<path d="M86.5448 162.979C86.5448 162.979 91.9102 157.207 94.4656 157.986C94.4656 157.986 90.7343 164.249 86.3735 164.194L86.5448 162.979Z" fill="#F82462"/>
<path d="M88.4382 156.938C88.4382 156.938 92.9426 150.169 95.6646 150.484C95.6646 150.484 93.0629 156.423 88.4845 157.587L88.4382 156.938Z" fill="#F82462"/>
<path d="M90.4011 148.834C90.4011 148.834 94.4286 143.604 96.7849 143.456C96.7849 143.456 93.7851 150.28 90.327 150.452L90.4011 148.834Z" fill="#F82462"/>
<path d="M91.5167 143.446L95.0304 132.894C95.0304 132.894 95.8636 142.167 91.1001 145.412L91.5167 143.446Z" fill="#F82462"/>
<path d="M92.4657 131.995C92.4657 131.995 92.586 123.367 92.0907 122.699C92.0907 122.699 95.5812 129.63 92.6879 135.792L92.4657 131.995Z" fill="#F82462"/>
<path d="M84.0959 222.244C84.0959 222.244 79.55 219.824 77.152 226.649C77.152 226.649 81.2119 228.967 84.7116 223.904L84.0959 222.244Z" fill="#F82462"/>
<path d="M81.6841 214.956C81.6841 214.956 76.1613 212.87 74.0272 219.968C74.0272 219.968 78.3556 222.532 82.2859 216.676L81.6841 214.956Z" fill="#F82462"/>
<path d="M80.4573 208.832C80.4573 208.832 76.3234 204.599 70.8423 209.481C70.8423 209.481 74.7448 213.19 80.536 209.981L80.4573 208.832Z" fill="#F82462"/>
<path d="M79.5037 201.766C79.5037 201.766 75.305 197.338 70.0692 202.151C70.0692 202.151 74.7309 205.994 79.5778 202.865L79.5037 201.766Z" fill="#F82462"/>
<path d="M79.5962 195.948C79.5962 195.948 76.4159 189.369 70.6848 192.674C70.6848 192.674 74.2864 198.456 79.4296 197.088L79.5962 195.948Z" fill="#F82462"/>
<path d="M80.4064 188.738C80.4064 188.738 77.2353 182.039 71.4209 185.636C71.4209 185.636 75.5225 191.696 80.1934 189.809L80.4064 188.738Z" fill="#F82462"/>
<path d="M81.6749 182.502C81.6749 182.502 80.0963 175.029 75.0828 174.69C75.0828 174.69 76.6706 182.572 81.1009 183.902L81.6749 182.502Z" fill="#F82462"/>
<path d="M82.6238 176.508C82.6238 176.508 81.6053 167.453 77.439 167.407C77.439 167.407 78.0408 174.296 82.2257 177.824L82.6238 176.508Z" fill="#F82462"/>
<path d="M85.0357 169.224C85.0357 169.224 83.2997 161.75 79.3092 161.092C79.3092 161.092 80.2906 168.376 84.7764 171.102L85.0357 169.224Z" fill="#F82462"/>
<path d="M87.0124 163.002C87.0124 163.002 86.443 155.12 83.9663 154.138C83.9663 154.138 82.9525 161.366 86.3828 164.055L87.0124 163.002Z" fill="#F82462"/>
<path d="M88.6188 156.836C88.6188 156.836 87.7392 148.75 85.1746 147.777C85.1746 147.777 84.7533 154.267 88.2808 157.392L88.6188 156.836Z" fill="#F82462"/>
<path d="M90.7852 149.455C90.7852 149.455 90.3223 142.867 88.4706 141.434C88.4706 141.434 87.1883 148.778 89.9659 150.841L90.7852 149.455Z" fill="#F82462"/>
<path d="M91.2853 143.136L88.8225 132.278C88.8225 132.278 87.0773 141.43 91.4982 145.111L91.2853 143.136Z" fill="#F82462"/>
<path d="M90.8918 132.208C90.8918 132.208 85.9616 125.128 85.9986 124.299C85.9986 124.299 86.9847 131.999 92.8269 135.477L90.8918 132.208Z" fill="#F82462"/>
<path d="M91.2622 129.992C91.2622 129.992 86.3736 119.792 84.4247 119.073C84.4247 119.073 90.6094 121.716 91.5908 129.672L91.2622 129.992Z" fill="#F82462"/>
<path d="M90.3038 150.512L90.0122 150.442C92.7898 138.671 93.1601 131.248 91.1047 129.547L91.2945 129.315C93.4749 131.123 93.1324 138.458 90.3038 150.512Z" fill="#444053"/>
<path d="M82.3923 178.172L81.9572 178.047C82.2627 176.967 82.596 175.868 82.9478 174.801C86.0171 165.348 88.5817 156.581 90.151 149.872L90.5075 149.659C88.9335 156.382 86.4476 165.478 83.3737 174.941C83.0219 176.011 82.6932 177.092 82.3923 178.172Z" fill="#444053"/>
<path d="M95.5582 241.068C95.498 241.007 89.341 234.939 84.6099 224.182C81.8407 217.887 80.083 211.193 79.4019 204.348C78.5547 195.79 79.712 186.091 82.2072 177.184L82.5637 177.555C76.9669 197.542 80.8323 214.089 85.1468 223.918C89.8317 234.582 95.9146 240.576 95.9794 240.637L95.5582 241.068Z" fill="#444053"/>
<path d="M109.483 264.249C108.295 264.46 107.132 264.793 106.011 265.241C81.0406 275.228 81.4572 340.599 81.4572 340.599H74.1059C74.1059 340.599 71.7913 312.545 61.704 272.52C52.6167 236.51 89.8872 204.237 97.4561 198.117C98.3079 197.436 98.7801 197.074 98.7801 197.074C136.319 210.89 109.483 264.249 109.483 264.249Z" fill="#AFC0E0"/>
<path opacity="0.2" d="M101.511 198.21C100.646 197.811 99.7523 197.431 98.8033 197.083C98.8033 197.083 98.3404 197.445 97.4793 198.127C89.9104 204.246 52.6399 236.52 61.7272 272.529C71.8144 312.554 74.106 340.599 74.106 340.599H78.2399C78.2399 340.599 75.9484 312.545 65.838 272.52C56.7877 236.677 93.6972 204.525 101.511 198.21Z" fill="white"/>
<path d="M233.335 272.529C223.225 312.554 220.947 340.599 220.947 340.599H213.582C213.582 340.599 214.045 272.279 187.32 264.652C186.741 264.478 186.152 264.341 185.556 264.24C185.556 264.24 158.706 210.881 196.259 197.074C196.259 197.074 196.639 197.357 197.324 197.909C204.282 203.486 242.525 236.102 233.335 272.529Z" fill="#AFC0E0"/>
<path opacity="0.1" d="M109.483 264.249C108.295 264.46 107.132 264.793 106.011 265.241C101.497 243.114 98.637 220.68 97.4562 198.127C98.308 197.445 98.7802 197.083 98.7802 197.083C136.319 210.89 109.483 264.249 109.483 264.249Z" fill="black"/>
<path opacity="0.1" d="M197.338 197.918C195.807 220.406 192.462 242.733 187.334 264.68C186.755 264.506 186.166 264.369 185.57 264.268C185.57 264.268 158.72 210.909 196.273 197.102C196.259 197.083 196.639 197.366 197.338 197.918Z" fill="black"/>
<path d="M183.594 274.365C181.001 284.609 177.963 295.117 174.478 305.892C174.478 305.892 157.943 323.144 118.001 305.892C118.001 305.892 114.01 294.626 109.622 275.474C99.9605 233.362 88.3734 153.113 113.061 70.6846C120.413 45.905 130.863 22.1553 144.161 0C144.161 0 165.252 24.2523 180.733 70.6707C196.213 117.089 206.064 185.683 183.594 274.365Z" fill="#E3E8F4"/>
<path d="M147.517 169.331C165.831 169.331 180.677 154.462 180.677 136.121C180.677 117.78 165.831 102.911 147.517 102.911C129.204 102.911 114.358 117.78 114.358 136.121C114.358 154.462 129.204 169.331 147.517 169.331Z" fill="#AFC0E0"/>
<path d="M171.034 136.14C171.034 140.6 169.77 144.968 167.388 148.736C165.006 152.505 161.604 155.518 157.579 157.427C153.554 159.335 149.071 160.059 144.651 159.516C140.231 158.972 136.055 157.183 132.611 154.355C130.93 152.969 129.447 151.357 128.204 149.566C127.646 148.766 127.139 147.931 126.686 147.067C124.922 143.696 124.002 139.946 124.005 136.14C124.005 135.949 124.005 135.764 124.005 135.579C124.126 130.542 125.854 125.677 128.936 121.695C132.019 117.714 136.293 114.826 141.134 113.454C142.982 112.944 144.884 112.655 146.8 112.592H147.503C150.593 112.59 153.652 113.198 156.506 114.38C159.361 115.563 161.955 117.297 164.14 119.484C166.325 121.67 168.058 124.267 169.241 127.125C170.424 129.983 171.034 133.046 171.034 136.14Z" fill="#F82462"/>
<path d="M180.728 70.6707C143.106 88.7105 113.038 70.6707 113.038 70.6707C120.399 45.8948 130.856 22.1498 144.161 0C144.161 0 165.252 24.2523 180.728 70.6707Z" fill="#AFC0E0"/>
<path d="M183.594 274.366C181.834 281.301 179.875 288.356 177.714 295.53C176.69 298.952 175.61 302.401 174.474 305.878C174.474 305.878 157.938 323.13 117.996 305.878C117.996 305.878 116.7 302.22 114.756 295.53C113.302 290.477 111.492 283.703 109.603 275.46C109.603 275.46 124.473 281.816 145.578 281.816C158.616 281.861 171.534 279.329 183.594 274.366Z" fill="#AFC0E0"/>
<path d="M177.714 295.53C176.69 298.952 175.61 302.401 174.474 305.878C174.474 305.878 157.938 323.13 117.996 305.878C117.996 305.878 116.7 302.22 114.756 295.53C114.751 295.53 155.461 307.26 177.714 295.53Z" fill="#E3E8F4"/>
<path opacity="0.2" d="M141.147 113.422L141.097 113.459L124.014 135.546C124.014 135.732 124.014 135.917 124.014 136.107C124.011 139.913 124.931 143.663 126.695 147.035L146.823 112.559L141.147 113.422Z" fill="white"/>
<path opacity="0.2" d="M146.601 133.358L132.611 154.337C130.93 152.95 129.447 151.339 128.204 149.548L144.869 131.633L146.601 133.358Z" fill="white"/>
<path opacity="0.2" d="M126.936 305.883C126.936 305.883 122.945 294.612 118.557 275.464C108.895 233.348 97.308 153.099 121.996 70.6707C128.632 48.3675 137.772 26.8896 149.24 6.64842C146.106 2.24859 144.147 0.00463867 144.147 0.00463867C130.847 22.1535 120.394 45.897 113.038 70.6707C88.3503 153.099 99.9375 233.348 109.599 275.464C113.987 294.612 117.978 305.883 117.978 305.883C133.759 312.694 145.883 314.121 154.781 313.361C147.18 312.782 137.949 310.635 126.936 305.883Z" fill="white"/>
<path d="M433.757 337.952C433.757 337.952 455.394 310.987 453.959 283.981C453.285 272.66 456.297 261.425 462.542 251.963C465.547 247.487 468.956 243.297 472.726 239.445" stroke="#535461" stroke-width="2" stroke-miterlimit="10"/>
<path d="M471.907 222.439C470.361 226.199 472.675 239.909 472.675 239.909C472.675 239.909 483.957 231.804 485.503 228.044C486.245 226.239 486.241 224.212 485.491 222.409C484.741 220.607 483.306 219.177 481.503 218.433C479.7 217.69 477.676 217.695 475.877 218.446C474.077 219.197 472.649 220.633 471.907 222.439Z" fill="#F82462"/>
<path d="M452.103 238.638C452.848 242.635 462.231 252.881 462.231 252.881C462.231 252.881 467.324 239.941 466.56 235.94C466.203 234.02 465.098 232.321 463.49 231.216C461.882 230.111 459.901 229.692 457.984 230.05C456.067 230.408 454.37 231.513 453.267 233.124C452.164 234.735 451.745 236.718 452.103 238.638Z" fill="#F82462"/>
<path d="M437.965 274.44C440.622 277.514 453.889 281.617 453.889 281.617C453.889 281.617 451.741 267.879 449.084 264.801C447.795 263.373 445.998 262.509 444.079 262.392C442.161 262.275 440.273 262.916 438.82 264.176C437.367 265.436 436.465 267.217 436.307 269.135C436.149 271.053 436.747 272.958 437.974 274.44H437.965Z" fill="#F82462"/>
<path d="M433.358 303.94C435.456 307.422 447.839 313.709 447.839 313.709C447.839 313.709 448.043 299.8 445.946 296.323C445.446 295.495 444.789 294.774 444.011 294.201C443.233 293.627 442.351 293.213 441.413 292.982C440.476 292.75 439.502 292.706 438.547 292.851C437.592 292.996 436.676 293.328 435.849 293.829C435.023 294.329 434.303 294.987 433.73 295.766C433.158 296.545 432.744 297.429 432.513 298.368C432.281 299.307 432.237 300.282 432.382 301.238C432.527 302.194 432.859 303.113 433.358 303.94Z" fill="#F82462"/>
<path d="M476.207 259.497C472.439 261.004 458.773 258.546 458.773 258.546C458.773 258.546 466.976 247.331 470.749 245.82C472.56 245.095 474.585 245.12 476.377 245.89C478.169 246.66 479.583 248.112 480.307 249.925C481.03 251.739 481.005 253.766 480.236 255.561C479.468 257.356 478.018 258.772 476.207 259.497Z" fill="#F82462"/>
<path d="M470.384 293.931C466.338 294.241 454.033 287.801 454.033 287.801C454.033 287.801 465.208 279.553 469.259 279.243C471.18 279.136 473.067 279.787 474.514 281.056C475.962 282.326 476.855 284.113 477.002 286.035C477.149 287.957 476.539 289.859 475.302 291.335C474.064 292.811 472.299 293.743 470.384 293.931Z" fill="#F82462"/>
<path d="M460.139 326.616C456.199 327.608 442.987 323.343 442.987 323.343C442.987 323.343 452.612 313.324 456.551 312.337C457.488 312.101 458.461 312.052 459.416 312.193C460.371 312.333 461.289 312.661 462.118 313.157C462.946 313.654 463.669 314.308 464.245 315.084C464.821 315.86 465.239 316.742 465.474 317.68C465.71 318.617 465.759 319.592 465.618 320.549C465.477 321.505 465.15 322.425 464.655 323.255C464.159 324.085 463.505 324.809 462.731 325.385C461.956 325.962 461.075 326.38 460.139 326.616Z" fill="#F82462"/>
<path opacity="0.25" d="M471.907 222.439C470.361 226.199 472.675 239.909 472.675 239.909C472.675 239.909 483.957 231.804 485.503 228.044C486.245 226.239 486.241 224.212 485.491 222.409C484.741 220.607 483.306 219.177 481.503 218.433C479.7 217.69 477.676 217.695 475.877 218.446C474.077 219.197 472.649 220.633 471.907 222.439Z" fill="black"/>
<path opacity="0.25" d="M452.103 238.638C452.848 242.635 462.231 252.881 462.231 252.881C462.231 252.881 467.324 239.941 466.56 235.94C466.203 234.02 465.098 232.321 463.49 231.216C461.882 230.111 459.901 229.692 457.984 230.05C456.067 230.408 454.37 231.513 453.267 233.124C452.164 234.735 451.745 236.718 452.103 238.638Z" fill="black"/>
<path opacity="0.25" d="M437.965 274.44C440.622 277.514 453.889 281.617 453.889 281.617C453.889 281.617 451.741 267.879 449.084 264.801C447.795 263.373 445.998 262.509 444.079 262.392C442.161 262.275 440.273 262.916 438.82 264.176C437.367 265.436 436.465 267.217 436.307 269.135C436.149 271.053 436.747 272.958 437.974 274.44H437.965Z" fill="black"/>
<path opacity="0.25" d="M433.358 303.94C435.456 307.422 447.839 313.709 447.839 313.709C447.839 313.709 448.043 299.8 445.946 296.323C445.446 295.495 444.789 294.774 444.011 294.201C443.233 293.627 442.351 293.213 441.413 292.982C440.476 292.75 439.502 292.706 438.547 292.851C437.592 292.996 436.676 293.328 435.849 293.829C435.023 294.329 434.303 294.987 433.73 295.766C433.158 296.545 432.744 297.429 432.513 298.368C432.281 299.307 432.237 300.282 432.382 301.238C432.527 302.194 432.859 303.113 433.358 303.94Z" fill="black"/>
<path opacity="0.25" d="M476.207 259.497C472.439 261.004 458.773 258.546 458.773 258.546C458.773 258.546 466.976 247.331 470.749 245.82C472.56 245.095 474.585 245.12 476.377 245.89C478.169 246.66 479.583 248.112 480.307 249.925C481.03 251.739 481.005 253.766 480.236 255.561C479.468 257.356 478.018 258.772 476.207 259.497Z" fill="black"/>
<path opacity="0.25" d="M470.384 293.931C466.338 294.241 454.033 287.801 454.033 287.801C454.033 287.801 465.208 279.553 469.259 279.243C471.18 279.136 473.067 279.787 474.514 281.056C475.962 282.326 476.855 284.113 477.002 286.035C477.149 287.957 476.539 289.859 475.302 291.335C474.064 292.811 472.299 293.743 470.384 293.931Z" fill="black"/>
<path opacity="0.25" d="M460.139 326.616C456.199 327.608 442.987 323.343 442.987 323.343C442.987 323.343 452.612 313.324 456.551 312.337C457.488 312.101 458.461 312.052 459.416 312.193C460.371 312.333 461.289 312.661 462.118 313.157C462.946 313.654 463.669 314.308 464.245 315.084C464.821 315.86 465.239 316.742 465.474 317.68C465.71 318.617 465.759 319.592 465.618 320.549C465.477 321.505 465.15 322.425 464.655 323.255C464.159 324.085 463.505 324.809 462.731 325.385C461.956 325.962 461.075 326.38 460.139 326.616Z" fill="black"/>
<path d="M433.951 336.825C433.951 336.825 464.643 320.951 474.258 295.683C478.222 285.057 485.523 276.006 495.062 269.891C499.613 267.021 504.417 264.576 509.413 262.585" stroke="#535461" stroke-width="2" stroke-miterlimit="10"/>
<path d="M515.566 246.696C512.631 249.51 509.2 262.983 509.2 262.983C509.2 262.983 522.792 260.151 525.727 257.341C527.139 255.992 527.958 254.136 528.003 252.181C528.049 250.227 527.318 248.335 525.97 246.921C524.623 245.507 522.769 244.687 520.818 244.641C518.867 244.596 516.978 245.328 515.566 246.678V246.696Z" fill="#F82462"/>
<path d="M490.91 253.47C489.984 257.429 494.405 270.624 494.405 270.624C494.405 270.624 504.261 260.855 505.214 256.873C505.658 254.976 505.332 252.98 504.308 251.323C503.285 249.666 501.648 248.483 499.755 248.033C497.863 247.583 495.869 247.902 494.211 248.921C492.553 249.94 491.366 251.576 490.91 253.47Z" fill="#F82462"/>
<path d="M463.495 280.462C464.68 284.352 475.152 293.485 475.152 293.485C475.152 293.485 478.749 280.04 477.564 276.169C477.282 275.244 476.822 274.383 476.208 273.636C475.595 272.89 474.84 272.271 473.988 271.816C473.136 271.361 472.202 271.079 471.241 270.985C470.28 270.892 469.31 270.989 468.386 271.271C467.462 271.553 466.603 272.014 465.857 272.628C465.112 273.243 464.494 273.998 464.04 274.852C463.586 275.705 463.304 276.64 463.211 277.603C463.117 278.565 463.214 279.537 463.495 280.462Z" fill="#F82462"/>
<path d="M447.348 305.563C447.857 309.601 456.635 320.371 456.635 320.371C456.635 320.371 462.449 307.747 461.935 303.708C461.69 301.771 460.686 300.011 459.144 298.815C457.603 297.619 455.65 297.085 453.716 297.331C451.781 297.577 450.024 298.583 448.83 300.126C447.636 301.67 447.103 303.626 447.348 305.563Z" fill="#F82462"/>
<path d="M504.506 282.321C500.446 282.173 488.952 274.379 488.952 274.379C488.952 274.379 500.988 267.457 505.048 267.606C506.013 267.641 506.961 267.867 507.839 268.27C508.717 268.672 509.507 269.244 510.164 269.953C510.821 270.661 511.332 271.492 511.668 272.398C512.005 273.305 512.159 274.269 512.124 275.235C512.088 276.201 511.863 277.151 511.461 278.03C511.059 278.909 510.488 279.7 509.781 280.358C509.073 281.016 508.243 281.528 507.338 281.865C506.434 282.202 505.471 282.357 504.506 282.321Z" fill="#F82462"/>
<path d="M485.248 311.437C481.42 310.079 472.777 299.197 472.777 299.197C472.777 299.197 486.336 296.198 490.16 297.556C491.07 297.879 491.908 298.378 492.625 299.026C493.343 299.673 493.926 300.455 494.341 301.328C494.757 302.201 494.996 303.147 495.047 304.113C495.097 305.079 494.957 306.045 494.634 306.956C494.312 307.868 493.813 308.706 493.167 309.425C492.521 310.143 491.74 310.727 490.868 311.143C489.996 311.56 489.052 311.8 488.087 311.85C487.123 311.9 486.159 311.76 485.248 311.437Z" fill="#F82462"/>
<path d="M462.653 337.164C458.653 336.473 448.302 327.21 448.302 327.21C448.302 327.21 461.157 321.961 465.157 322.652C467.079 322.984 468.79 324.067 469.914 325.663C471.038 327.258 471.484 329.235 471.152 331.16C470.821 333.084 469.739 334.798 468.146 335.924C466.553 337.05 464.579 337.496 462.657 337.164H462.653Z" fill="#F82462"/>
<path d="M477.591 321.924L453.801 287.37C453.801 287.37 453.339 278.816 451.802 276.818C450.265 274.82 451.468 270.374 451.468 270.374C451.468 270.374 453.135 267.93 451.691 267.708C450.246 267.485 451.468 262.038 451.468 262.038L451.357 253.372C451.357 253.372 452.69 245.027 451.579 243.043C451.254 242.502 451.092 241.879 451.111 241.248C451.131 240.618 451.332 240.006 451.691 239.487C451.691 239.487 453.024 234.707 451.691 233.487C450.357 232.268 450.691 224.818 451.024 218.93C451.357 213.041 448.686 209.708 448.686 208.818C448.686 207.928 439.89 199.262 439.89 198.488C439.89 197.714 434.335 194.487 430.998 193.597C427.66 192.707 425.993 192.044 426.104 191.599C426.215 191.154 420.878 189.378 420.878 189.378C420.878 189.378 416.207 189.044 414.425 186.707C412.642 184.371 407.208 183.703 407.05 183.68C407.018 183.527 406.981 183.369 406.948 183.216C406.916 183.063 406.879 182.883 406.846 182.716C407.268 182.006 407.657 181.283 408.008 180.537C408.115 180.309 408.217 180.073 408.314 179.86C410.263 179.772 412.263 179.354 413.79 178.158C414.575 177.501 415.217 176.688 415.675 175.772C416.133 174.855 416.397 173.854 416.452 172.831C416.547 170.777 416.098 168.735 415.151 166.911C414.179 164.908 412.749 162.835 413.24 160.665C413.457 159.738 414.017 158.904 414.304 157.986C414.846 156.247 414.346 154.337 413.503 152.724C412.661 151.11 411.49 149.691 410.555 148.129C409.36 146.138 408.563 143.934 408.207 141.638C408.018 140.433 407.944 139.162 407.337 138.101C406.835 137.313 406.17 136.641 405.388 136.13C401.91 133.639 397.71 132.363 393.435 132.5C390.408 132.607 387.39 133.427 384.385 133.052C382.575 132.829 380.848 132.185 379.098 131.661C375.367 130.558 371.067 130.103 367.817 132.24C364.567 134.378 363.275 138.583 361.077 141.87C359.132 144.782 356.281 147.22 354.799 150.299C354.799 150.243 354.827 150.183 354.846 150.123C354.481 150.835 354.203 151.588 354.017 152.367C353.452 154.787 353.924 157.318 354.512 159.734C354.813 160.981 355.23 162.335 356.308 163.025C357.387 163.716 358.915 163.563 360.192 163.79C360.146 163.999 360.091 164.212 360.044 164.426C358.721 170.686 359.801 177.215 363.069 182.714C366.336 188.213 371.552 192.277 377.677 194.098C377.677 194.325 377.677 194.561 377.677 194.775C377.675 195.413 377.636 196.051 377.562 196.685C377.562 196.685 366.382 194.367 363.377 195.943C360.373 197.519 354.48 198.725 353.591 199.606C352.702 200.486 350.48 199.828 348.499 205.053C346.517 210.278 346.277 215.605 343.717 218.035C341.157 220.464 339.828 222.147 339.717 223.927C339.606 225.708 340.05 226.148 339.046 226.709C338.041 227.27 336.601 229.598 337.046 230.488C337.046 230.488 337.601 232.709 335.824 233.817C334.046 234.925 334.264 237.15 334.264 237.15C334.264 237.15 333.597 239.598 332.042 240.15C330.486 240.701 329.482 244.373 329.482 244.373L324.422 250.192L314.427 239.111C313.679 238.281 312.632 237.782 311.516 237.725C310.4 237.667 309.308 238.056 308.478 238.805L303.571 243.238C301.677 243.698 299.966 244.719 298.66 246.168C297.59 247.267 296.729 248.552 296.118 249.96L293.429 252.38C292.583 253.43 292.067 254.707 291.944 256.05C291.821 257.393 292.098 258.742 292.739 259.928L299.141 267.017L299.183 267.077C296.762 267.383 294.623 268.162 292.989 269.604C283.429 278.047 283.314 285.831 284.762 289.378C286.211 292.924 298.326 306.601 298.326 306.601C298.326 306.601 305.368 315.767 315.533 320.645L315.455 320.724C315.256 320.937 315.057 321.187 314.862 321.419L314.696 321.632L314.543 321.846L314.362 322.114C314.311 322.184 314.265 322.258 314.219 322.332C314.172 322.407 314.089 322.541 314.029 322.652L313.904 322.866C313.83 323.005 313.751 323.148 313.677 323.297L313.603 323.44C313.51 323.635 313.418 323.835 313.33 324.043C313.298 324.117 313.27 324.196 313.237 324.27C313.182 324.414 313.122 324.562 313.066 324.734C313.011 324.906 312.997 324.924 312.964 325.021C312.932 325.119 312.867 325.309 312.821 325.457C312.774 325.606 312.756 325.666 312.728 325.768C312.7 325.87 312.636 326.092 312.594 326.259C312.552 326.426 312.543 326.454 312.515 326.561C312.455 326.816 312.395 327.08 312.344 327.358C312.344 327.46 312.307 327.567 312.288 327.673C312.251 327.859 312.219 328.049 312.191 328.244C312.168 328.378 312.154 328.512 312.136 328.647C312.117 328.781 312.089 329.013 312.066 329.199L312.024 329.625C312.024 329.829 311.987 330.042 311.974 330.256C311.974 330.386 311.974 330.515 311.95 330.645C311.95 330.998 311.913 331.35 311.909 331.721C311.687 344.702 312.446 346.608 312.446 346.608C312.446 346.608 314.015 350.748 318.348 351.045C318.984 351.091 319.623 351.057 320.251 350.943C326.033 349.941 339.597 347.609 344.379 348.499C347.253 349.033 352.577 348.244 356.369 347.526L357.364 347.336L358.058 349.543L360.257 348.94L362.109 350.02L363.289 350.697C365.484 358.152 374.4 355.612 374.4 355.612L376.492 356.826L397.954 357.383C397.954 357.383 402.583 360.164 405.55 361.036C405.903 361.143 406.264 361.222 406.629 361.272C408.618 361.432 410.616 361.469 412.61 361.384C414.253 361.342 415.526 361.272 415.526 361.272C415.526 361.272 415.309 355.435 414.994 348.903C423.197 348.56 430.47 348.045 434.872 347.271C446.334 345.254 451.117 334.818 452.876 329.24C453.404 331.52 453.78 333.833 454.001 336.162C454.468 338.198 455.063 340.202 455.783 342.162C456.409 343.739 457.23 345.231 458.227 346.603C466.68 343.715 461.565 339.385 459.783 337.493C458 335.601 461.009 334.048 461.009 334.048C461.009 334.048 463.324 332.495 463.12 331.049C462.917 329.602 462.787 328.049 470.347 328.16C477.906 328.271 477.591 321.924 477.591 321.924ZM360.165 250.989C360.262 251.625 361.317 258.472 362.271 260.262C362.47 260.642 362.549 261.991 362.521 263.92C358.04 263.563 353.373 263.373 353.373 263.373C353.508 263.535 353.591 263.734 353.614 263.943L352.91 263.785L351.887 263.535L360.141 250.962L360.165 250.989ZM343.814 277.045L351.568 278.278L352.221 278.38C351.998 279.592 351.864 280.817 351.818 282.048C351.818 282.164 351.994 282.303 352.244 282.465C352.135 283.077 352.084 283.698 352.091 284.32C352.216 284.936 355.841 286.262 359.998 287.366C359.942 287.588 359.887 287.801 359.831 288.001C356.16 286.067 350.374 285.163 349.707 283.726C349.04 282.289 329.338 275.381 329.338 275.381C329.338 275.381 328.621 275.001 327.38 274.398L332.565 275.381L333.991 275.237C337.223 276.047 340.504 276.648 343.814 277.036V277.045Z" fill="url(#paint0_linear)"/>
<path d="M452.278 326.76C452.278 326.76 449.195 345.412 433.544 348.17C417.892 350.929 365.65 350.377 365.65 350.377C365.65 350.377 335.782 346.075 324.982 320.798C314.182 295.521 307.238 285.474 316.496 285.034C325.755 284.593 375.682 301.923 378.529 302.141C381.376 302.359 455.033 263.73 452.278 326.76Z" fill="#434175"/>
<path opacity="0.05" d="M452.278 326.76C452.278 326.76 449.195 345.412 433.544 348.17C417.892 350.929 365.65 350.377 365.65 350.377C365.65 350.377 335.782 346.075 324.982 320.798C314.182 295.521 307.238 285.474 316.496 285.034C325.755 284.593 375.682 301.923 378.529 302.141C381.376 302.359 455.033 263.73 452.278 326.76Z" fill="black"/>
<path d="M312.177 347.507C312.177 347.507 313.737 351.624 318.029 351.916C318.658 351.961 319.291 351.927 319.913 351.814C325.644 350.822 339.092 348.504 343.828 349.385C346.679 349.918 351.952 349.13 355.707 348.421C358.206 347.957 360.03 347.493 360.03 347.493C360.03 347.493 355.623 332.815 355.068 332.375C354.512 331.934 335.231 320.343 335.231 320.343L319.954 319.245H319.908C319.908 319.245 317.08 319.435 314.733 322.291C313.117 324.243 311.733 327.451 311.64 332.708C311.427 345.63 312.177 347.507 312.177 347.507Z" fill="#565387"/>
<path opacity="0.05" d="M312.177 347.507C312.177 347.507 313.737 351.624 318.029 351.916C316.523 349.978 315.132 347.953 313.862 345.852L313.941 335.147C313.26 327.131 317.006 321.999 319.959 319.259H319.913C319.913 319.259 311.867 319.806 311.645 332.704C311.423 345.602 312.177 347.507 312.177 347.507Z" fill="black"/>
<path opacity="0.1" d="M378.436 324.108L392.653 312.981L415.026 290.903C415.026 290.903 412.61 290.787 408.967 290.63C408.041 291.209 405.518 293.031 405.425 295.266C405.314 297.964 399.375 295.451 396.292 296.995C393.208 298.539 378.108 317.895 375.46 317.77C372.812 317.645 370.724 316.426 369.618 318.303C369.618 318.345 369.567 318.382 369.539 318.424L378.436 324.108Z" fill="black"/>
<path opacity="0.1" d="M314.737 322.3C315.242 322.546 315.751 322.764 316.274 323.005C327.079 327.641 340.411 337.377 341.407 339.12C342.008 340.196 349.739 344.897 355.707 348.421C358.206 347.957 360.03 347.493 360.03 347.493C360.03 347.493 355.623 332.815 355.068 332.375C354.512 331.934 335.231 320.343 335.231 320.343L319.954 319.245H319.908C319.908 319.245 317.084 319.444 314.737 322.3Z" fill="black"/>
<path d="M284.758 290.662C286.188 294.195 298.183 307.774 298.183 307.774C298.183 307.774 305.784 317.705 316.589 322.342C327.394 326.978 340.726 336.714 341.717 338.457C342.356 339.593 350.975 344.786 357.03 348.356L358.387 349.149L361.396 350.897L362.988 351.824C362.988 351.824 366.692 348.857 370.354 345.871C374.015 342.885 377.589 339.96 377.649 339.793C377.756 339.463 379.186 335.708 378.858 335.49C378.686 335.374 377.932 333.844 376.543 332.073C375.061 330.108 373.137 328.519 370.928 327.437C365.835 325.119 363.655 319.843 363.655 319.843C363.655 319.843 363.192 319.49 362.437 319.027C361.132 318.201 359.035 317.015 357.484 316.815C355.054 316.509 350.54 311.544 350.54 311.544C350.54 311.544 347.452 309.555 346.24 307.019C345.082 304.599 327.991 292.841 326.408 291.756L367.845 318.405L377.76 324.79L391.977 313.663L414.355 291.585C414.355 291.585 411.346 291.436 406.948 291.251C396.074 290.787 376.761 290.041 374.321 290.592C372.335 291.056 370.286 291.189 368.257 290.987C368.257 290.987 362.757 291.237 359.118 289.313C355.48 287.389 349.744 286.489 349.082 285.066C348.42 283.643 328.912 276.79 328.912 276.79C328.912 276.79 302.354 262.664 292.873 271.055C283.392 279.447 283.323 287.134 284.758 290.662Z" fill="#434175"/>
<path d="M370.391 209.648L373.807 221.016L378.214 246.622L394.417 247.725L399.106 239.937L403.805 232.161C403.805 232.161 406.721 221.813 408.819 211.804C410.67 202.948 411.883 194.353 409.865 193.421C408.078 192.591 406.902 189.61 406.161 186.401C406.064 186.007 405.976 185.604 405.893 185.201C405.353 182.484 404.994 179.735 404.819 176.971C404.819 176.971 370.872 175.209 375.612 189.225C376.458 191.619 376.891 194.14 376.89 196.68C376.885 197.314 376.847 197.947 376.774 198.576C376.533 200.764 375.841 202.877 374.742 204.783C373.644 206.689 372.162 208.345 370.391 209.648Z" fill="#EE8E9E"/>
<path d="M363.336 207.77L364.549 227.085L367.303 243.53L370.391 251.147L373.145 292.818C373.145 292.818 399.722 295.896 406.184 292.762C406.65 292.563 407.055 292.243 407.356 291.835C415.161 280.045 412.601 245.848 412.601 245.848L415.577 223.765L413.591 212.304L408.8 211.794L405.097 211.4C405.097 211.4 404.263 212.429 403.06 214.02C399.791 218.341 393.801 226.839 394.185 230.386C394.732 235.245 393.523 240.21 391.648 240.984C389.774 241.759 388.232 243.08 387.903 241.759C387.575 240.437 387.241 240.103 387.57 238.226C387.899 236.348 386.135 230.608 386.135 230.608C386.135 230.608 383.163 223.876 383.357 221.007C383.552 218.137 383.029 214.822 382.145 214.052C381.26 213.283 380.052 212.504 381.043 208.952C382.033 205.401 376.696 198.544 376.696 198.544L363.336 207.77Z" fill="#E3E8F4"/>
<path opacity="0.1" d="M398.44 256.01L399.541 289.016L405.907 292.549C406.373 292.35 406.777 292.03 407.078 291.622C414.888 279.813 412.328 245.621 412.328 245.621L415.304 223.543L413.318 212.086L408.522 211.576C410.374 202.721 411.587 194.125 409.573 193.194C407.782 192.364 406.606 189.383 405.842 186.174L402.416 209.541C402.416 209.541 402.703 211.646 402.805 213.816C402.884 215.429 402.856 217.061 402.527 217.928C401.754 219.917 402.305 223.45 402.305 223.45C400.319 226.955 399.328 233.45 398.842 239.723C398.19 248.064 398.44 256.01 398.44 256.01Z" fill="black"/>
<path d="M405.948 185.664C405.948 185.664 411.503 186.355 413.263 188.673C415.022 190.991 419.656 191.311 419.656 191.311C419.656 191.311 424.947 193.078 424.836 193.518C424.725 193.959 426.377 194.626 429.687 195.507C432.997 196.388 438.483 199.592 438.483 200.366C438.483 201.14 447.191 209.745 447.191 210.631C447.191 211.516 449.839 214.803 449.505 220.673C449.172 226.542 448.844 233.919 450.167 235.133C451.491 236.348 450.167 241.096 450.167 241.096C449.816 241.615 449.623 242.225 449.611 242.852C449.598 243.479 449.768 244.096 450.098 244.628C451.2 246.617 449.88 254.898 449.88 254.898L449.987 263.507C449.987 263.507 448.774 268.913 450.209 269.136C451.644 269.358 449.987 271.783 449.987 271.783C449.987 271.783 448.774 276.201 450.32 278.186C451.866 280.17 452.302 288.673 452.302 288.673L475.911 322.981C475.911 322.981 476.244 329.273 468.75 329.162C461.255 329.05 461.343 330.599 461.583 332.031C461.824 333.464 459.491 335.013 459.491 335.013C459.491 335.013 456.514 336.556 458.278 338.434C460.042 340.312 465.111 344.614 456.736 347.484C455.745 346.121 454.93 344.638 454.311 343.07C453.6 341.123 453.011 339.133 452.547 337.113C452.547 337.113 451.774 328.721 450.232 327.618C448.691 326.514 448.908 321.215 448.908 321.215C448.908 321.215 451.112 316.913 448.029 315.146C444.946 313.38 400.148 288.566 400.148 288.566L399.046 255.561C399.046 255.561 398.273 231.169 402.902 223C402.902 223 402.351 219.467 403.124 217.483C403.898 215.499 403.013 209.091 403.013 209.091L405.948 185.664Z" fill="#565387"/>
<path opacity="0.1" d="M377.061 198.905C377.061 198.905 365.984 196.62 363.007 198.164C360.03 199.708 354.211 200.945 353.285 201.808C352.36 202.67 350.198 202.03 348.216 207.218C346.235 212.406 346.008 217.701 343.476 220.13C340.944 222.56 339.62 224.215 339.509 225.981C339.397 227.748 339.837 228.188 338.847 228.763C337.856 229.338 336.421 231.633 336.861 232.518C337.3 233.404 359.827 252.802 359.827 252.802C359.827 252.802 360.933 260.22 361.924 262.075C362.914 263.929 360.822 289.781 358.618 291.548C356.415 293.314 373.497 293.152 373.497 293.152C373.497 293.152 374.265 276.206 374.927 275.321C375.589 274.435 374.464 256.312 374.464 256.312C374.464 256.312 374.353 240.859 375.788 236.775C377.224 232.69 377.061 219.129 377.061 219.129C377.061 219.129 378.33 210.983 379.871 209.082C381.413 207.181 377.061 198.905 377.061 198.905Z" fill="black"/>
<path d="M376.733 198.576C376.733 198.576 365.65 196.291 362.674 197.834C359.697 199.378 353.878 200.593 352.975 201.479C352.073 202.364 349.892 201.696 347.883 206.884C345.874 212.072 345.68 217.372 343.143 219.801C340.606 222.231 339.286 223.886 339.175 225.652C339.064 227.419 339.509 227.859 338.518 228.411C337.527 228.962 336.092 231.281 336.532 232.161C336.972 233.042 359.456 252.473 359.456 252.473C359.456 252.473 360.558 259.891 361.549 261.746C362.539 263.6 360.447 289.447 358.243 291.214C356.04 292.98 373.122 292.818 373.122 292.818C373.122 292.818 373.895 275.872 374.557 274.991C375.219 274.11 374.094 255.983 374.094 255.983C374.094 255.983 373.988 240.53 375.418 236.445C376.849 232.361 376.691 218.781 376.691 218.781C376.691 218.781 377.96 210.635 379.497 208.739C381.034 206.843 376.733 198.576 376.733 198.576Z" fill="#565387"/>
<path opacity="0.1" d="M375.566 189.225C376.412 191.619 376.844 194.14 376.844 196.68C382.264 198.288 388.065 198.031 393.322 195.95C398.579 193.87 402.989 190.085 405.846 185.201C405.307 182.484 404.948 179.735 404.772 176.971C404.772 176.971 370.83 175.209 375.566 189.225Z" fill="black"/>
<path d="M358.817 171.783C358.823 178.258 361.31 184.484 365.764 189.177C370.219 193.87 376.302 196.671 382.759 197.004C389.215 197.337 395.553 195.176 400.466 190.966C405.378 186.757 408.49 180.819 409.16 174.379C409.829 167.939 408.006 161.487 404.065 156.354C400.124 151.221 394.367 147.798 387.98 146.791C381.594 145.785 375.065 147.271 369.74 150.944C364.416 154.616 360.701 160.195 359.364 166.53C358.999 168.257 358.816 170.018 358.817 171.783Z" fill="#EE8E9E"/>
<path d="M342.615 230.284L336.555 232.161C336.555 232.161 337.106 234.368 335.342 235.472C333.578 236.575 333.801 238.787 333.801 238.787C333.801 238.787 333.139 241.211 331.597 241.763C330.056 242.315 329.06 245.936 329.06 245.936L323.991 251.787C323.991 251.787 322.116 253.331 322.45 254.105C322.783 254.879 320.464 255.097 320.464 255.097L321.677 274.764L332.148 276.753L338.629 276.09L343.92 274.101L348.55 271.319L350.661 265.955L359.919 251.829L342.615 230.284Z" fill="#565387"/>
<path d="M322.005 256.683C322.005 256.683 308.58 237.252 298.53 247.739C288.48 258.227 302.608 275.223 305.914 274.671C309.219 274.12 324.982 273.239 324.982 273.239L322.005 256.683Z" fill="#EE8E9E"/>
<path d="M306.641 243.144L294.204 254.379C291.808 256.544 291.618 260.243 293.779 262.643L307.595 277.984C309.756 280.383 313.451 280.574 315.847 278.409L328.284 267.174C330.679 265.01 330.87 261.31 328.709 258.911L314.892 243.57C312.731 241.171 309.037 240.98 306.641 243.144Z" fill="#30374E"/>
<path opacity="0.1" d="M306.641 243.144L294.204 254.379C291.808 256.544 291.618 260.243 293.779 262.643L307.595 277.984C309.756 280.383 313.451 280.574 315.847 278.409L328.284 267.174C330.679 265.01 330.87 261.31 328.709 258.911L314.892 243.57C312.731 241.171 309.037 240.98 306.641 243.144Z" fill="black"/>
<path d="M307.02 241.544L294.583 252.779C292.187 254.943 291.997 258.643 294.158 261.043L307.974 276.383C310.135 278.783 313.829 278.974 316.225 276.809L328.662 265.574C331.058 263.41 331.249 259.71 329.087 257.311L315.271 241.97C313.11 239.571 309.416 239.38 307.02 241.544Z" fill="#30374E"/>
<path d="M311.27 266.266C314.739 266.266 317.552 263.449 317.552 259.974C317.552 256.5 314.739 253.683 311.27 253.683C307.8 253.683 304.988 256.5 304.988 259.974C304.988 263.449 307.8 266.266 311.27 266.266Z" fill="#F82462"/>
<path opacity="0.1" d="M311.27 266.266C314.739 266.266 317.552 263.449 317.552 259.974C317.552 256.5 314.739 253.683 311.27 253.683C307.8 253.683 304.988 256.5 304.988 259.974C304.988 263.449 307.8 266.266 311.27 266.266Z" fill="black"/>
<path d="M311.622 265.468C315.091 265.468 317.904 262.652 317.904 259.177C317.904 255.702 315.091 252.886 311.622 252.886C308.152 252.886 305.34 255.702 305.34 259.177C305.34 262.652 308.152 265.468 311.622 265.468Z" fill="#F82462"/>
<path d="M313.302 260.749C313.191 275.321 343.281 278.408 343.281 278.408L350.966 279.632L354.41 280.179L355.845 265.955C355.845 265.955 354.267 265.719 352.295 265.26C349.383 264.578 345.61 263.405 344.818 261.759C343.499 259.001 313.409 246.182 313.302 260.749Z" fill="#EE8E9E"/>
<path opacity="0.1" d="M359.364 166.53C360.058 166.582 360.713 166.873 361.215 167.356C362.067 168.26 362.113 169.864 363.22 170.42C363.633 170.6 364.091 170.654 364.535 170.573C367.465 170.156 369.164 166.864 371.974 165.937C373.576 165.418 375.339 165.756 376.904 166.359C377.533 166.556 378.098 166.92 378.538 167.411C379.464 168.631 378.821 170.425 379.256 171.904C379.862 173.953 382.306 174.769 384.422 175.038C386.538 175.307 388.922 175.455 390.334 177.055C391.334 178.191 391.588 179.836 391.385 181.325C391.26 181.844 391.26 182.386 391.385 182.906C391.968 184.561 394.829 184.297 395.574 183.008C396.12 182.057 395.954 181.269 397.241 181.005C398.111 180.824 399.134 181.19 399.94 181.468C402.183 182.244 404.548 182.608 406.92 182.544C408.421 179.319 409.224 175.814 409.279 172.256C409.334 168.699 408.638 165.17 407.237 161.901C405.837 158.631 403.763 155.694 401.152 153.283C398.541 150.871 395.45 149.038 392.083 147.904C388.716 146.77 385.148 146.361 381.612 146.703C378.076 147.045 374.652 148.13 371.564 149.888C368.476 151.647 365.793 154.038 363.69 156.905C361.588 159.773 360.114 163.053 359.364 166.53Z" fill="black"/>
<path d="M391.371 182.238C391.246 181.718 391.246 181.177 391.371 180.657C391.57 179.16 391.32 177.518 390.32 176.387C388.931 174.788 386.524 174.635 384.408 174.37C382.293 174.106 379.848 173.29 379.242 171.241C378.807 169.762 379.464 167.963 378.524 166.744C378.087 166.252 377.523 165.89 376.895 165.696C375.325 165.088 373.562 164.769 371.96 165.269C369.15 166.197 367.451 169.498 364.521 169.906C364.077 169.986 363.619 169.933 363.206 169.753C362.1 169.196 362.053 167.592 361.201 166.693C359.864 165.274 357.322 166.187 355.683 165.135C354.614 164.444 354.202 163.104 353.906 161.866C353.322 159.465 352.855 156.947 353.415 154.546C354.373 150.438 358.044 147.624 360.359 144.119C362.539 140.85 363.761 136.701 367.039 134.549C370.317 132.398 374.525 132.876 378.219 133.974C379.95 134.489 381.663 135.129 383.455 135.365C386.436 135.732 389.426 134.902 392.426 134.818C396.663 134.681 400.827 135.947 404.273 138.421C405.049 138.93 405.708 139.598 406.208 140.382C406.805 141.439 406.883 142.7 407.064 143.896C407.414 146.178 408.2 148.371 409.379 150.354C410.304 151.908 411.466 153.317 412.304 154.921C413.142 156.525 413.633 158.422 413.096 160.146C412.814 161.073 412.253 161.876 412.045 162.807C411.554 164.963 412.971 167.022 413.938 169.011C414.876 170.825 415.319 172.854 415.225 174.894C415.171 175.91 414.909 176.904 414.455 177.814C414.001 178.724 413.365 179.531 412.587 180.184C411.027 181.408 408.976 181.816 406.999 181.881C404.58 181.963 402.167 181.6 399.879 180.81C399.069 180.532 398.028 180.166 397.18 180.346C395.893 180.611 396.06 181.399 395.514 182.349C394.81 183.647 391.954 183.893 391.371 182.238Z" fill="#434175"/>
<path opacity="0.1" d="M377.774 324.771L391.991 313.644L414.369 291.566C414.369 291.566 411.36 291.418 406.962 291.232C406.161 292.048 405.448 293.087 405.402 294.246C405.291 296.944 399.352 294.436 396.269 295.98C393.185 297.524 378.085 316.875 375.437 316.75C372.789 316.625 370.701 315.406 369.594 317.283C369.571 317.327 369.545 317.369 369.516 317.409C369.076 317.912 368.487 318.261 367.835 318.405L377.774 324.771Z" fill="black"/>
<path d="M349.119 323.997L356.262 346.835L357.382 350.424L360.785 349.496L368.284 347.433L401.689 338.244C401.689 338.244 407.967 338.161 413.725 335.031C420.091 331.563 427.271 329.82 434.483 330.497C438.9 330.91 443.811 329.004 447.908 321.465C447.908 321.465 457.167 294.111 433.798 286.23C410.429 278.348 409.318 290.402 409.318 290.402C409.318 290.402 409.198 290.467 409.004 290.597C408.078 291.177 405.555 292.999 405.462 295.233C405.351 297.932 399.412 295.419 396.329 296.963C393.245 298.507 378.145 317.863 375.497 317.738C372.849 317.613 370.761 316.393 369.654 318.271C369.654 318.313 369.604 318.35 369.576 318.392C368.761 319.518 366.308 319.782 364.683 319.824C363.798 319.852 363.155 319.824 363.155 319.824L362.947 319.889L361.215 320.371L349.119 323.997Z" fill="#434175"/>
<path opacity="0.1" d="M350.966 279.632L354.41 280.179L355.845 265.955C355.845 265.955 354.267 265.719 352.295 265.26C352.818 267.23 351.633 274.913 350.966 279.632Z" fill="black"/>
<path opacity="0.1" d="M441.089 213.102C441.089 213.102 451.339 210.121 448.802 239.264C446.265 268.408 427.313 286.818 427.313 286.818C427.313 286.818 405.49 296.42 395.681 294.876C385.871 293.332 378.71 293.022 378.71 293.022C375.622 291.459 372.244 290.557 368.789 290.375C363.275 290.152 351.707 286.73 351.485 285.627C351.262 284.524 354.35 268.297 353.026 267.082C353.026 267.082 368.456 267.717 370.002 268.834C371.548 269.952 373.747 269.15 375.4 268.834C377.052 268.519 382.126 264.101 392.153 267.967C392.153 267.967 395.57 268.297 396.893 267.416C398.217 266.535 400.338 267.193 400.338 267.193C400.338 267.193 402.416 266.419 402.736 265.955C403.055 265.492 405.708 265.955 405.708 265.955C405.865 266.032 406.038 266.073 406.213 266.075C406.389 266.076 406.562 266.039 406.721 265.964C406.88 265.89 407.02 265.781 407.132 265.646C407.243 265.51 407.323 265.351 407.365 265.181C407.711 264.277 408.235 263.453 408.907 262.756C408.907 262.756 411.883 245.978 417.503 239.686C417.503 239.686 419.156 238.249 418.716 236.482C418.276 234.716 427.877 209.564 441.089 213.102Z" fill="black"/>
<path d="M440.839 210.858C440.839 210.858 451.089 207.877 448.556 237.02C446.024 266.164 427.039 284.593 427.039 284.593C427.039 284.593 405.217 294.195 395.407 292.651C385.598 291.107 378.436 290.773 378.436 290.773C375.349 289.209 371.971 288.308 368.516 288.126C363.007 287.903 351.434 284.482 351.211 283.378C350.989 282.275 354.077 266.048 352.758 264.833C352.758 264.833 368.187 265.468 369.729 266.586C371.27 267.703 373.478 266.901 375.131 266.586C376.784 266.27 381.853 261.857 391.885 265.719C391.885 265.719 395.301 266.048 396.62 265.167C397.94 264.286 400.069 264.945 400.069 264.945C400.069 264.945 402.134 264.17 402.462 263.73C402.791 263.289 405.439 263.73 405.439 263.73C405.596 263.807 405.768 263.848 405.943 263.85C406.118 263.852 406.291 263.814 406.449 263.74C406.608 263.667 406.748 263.558 406.859 263.423C406.97 263.288 407.05 263.13 407.092 262.96C407.437 262.055 407.962 261.228 408.633 260.531C408.633 260.531 411.61 243.752 417.23 237.461C417.23 237.461 418.883 236.023 418.443 234.262C418.003 232.5 427.59 207.325 440.839 210.858Z" fill="#565387"/>
<path opacity="0.1" d="M361.215 320.371L375.77 337.989C375.825 337.938 375.862 337.901 375.862 337.887C375.974 337.553 377.404 333.803 377.075 333.58C376.747 333.357 374.21 327.84 369.141 325.522C366.044 324.131 364.016 321.586 362.91 319.843L361.215 320.371Z" fill="black"/>
<path opacity="0.1" d="M361.414 350.896L363.007 351.824C363.007 351.824 366.71 348.856 370.372 345.871C374.034 342.885 377.608 339.959 377.668 339.793C377.774 339.463 379.205 335.708 378.876 335.49C378.705 335.374 377.95 333.844 376.561 332.073C366.692 329.291 372.974 336.167 373.812 336.482C373.812 336.482 361.775 333.7 361.137 346.826C361.049 348.189 361.143 349.558 361.414 350.896Z" fill="black"/>
<path d="M373.585 356.451L375.682 357.665L396.977 358.217C396.977 358.217 401.541 360.999 404.504 361.843C404.853 361.952 405.211 362.031 405.573 362.079C407.544 362.239 409.523 362.276 411.499 362.19C413.128 362.149 414.392 362.079 414.392 362.079C414.392 362.079 413.383 335.189 412.624 332.407C412.263 331.053 410.48 331.35 408.721 332.027C407.4 332.564 406.125 333.21 404.911 333.96C404.911 333.96 395.875 334.836 394.44 335.615C393.005 336.394 388.931 335.152 386.394 335.615C383.857 336.079 379.344 332.625 379.344 332.625C366.997 328.545 373.941 336.158 374.821 336.492C374.821 336.492 362.812 333.71 362.15 346.835C361.488 359.96 373.585 356.451 373.585 356.451Z" fill="#565387"/>
<path d="M404.337 346.075C404.569 351.638 408.897 358.542 411.476 362.19C413.105 362.149 414.369 362.079 414.369 362.079C414.369 362.079 413.36 335.189 412.601 332.407C412.24 331.053 410.457 331.35 408.698 332.027C406.583 336.014 404.152 341.591 404.337 346.075Z" fill="#565387"/>
<path opacity="0.1" d="M404.337 346.075C404.569 351.638 408.897 358.542 411.476 362.19C413.105 362.149 414.369 362.079 414.369 362.079C414.369 362.079 413.36 335.189 412.601 332.407C412.24 331.053 410.457 331.35 408.698 332.027C406.583 336.014 404.152 341.591 404.337 346.075Z" fill="black"/>
<path opacity="0.05" d="M400.699 346.812C402.162 352.181 402.148 358.203 404.481 361.843C404.83 361.952 405.188 362.031 405.55 362.079C407.521 362.239 409.5 362.276 411.476 362.19C413.105 362.149 414.369 362.079 414.369 362.079C414.369 362.079 413.36 335.189 412.601 332.407C412.24 331.053 410.457 331.35 408.698 332.027C407.376 332.564 406.102 333.21 404.888 333.96C404.888 333.96 398.828 339.941 400.699 346.812Z" fill="black"/>
<path opacity="0.1" d="M327.315 292.354C327.315 292.354 337.879 295.79 346.832 307.992L327.315 292.354Z" fill="black"/>
<g opacity="0.1">
<path opacity="0.1" d="M413.17 159.905C413.153 159.984 413.131 160.061 413.105 160.137C413.004 160.454 412.882 160.764 412.74 161.064C412.848 160.666 412.992 160.278 413.17 159.905Z" fill="black"/>
<path opacity="0.1" d="M353.397 154.55C353.58 153.777 353.855 153.028 354.216 152.32C354.16 152.51 354.1 152.7 354.054 152.895C353.494 155.297 353.961 157.814 354.545 160.216C354.845 161.454 355.253 162.793 356.322 163.484C357.966 164.537 360.489 163.619 361.84 165.037C362.692 165.941 362.738 167.546 363.849 168.102C364.263 168.282 364.721 168.336 365.164 168.255C368.09 167.838 369.793 164.546 372.603 163.619C374.205 163.099 375.964 163.438 377.534 164.045C378.162 164.239 378.725 164.602 379.163 165.093C380.089 166.312 379.446 168.111 379.881 169.586C380.487 171.635 382.931 172.451 385.047 172.715C387.163 172.979 389.547 173.132 390.959 174.737C391.959 175.868 392.213 177.518 392.01 179.007C391.887 179.526 391.887 180.068 392.01 180.587C392.593 182.243 395.454 181.978 396.176 180.689C396.722 179.739 396.56 178.951 397.847 178.687C398.713 178.506 399.736 178.872 400.541 179.15C402.829 179.94 405.243 180.303 407.661 180.221C409.638 180.152 411.693 179.758 413.249 178.524C413.96 177.957 414.543 177.246 414.962 176.438C414.599 177.909 413.771 179.223 412.601 180.184C411.045 181.408 408.994 181.816 407.013 181.881C404.596 181.963 402.184 181.6 399.898 180.81C399.088 180.532 398.046 180.166 397.199 180.346C395.912 180.611 396.074 181.399 395.532 182.349C394.783 183.657 391.926 183.902 391.338 182.247C391.216 181.727 391.216 181.186 391.338 180.666C391.542 179.169 391.292 177.528 390.292 176.396C388.876 174.797 386.491 174.644 384.376 174.38C382.26 174.115 379.816 173.299 379.214 171.25C378.774 169.771 379.436 167.972 378.497 166.753C378.056 166.262 377.492 165.9 376.862 165.705C375.293 165.098 373.534 164.778 371.932 165.279C369.118 166.206 367.419 169.507 364.493 169.915C364.049 169.996 363.592 169.942 363.178 169.762C362.067 169.205 362.021 167.601 361.169 166.702C359.831 165.283 357.294 166.196 355.656 165.144C354.582 164.453 354.174 163.113 353.873 161.875C353.299 159.469 352.832 156.952 353.397 154.55Z" fill="black"/>
</g>
<path opacity="0.1" d="M414.878 242.894C412.86 245.625 410.555 248.152 408.768 251.04C406.981 253.929 405.717 257.299 406.092 260.674C407.944 258.774 408.786 256.15 409.953 253.766C411.925 249.733 414.878 246.311 417.36 242.602C417.823 241.893 420.883 237.804 419.341 237.609C418.073 237.447 415.568 241.963 414.878 242.894Z" fill="black"/>
</g>
<defs>
<linearGradient id="paint0_linear" x1="380.839" y1="361.407" x2="380.839" y2="130.729" gradientUnits="userSpaceOnUse">
<stop stop-color="#808080" stop-opacity="0.25"/>
<stop offset="0.54" stop-color="#808080" stop-opacity="0.12"/>
<stop offset="1" stop-color="#808080" stop-opacity="0.1"/>
</linearGradient>
<clipPath id="clip0">
<rect width="528" height="365" fill="white"/>
</clipPath>
</defs>
</svg>
