<svg width="526" height="386" viewBox="0 0 526 386" fill="none" xmlns="http://www.w3.org/2000/svg">
<g clip-path="url(#clip0)">
<path opacity="0.2" d="M69.6113 195.561C62.6934 197.651 56.2183 202.713 54.4901 209.736C52.5136 217.807 57.0715 225.943 57.7304 234.23C59.8582 261.381 21.2452 280.538 26.7536 307.209C28.9408 317.813 37.7813 325.614 46.4921 332.059C60.4468 342.35 75.9298 351.442 93.0761 354.008C119.101 357.908 146.292 346.445 171.587 353.689C191.99 359.535 207.603 376.665 227.865 382.986C243.289 387.799 259.906 385.903 275.929 383.953C284.569 382.905 293.62 381.694 300.592 376.508C313.553 366.855 314.369 347.79 323.047 334.128C336.451 313.059 365.84 308.921 390.482 313.016C415.124 317.111 439.053 327.191 464.019 326.37C469.355 326.192 474.82 325.468 479.475 322.848C485.135 319.666 488.959 314.059 492.339 308.51C513.468 273.703 525.066 233.945 525.968 193.232C526.113 186.236 525.865 178.938 522.576 172.763C518.418 164.952 510.107 160.279 501.833 157.135C481.965 149.572 460.018 148.334 440.549 139.804C421.772 131.577 406.565 117.147 390.212 104.782C357.625 80.1866 319.854 63.3596 279.779 55.5835C270.388 53.7684 260.64 52.4719 251.308 54.5679C240.556 56.9827 231.289 63.6869 222.956 70.9043C200.787 90.1038 183.02 113.793 162.59 134.834C148.497 149.345 133.151 162.583 116.73 174.395C109.169 179.846 101.134 186.317 92.7089 190.348C84.9971 194.032 77.7659 193.103 69.6113 195.561Z" fill="#F82462"/>
<path d="M168.428 24.9259C168.428 24.9259 147.555 52.6555 162.488 84.977C177.42 117.299 136.463 169.23 136.463 169.23" stroke="#535461" stroke-width="2" stroke-miterlimit="10"/>
<path d="M177.787 14.5482C176.129 21.6845 168.196 25.9361 168.196 25.9361C168.196 25.9361 162.957 18.6161 164.615 11.4797C166.273 4.34338 170.556 -0.756323 174.206 0.0918272C177.857 0.939977 179.445 7.41184 177.787 14.5482Z" fill="#8ED16F"/>
<path d="M172.458 13.3047C172.98 11.0642 172.722 9.08952 171.882 8.89409C171.042 8.69866 169.939 10.3565 169.418 12.597C168.897 14.8374 169.155 16.8121 169.995 17.0075C170.834 17.203 171.937 15.5451 172.458 13.3047Z" fill="#8ED16F"/>
<path opacity="0.3" d="M172.458 13.3047C172.98 11.0642 172.722 9.08952 171.882 8.89409C171.042 8.69866 169.939 10.3565 169.418 12.597C168.897 14.8374 169.155 16.8121 169.995 17.0075C170.834 17.203 171.937 15.5451 172.458 13.3047Z" fill="black"/>
<path d="M174.179 46.2539C167.289 48.7389 159.409 44.3847 159.409 44.3847C159.409 44.3847 162.704 36.0058 169.6 33.5262C176.496 31.0466 183.101 31.9055 184.37 35.3954C185.639 38.8852 181.07 43.7688 174.179 46.2539Z" fill="#8ED16F"/>
<path d="M172.244 40.7518C174.405 39.9697 175.92 38.6786 175.627 37.8681C175.334 37.0576 173.344 37.0346 171.182 37.8167C169.021 38.5988 167.506 39.8899 167.799 40.7004C168.092 41.5109 170.082 41.5339 172.244 40.7518Z" fill="#8ED16F"/>
<path opacity="0.3" d="M172.244 40.7518C174.405 39.9697 175.92 38.6786 175.627 37.8681C175.334 37.0576 173.344 37.0346 171.182 37.8167C169.021 38.5988 167.506 39.8899 167.799 40.7004C168.092 41.5109 170.082 41.5339 172.244 40.7518Z" fill="black"/>
<path d="M172.576 71.5201C165.685 74.0051 157.805 69.6509 157.805 69.6509C157.805 69.6509 161.1 61.2721 167.996 58.7925C174.892 56.3128 181.497 57.1718 182.766 60.6616C184.035 64.1515 179.466 69.0405 172.576 71.5201Z" fill="#8ED16F"/>
<path d="M170.72 66.3999C172.884 65.6207 174.401 64.3313 174.109 63.52C173.817 62.7088 171.826 62.6828 169.663 63.462C167.499 64.2412 165.982 65.5305 166.274 66.3418C166.566 67.1531 168.557 67.1791 170.72 66.3999Z" fill="#8ED16F"/>
<path opacity="0.3" d="M170.72 66.3999C172.884 65.6207 174.401 64.3313 174.109 63.52C173.817 62.7088 171.826 62.6828 169.663 63.462C167.499 64.2412 165.982 65.5305 166.274 66.3418C166.566 67.1531 168.557 67.1791 170.72 66.3999Z" fill="black"/>
<path d="M180.628 101.162C173.737 103.647 165.857 99.293 165.857 99.293C165.857 99.293 169.152 90.9141 176.048 88.4345C182.944 85.9549 189.549 86.8138 190.818 90.3037C192.087 93.7935 187.518 98.6933 180.628 101.162Z" fill="#8ED16F"/>
<path d="M178.773 96.0551C180.937 95.2758 182.454 93.9865 182.162 93.1752C181.87 92.3639 179.879 92.3379 177.716 93.1172C175.552 93.8964 174.035 95.1857 174.327 95.997C174.619 96.8083 176.61 96.8343 178.773 96.0551Z" fill="#8ED16F"/>
<path opacity="0.3" d="M178.773 96.0551C180.937 95.2758 182.454 93.9865 182.162 93.1752C181.87 92.3639 179.879 92.3379 177.716 93.1172C175.552 93.8964 174.035 95.1857 174.327 95.997C174.619 96.8083 176.61 96.8343 178.773 96.0551Z" fill="black"/>
<path d="M175.389 128.271C168.498 130.756 160.619 126.401 160.619 126.401C160.619 126.401 163.913 118.022 170.81 115.543C177.706 113.063 184.311 113.922 185.58 117.412C186.849 120.902 182.285 125.791 175.389 128.271Z" fill="#8ED16F"/>
<path d="M173.549 122.703C175.711 121.921 177.226 120.63 176.933 119.819C176.64 119.009 174.65 118.986 172.488 119.768C170.327 120.55 168.812 121.841 169.105 122.651C169.398 123.462 171.388 123.485 173.549 122.703Z" fill="#8ED16F"/>
<path opacity="0.3" d="M173.549 122.703C175.711 121.921 177.226 120.63 176.933 119.819C176.64 119.009 174.65 118.986 172.488 119.768C170.327 120.55 168.812 121.841 169.105 122.651C169.398 123.462 171.388 123.485 173.549 122.703Z" fill="black"/>
<path d="M143.068 53.4334C148.155 58.706 157.147 58.2954 157.147 58.2954C157.147 58.2954 157.886 49.3223 152.799 44.0497C147.712 38.7772 141.41 36.6055 138.72 39.1877C136.031 41.77 137.981 48.1608 143.068 53.4334Z" fill="#8ED16F"/>
<path d="M151.019 51.5623C151.639 50.9634 150.847 49.1363 149.25 47.4813C147.653 45.8263 145.855 44.9702 145.235 45.569C144.615 46.1679 145.407 47.995 147.004 49.65C148.601 51.305 150.399 52.1612 151.019 51.5623Z" fill="#8ED16F"/>
<path opacity="0.3" d="M151.019 51.5623C151.639 50.9634 150.847 49.1363 149.25 47.4813C147.653 45.8263 145.855 44.9702 145.235 45.569C144.615 46.1679 145.407 47.995 147.004 49.65C148.601 51.305 150.399 52.1612 151.019 51.5623Z" fill="black"/>
<path d="M140.146 137.163C145.233 142.435 154.225 142.025 154.225 142.025C154.225 142.025 154.965 133.051 149.878 127.779C144.79 122.506 138.488 120.335 135.799 122.917C133.109 125.499 135.059 131.89 140.146 137.163Z" fill="#8ED16F"/>
<path d="M148.09 135.299C148.71 134.7 147.918 132.873 146.321 131.218C144.724 129.563 142.926 128.707 142.306 129.306C141.686 129.904 142.478 131.731 144.075 133.386C145.672 135.041 147.47 135.898 148.09 135.299Z" fill="#8ED16F"/>
<path opacity="0.3" d="M148.09 135.299C148.71 134.7 147.918 132.873 146.321 131.218C144.724 129.563 142.926 128.707 142.306 129.306C141.686 129.904 142.478 131.731 144.075 133.386C145.672 135.041 147.47 135.898 148.09 135.299Z" fill="black"/>
<path d="M146.891 83.0268C153.447 86.3006 161.78 82.8972 161.78 82.8972C161.78 82.8972 159.485 74.1942 152.934 70.9204C146.383 67.6467 139.714 67.6791 138.045 71.0501C136.377 74.4211 140.335 79.7531 146.891 83.0268Z" fill="#8ED16F"/>
<path d="M153.744 78.5936C154.129 77.8221 152.773 76.364 150.715 75.3369C148.657 74.3098 146.677 74.1026 146.292 74.8741C145.908 75.6456 147.264 77.1037 149.321 78.1308C151.379 79.1579 153.359 79.3651 153.744 78.5936Z" fill="#8ED16F"/>
<path opacity="0.3" d="M153.744 78.5936C154.129 77.8221 152.773 76.364 150.715 75.3369C148.657 74.3098 146.677 74.1026 146.292 74.8741C145.908 75.6456 147.264 77.1037 149.321 78.1308C151.379 79.1579 153.359 79.3651 153.744 78.5936Z" fill="black"/>
<path d="M149.64 112.507C156.196 115.781 164.529 112.377 164.529 112.377C164.529 112.377 162.234 103.674 155.683 100.4C149.132 97.1266 142.463 97.159 140.794 100.53C139.125 103.901 143.111 109.265 149.64 112.507Z" fill="#8ED16F"/>
<path d="M156.495 108.077C156.88 107.306 155.524 105.848 153.466 104.821C151.408 103.794 149.428 103.586 149.044 104.358C148.659 105.129 150.015 106.588 152.072 107.615C154.13 108.642 156.11 108.849 156.495 108.077Z" fill="#8ED16F"/>
<path opacity="0.3" d="M156.495 108.077C156.88 107.306 155.524 105.848 153.466 104.821C151.408 103.794 149.428 103.586 149.044 104.358C148.659 105.129 150.015 106.588 152.072 107.615C154.13 108.642 156.11 108.849 156.495 108.077Z" fill="black"/>
<path d="M67.8994 84.5287C67.8994 84.5287 106.021 122.663 84.5002 179.251C62.9796 235.84 121.39 329.941 121.39 329.941C121.39 329.941 120.764 329.849 119.603 329.644C41.297 315.82 2.41401 226.24 45.9413 159.695C62.1047 134.953 75.4167 105.932 67.8994 84.5287Z" fill="#8ED16F"/>
<path d="M0 238.768C0 238.768 43.5003 231.837 47.4642 270.835C51.4281 309.834 131.111 315.242 131.111 315.242C131.111 315.242 130.571 315.598 129.615 316.236C63.8221 359.453 0.928873 343.755 10.4066 286.388C13.9385 265.055 13.6468 243.635 0 238.768Z" fill="#8ED16F"/>
<g opacity="0.3">
<path opacity="0.3" d="M0 238.768C0 238.768 43.5003 231.837 47.4642 270.835C51.4281 309.834 131.111 315.242 131.111 315.242C131.111 315.242 130.571 315.598 129.615 316.236C63.8221 359.453 0.928873 343.755 10.4066 286.388C13.9385 265.055 13.6468 243.635 0 238.768Z" fill="white"/>
</g>
<path d="M56.8879 238.287C63.4943 238.287 68.8498 224.309 68.8498 207.067C68.8498 189.825 63.4943 175.848 56.8879 175.848C50.2816 175.848 44.926 189.825 44.926 207.067C44.926 224.309 50.2816 238.287 56.8879 238.287Z" fill="#8ED16F"/>
<path opacity="0.3" d="M56.8879 238.287C63.4943 238.287 68.8498 224.309 68.8498 207.067C68.8498 189.825 63.4943 175.848 56.8879 175.848C50.2816 175.848 44.926 189.825 44.926 207.067C44.926 224.309 50.2816 238.287 56.8879 238.287Z" fill="black"/>
<path d="M55.7949 320.45C58.9436 317.3 55.8149 309.064 48.8067 302.053C41.7986 295.043 33.5648 291.913 30.416 295.063C27.2673 298.213 30.396 306.449 37.4042 313.46C44.4124 320.47 52.6462 323.6 55.7949 320.45Z" fill="#8ED16F"/>
<path opacity="0.3" d="M55.7949 320.45C58.9436 317.3 55.8149 309.064 48.8067 302.053C41.7986 295.043 33.5648 291.913 30.416 295.063C27.2673 298.213 30.396 306.449 37.4042 313.46C44.4124 320.47 52.6462 323.6 55.7949 320.45Z" fill="black"/>
<path d="M390.93 143.408H107.765C104.344 143.408 101.062 144.767 98.6424 147.188C96.2229 149.608 94.8636 152.891 94.8636 156.313V322.34C94.8636 325.763 96.2229 329.046 98.6424 331.466C101.062 333.886 104.344 335.246 107.765 335.246H390.93C394.352 335.246 397.634 333.886 400.053 331.466C402.473 329.046 403.832 325.763 403.832 322.34V156.313C403.832 152.891 402.473 149.608 400.053 147.188C397.634 144.767 394.352 143.408 390.93 143.408Z" fill="url(#paint0_linear)"/>
<path d="M386.794 145.666H111.897C104.497 145.666 98.4981 151.666 98.4981 159.069V319.585C98.4981 326.987 104.497 332.988 111.897 332.988H386.794C394.193 332.988 400.192 326.987 400.192 319.585V159.069C400.192 151.666 394.193 145.666 386.794 145.666Z" fill="#F82462"/>
<path d="M400.192 178.446H98.4981V212.788H400.192V178.446Z" fill="#F82462"/>
<path opacity="0.3" d="M400.192 178.446H98.4981V212.788H400.192V178.446Z" fill="black"/>
<path d="M371.586 238.287H127.109V254.937H371.586V238.287Z" fill="#D6D6E3"/>
<path d="M147.393 320.503C160.609 320.503 171.323 309.786 171.323 296.566C171.323 283.346 160.609 272.629 147.393 272.629C134.178 272.629 123.464 283.346 123.464 296.566C123.464 309.786 134.178 320.503 147.393 320.503Z" fill="#F82462"/>
<path opacity="0.3" d="M147.393 320.503C160.609 320.503 171.323 309.786 171.323 296.566C171.323 283.346 160.609 272.629 147.393 272.629C134.178 272.629 123.464 283.346 123.464 296.566C123.464 309.786 134.178 320.503 147.393 320.503Z" fill="black"/>
<path d="M383.04 99.4766C383.427 100.698 384.247 101.736 385.346 102.394C390.309 105.673 401.099 104.976 402.395 104.976C402.671 104.976 403.033 105.468 403.432 106.294C405.339 110.227 408.293 121.755 408.493 124.349C408.757 127.487 411.673 142.176 416.447 147.648C416.593 147.816 416.739 147.972 416.879 148.118C421.562 152.824 427.054 147.648 427.054 147.648L427.842 144.909C427.621 145.99 427.372 147.249 427.124 148.659C427 149.366 426.876 150.117 426.757 150.89C426.045 155.243 425.671 159.644 425.639 164.055C425.627 165.656 425.695 167.257 425.844 168.852C425.887 169.295 425.936 169.733 425.995 170.159C426.239 172.102 426.358 174.058 426.352 176.015C426.308 187.641 423.344 202.103 423.344 202.103L423.457 202.065C423.387 202.427 423.344 202.605 423.344 202.605L423.516 202.551C423.434 203.088 423.354 203.637 423.279 204.199C422.274 211.492 421.697 220.568 421.421 225.808C421.279 228.572 421.402 231.343 421.788 234.084L427.059 271.203V288.49C427.041 291.109 427.361 293.72 428.01 296.258C429.727 302.789 428.312 325.587 427.518 336.402C427.297 339.352 427.124 341.415 427.075 342.01V342.188L427.227 342.129C427.227 342.253 427.227 342.318 427.227 342.318C427.451 342.221 427.687 342.152 427.929 342.112C425.839 345.354 422.053 350.713 419.142 351.615C417.427 352.138 415.901 353.149 414.752 354.527L414.676 354.629L414.568 354.781C414.208 355.262 413.989 355.835 413.936 356.434C413.894 356.331 413.862 356.224 413.839 356.115C413.618 357.32 414.341 358.422 416.615 358.956C417.94 359.21 419.289 359.318 420.638 359.281C428.523 359.281 442.515 356.855 444.06 354.246V345.246L444.313 345.327V345.408L445.28 345.726L447.932 336.823C451.113 334.468 448.472 292.315 447.932 282.628C447.446 273.801 452.906 238.687 453.872 232.501L453.743 232.344L453.888 231.442C454.083 231.583 454.264 231.743 454.428 231.918C454.746 232.295 455.023 232.704 455.255 233.139C455.711 233.912 456.103 234.721 456.427 235.559C461.762 248.87 464.165 286.934 464.165 290.348V326.143C464.154 329.676 464.645 333.192 465.624 336.586C466.114 338.372 466.492 340.187 466.758 342.02C466.871 342.739 466.968 343.452 467.06 344.133C467.152 344.813 467.244 345.591 467.314 346.229C467.314 346.396 467.352 346.558 467.368 346.71C467.384 346.861 467.368 346.855 467.368 346.931C467.514 348.341 467.589 349.265 467.589 349.265C467.609 349.188 467.646 349.116 467.697 349.054L467.724 349.395C467.762 349.266 467.835 349.15 467.935 349.06C468.154 348.844 468.393 348.649 468.648 348.476V353.025L468.518 352.928V353.711C474.016 357.86 482.964 359.113 489.834 359.065C494.289 359.065 497.896 358.524 499.149 357.898C500.942 357.017 499.959 354.964 498.328 353.392C497.065 352.171 495.418 351.231 494.375 351.35C492.636 351.539 486.691 344.803 483.575 341.113L483.926 340.956L484.422 340.74V281.056C484.422 281.056 485.222 257.492 487.603 234.187C488.733 222.439 487.343 210.585 483.526 199.418L483.45 199.196L484.174 199.31C484.941 199.429 485.351 199.499 485.351 199.499C485.351 199.499 485.351 199.315 485.303 198.959H485.351C485.351 198.959 484.422 188.851 484.412 176.156C484.412 161.764 485.627 144.218 490.654 134.289C493.549 128.573 494.516 124.024 494.435 120.437C494.561 117.281 493.653 114.17 491.848 111.578C491.091 110.534 490.062 109.719 488.872 109.222L488.77 109.163H488.716C487.847 108.811 486.92 108.628 485.983 108.623H475.123C473.866 108.624 472.63 108.298 471.537 107.677L467.287 105.268C465.872 102.172 465.667 98.3368 465.969 94.7389C465.969 94.4526 466.023 94.1662 466.05 93.8853L466.358 93.5612C466.596 93.3073 466.817 93.021 467.033 92.7779C467.028 92.9911 467.012 93.2039 466.984 93.4153C466.93 93.7557 466.839 93.9556 466.693 93.9988C469.015 93.6963 471.607 93.2371 473.033 91.4435C473.092 91.3733 473.146 91.2977 473.2 91.222C473.622 90.5398 473.971 89.8156 474.243 89.0611C474.442 88.5457 474.709 88.0589 475.036 87.6133C475.393 87.1488 475.857 86.7706 476.241 86.3276L476.306 86.252C477.672 84.6313 477.747 82.3084 477.764 80.1907C477.791 75.0478 477.639 69.3862 474.199 65.529C471.343 62.3201 466.785 61.1046 462.459 60.9642C458.133 60.8237 453.818 61.6016 449.498 61.6232C446.56 61.6232 443.017 61.5746 441.397 64.0056C440.603 65.1995 440.506 66.7607 439.642 67.906C439.145 68.5651 438.384 69.1323 438.341 69.9535C438.335 70.3324 438.432 70.7057 438.621 71.0339V71.0717C439.669 73.1354 441.894 74.4211 444.216 74.8263C443.824 75.2989 443.463 75.797 443.136 76.3173C441.718 78.5845 440.97 81.2062 440.976 83.8804C440.976 84.1937 440.976 84.5017 441.008 84.8096C441.249 88.4418 442.868 91.8448 445.534 94.3229C445.491 94.6254 445.448 94.928 445.399 95.2251L445.496 95.3115C445.802 95.5888 446.121 95.8517 446.452 96.1003L446.571 96.1921C446.571 96.3812 446.571 96.5702 446.571 96.7323C446.571 97.0456 446.571 97.3644 446.538 97.6723C446.506 97.9802 446.538 98.1693 446.506 98.4178L446.436 98.3584L441.16 93.9502L432.676 86.0953C432.676 86.0953 411.463 70.6504 410.399 77.992C410.27 79.2959 410.63 80.6011 411.409 81.6547C415.302 87.5971 428.69 92.6536 428.69 92.6536C428.69 92.6536 436.672 101.097 442.013 110.2C441.824 110.303 441.635 110.4 441.435 110.492C436.683 112.701 429.749 111.767 429.749 111.767C421.74 113.015 421.016 121.793 421.059 125.343C421.059 125.51 421.059 125.672 421.059 125.818C421.059 125.964 421.059 125.996 421.059 126.077L410.431 101.114L410.399 101.038C410.052 100.225 409.506 99.513 408.811 98.9672C408.117 98.4215 407.296 98.0597 406.424 97.9154C399.317 96.7215 381.555 94.2311 383.04 99.4766ZM427.534 342.037C427.689 342 427.846 341.971 428.004 341.95L427.956 342.026L427.534 342.037Z" fill="url(#paint1_linear)"/>
<path d="M480.637 336.932C480.637 336.932 490.703 349.589 493.031 349.33C495.358 349.07 500.775 354.235 497.68 355.812C494.586 357.39 476.77 358.395 467.978 351.68V341.561L480.637 336.932Z" fill="#ACA9C9"/>
<path d="M429.77 337.704C429.77 337.704 423.83 348.292 419.704 349.589C415.578 350.885 411.96 355.531 417.382 356.823C422.804 358.114 442.169 355.272 443.973 352.171V338.477L429.77 337.704Z" fill="#ACA9C9"/>
<path d="M422.312 233.684L427.443 270.3V287.323C427.427 289.905 427.739 292.479 428.371 294.983C430.046 301.428 428.668 323.912 427.891 334.582C427.637 338.061 427.443 340.286 427.443 340.286C430.796 338.736 444.999 343.641 444.999 343.641L446.436 338.752L447.581 334.862C450.68 332.54 448.121 290.959 447.581 281.38C447.23 274.838 450.146 253.629 452.014 240.918C452.554 237.325 452.992 234.435 453.257 232.696C453.424 231.615 453.516 231.015 453.516 231.015C454.085 231.48 454.558 232.05 454.909 232.696C455.353 233.459 455.735 234.258 456.049 235.083C461.244 248.216 463.609 285.762 463.609 289.106V324.415C463.598 327.898 464.077 331.366 465.029 334.717C465.669 337.16 466.136 339.646 466.428 342.155C466.795 344.959 466.968 347.217 466.968 347.217C467.227 345.667 483.234 338.693 483.234 338.693V279.808C483.234 279.808 484.006 256.579 486.334 233.576C487.334 223.113 486.326 212.555 483.364 202.47C482.721 200.271 482.079 198.408 481.522 196.933C480.577 194.421 479.902 193.032 479.902 193.032H427.173C426.287 193.2 425.552 194.983 424.888 197.689C424.456 199.504 424.078 201.73 423.749 204.172C422.771 211.362 422.21 220.314 421.94 225.489C421.803 228.226 421.928 230.97 422.312 233.684Z" fill="#618FD8"/>
<g opacity="0.1">
<path opacity="0.1" d="M482.305 338.86V279.976C482.305 279.976 483.078 256.746 485.405 233.744C487.733 210.741 478.925 193.194 478.925 193.194H479.956C479.956 193.194 488.732 210.757 486.437 233.744C484.141 256.73 483.337 279.976 483.337 279.976V338.86C483.337 338.86 467.33 345.834 467.071 347.385C467.071 347.385 467.071 347.039 466.99 346.445C470.478 344.019 482.305 338.86 482.305 338.86Z" fill="black"/>
<path opacity="0.1" d="M428.992 340.124C428.505 340.134 428.024 340.233 427.572 340.416V340.157C428.044 340.109 428.519 340.098 428.992 340.124Z" fill="black"/>
<path opacity="0.1" d="M446.679 334.992C449.779 332.669 447.219 291.088 446.679 281.51C446.139 271.932 452.619 231.151 452.619 231.151C452.958 231.413 453.259 231.722 453.51 232.069C452.56 238.163 447.246 272.807 447.716 281.51C448.256 291.067 450.816 332.648 447.716 334.992L445.134 343.771L444.195 343.457L446.679 334.992Z" fill="black"/>
</g>
<path d="M432.865 129.281L427.464 148.394C427.464 148.394 421.783 153.796 417.139 148.394C412.494 142.992 409.632 128.508 409.351 125.407C409.07 122.306 404.961 106.294 403.411 106.294C401.861 106.294 386.372 107.326 384.563 100.892C383.116 95.7167 400.408 98.1909 407.331 99.3524C408.184 99.4976 408.986 99.856 409.663 100.394C410.34 100.933 410.87 101.634 411.203 102.432L421.821 127.795C421.821 127.795 427.443 121.275 432.865 129.281Z" fill="#F7C4A7"/>
<path d="M467.719 84.8582C467.719 84.8582 461.006 103.712 469.528 110.427C478.05 117.142 439.053 118.952 439.053 118.952L444.346 113.917C444.346 113.917 448.088 99.0661 445.507 86.6679L467.719 84.8582Z" fill="#F7C4A7"/>
<path opacity="0.1" d="M459.456 110.427C459.456 110.427 466.298 108.747 466.298 106.942L472.363 110.427H487.598C487.598 110.427 498.701 116.623 489.407 135.223C480.113 153.823 484.244 199.51 484.244 199.51C484.244 199.51 451.199 193.567 423.83 202.611C423.83 202.611 427.961 182.206 426.411 170.586C424.861 158.966 428.992 142.694 428.992 142.694L431.315 132.879C431.315 132.879 431.185 123.695 421.632 128.357C421.632 128.357 420.211 115.057 430.024 113.506C430.024 113.506 441.365 115.057 444.74 109.373C444.74 109.395 452.23 113.787 459.456 110.427Z" fill="black"/>
<path d="M459.456 109.914C459.456 109.914 466.298 108.234 466.298 106.429L470.743 108.985C471.805 109.593 473.008 109.914 474.232 109.914H484.887C486 109.911 487.099 110.172 488.091 110.678C489.084 111.183 489.942 111.917 490.595 112.82C493.041 116.261 495.234 123.047 489.407 134.71C480.113 153.304 484.244 198.996 484.244 198.996C484.244 198.996 451.199 193.054 423.83 202.097C423.83 202.097 427.961 181.693 426.411 170.073C424.861 158.453 428.992 142.219 428.992 142.219L431.315 132.403C431.315 132.403 431.185 123.219 421.632 127.882C421.632 127.882 420.249 114.949 429.619 113.101C429.879 113.043 430.147 113.025 430.413 113.047C432.416 113.258 441.754 113.933 444.745 108.871C444.74 108.876 452.23 113.269 459.456 109.914Z" fill="#E14B5A"/>
<path opacity="0.1" d="M485.535 133.413C485.535 133.413 477.272 138.578 463.847 133.413C463.847 133.413 449.131 128.011 444.481 117.401C439.831 106.791 467.973 119.211 467.973 119.211C467.973 119.211 473.913 119.211 475.717 117.92C477.521 116.629 490.179 127.73 485.535 133.413Z" fill="black"/>
<path d="M485.535 132.382C485.535 132.382 477.272 137.546 463.847 132.382C463.847 132.382 449.131 126.979 444.481 116.369C439.831 105.759 428.992 94.1392 428.992 94.1392C428.992 94.1392 410.145 86.9056 411.171 79.6774C412.197 72.4493 432.859 87.6835 432.859 87.6835L441.122 95.4303L467.973 118.158C467.973 118.158 473.913 118.158 475.717 116.866C477.521 115.575 490.179 126.698 485.535 132.382Z" fill="#F7C4A7"/>
<path opacity="0.1" d="M445.258 87.4405L467.46 85.6307C466.318 89.0451 465.542 92.5708 465.143 96.1488C462.562 98.826 459.033 100.383 455.316 100.484C451.6 100.585 447.992 99.2221 445.269 96.6891C445.835 93.6318 445.831 90.4964 445.258 87.4405Z" fill="black"/>
<path d="M455.201 99.7089C463.042 99.7089 469.398 93.3503 469.398 85.5065C469.398 77.6627 463.042 71.304 455.201 71.304C447.359 71.304 441.003 77.6627 441.003 85.5065C441.003 93.3503 447.359 99.7089 455.201 99.7089Z" fill="#F7C4A7"/>
<path opacity="0.1" d="M462.993 88.5911C462.162 87.219 463.852 85.4308 463.296 83.929C462.783 82.546 460.741 82.3083 460.056 81.0172C459.516 79.9746 460.056 78.6942 459.84 77.5436C459.532 76.058 457.933 75.1342 456.416 75.0585C454.898 74.9829 453.435 75.5502 451.993 76.0364C449.644 76.8305 447.17 77.4409 444.708 77.16C442.245 76.8791 439.788 75.5393 438.692 73.3406C438.512 73.0204 438.417 72.6597 438.416 72.2926C438.459 71.4823 439.205 70.9258 439.685 70.2776C440.528 69.1485 440.625 67.6089 441.392 66.4312C442.958 64.0326 446.398 64.092 449.26 64.0812C453.472 64.0812 457.663 63.2925 461.875 63.433C466.088 63.5734 470.516 64.7673 473.308 67.933C476.656 71.7416 476.808 77.3167 476.781 82.3948C476.781 84.4854 476.694 86.7598 475.36 88.375C474.971 88.845 474.496 89.234 474.124 89.7148C473.314 90.7952 473.098 92.1782 472.336 93.2749C470.986 95.2251 468.351 95.7005 466.001 96.0138C466.693 95.922 466.12 91.2922 466.001 90.8655C465.548 88.737 465.056 88.7802 462.993 88.5911Z" fill="black"/>
<path d="M462.993 88.0779C462.162 86.7058 463.852 84.9176 463.296 83.4158C462.783 82.0328 460.741 81.7952 460.056 80.504C459.516 79.4614 460.056 78.1811 459.84 77.0304C459.532 75.5448 457.933 74.621 456.416 74.5454C454.898 74.4697 453.435 75.037 451.993 75.5232C449.644 76.3173 447.17 76.9277 444.708 76.6468C442.245 76.3659 439.788 75.0262 438.692 72.8275C438.512 72.5072 438.417 72.1465 438.416 71.7794C438.459 70.9691 439.205 70.4127 439.685 69.7644C440.528 68.6353 440.625 67.0957 441.392 65.918C442.958 63.5194 446.398 63.5788 449.26 63.568C453.472 63.568 457.663 62.7793 461.875 62.9198C466.088 63.0602 470.516 64.2541 473.308 67.4198C476.656 71.2284 476.808 76.8035 476.781 81.8816C476.781 83.9722 476.694 86.2466 475.36 87.8619C474.971 88.3319 474.496 88.7208 474.124 89.2016C473.314 90.282 473.098 91.665 472.336 92.7617C470.986 94.7119 468.351 95.1873 466.001 95.5006C466.693 95.4088 466.12 90.7791 466.001 90.3523C465.548 88.1968 465.056 88.2616 462.993 88.0779Z" fill="#281C1C"/>
<path opacity="0.1" d="M485.405 134.062C485.405 134.062 478.433 115.98 473.011 115.467C467.589 114.954 483.337 115.467 483.337 115.467L488.5 124.764L485.405 134.062Z" fill="black"/>
<path d="M485.923 134.062C485.923 134.062 478.952 115.98 473.53 115.467C468.108 114.954 483.855 115.467 483.855 115.467L489.018 124.764L485.923 134.062Z" fill="#E14B5A"/>
<path d="M466.406 342.199C466.774 345.003 466.947 347.261 466.947 347.261C467.206 345.71 483.213 338.736 483.213 338.736V334.538C482.805 334.523 482.396 334.543 481.992 334.598C478.887 335.014 476.008 336.521 473.351 338.131C471.107 339.604 468.789 340.962 466.406 342.199Z" fill="#618FD8"/>
<path opacity="0.3" d="M466.406 342.199C466.774 345.003 466.947 347.261 466.947 347.261C467.206 345.71 483.213 338.736 483.213 338.736V334.538C482.805 334.523 482.396 334.543 481.992 334.598C478.887 335.014 476.008 336.521 473.351 338.131C471.107 339.604 468.789 340.962 466.406 342.199Z" fill="black"/>
<path d="M427.443 340.286C430.796 338.736 444.999 343.641 444.999 343.641L446.436 338.752C443.957 338.25 441.494 337.623 439.075 336.878C437.945 336.551 436.841 336.143 435.77 335.657C435.055 335.274 434.319 334.932 433.567 334.63C431.714 333.993 429.786 334.263 427.885 334.582C427.637 338.061 427.443 340.286 427.443 340.286Z" fill="#618FD8"/>
<path opacity="0.3" d="M427.443 340.286C430.796 338.736 444.999 343.641 444.999 343.641L446.436 338.752C443.957 338.25 441.494 337.623 439.075 336.878C437.945 336.551 436.841 336.143 435.77 335.657C435.055 335.274 434.319 334.932 433.567 334.63C431.714 333.993 429.786 334.263 427.885 334.582C427.637 338.061 427.443 340.286 427.443 340.286Z" fill="black"/>
<path opacity="0.4" d="M497.54 355.007C497.756 354.915 497.948 354.774 498.101 354.597C498.255 354.419 498.366 354.208 498.425 353.981C498.522 354.337 498.485 354.717 498.322 355.048C498.159 355.379 497.881 355.639 497.54 355.78C494.44 357.33 476.629 358.362 467.838 351.647V350.875C476.629 357.59 494.44 356.558 497.54 355.007Z" fill="white"/>
<path opacity="0.4" d="M417.246 356.039C422.647 357.33 442.034 354.489 443.838 351.388V352.16C442.029 355.261 422.668 358.103 417.246 356.812C415.032 356.272 414.325 355.191 414.546 354.008C414.719 354.883 415.529 355.607 417.246 356.039Z" fill="white"/>
<path opacity="0.1" d="M448.742 167.896C448.742 167.896 443.06 166.086 441.511 167.896C439.961 169.706 426.714 173.946 426.714 173.946" fill="black"/>
<path d="M384.461 96.9322H412.084V96.3487H384.461V96.9322Z" fill="#8ED16F"/>
<path d="M384.461 97.5156H412.084V96.9321H384.461V97.5156Z" fill="#8ED16F"/>
<path opacity="0.1" d="M384.461 97.5156H412.084V96.9321H384.461V97.5156Z" fill="black"/>
<path d="M384.461 98.0991H412.084V97.5156H384.461V98.0991Z" fill="#8ED16F"/>
<path d="M384.461 98.6771H412.084V98.0936H384.461V98.6771Z" fill="#8ED16F"/>
<path opacity="0.1" d="M384.461 98.6771H412.084V98.0936H384.461V98.6771Z" fill="black"/>
<path d="M384.461 99.2606H412.084V98.6771H384.461V99.2606Z" fill="#8ED16F"/>
<path d="M384.461 99.8386H412.084V99.2551H384.461V99.8386Z" fill="#8ED16F"/>
<path opacity="0.1" d="M384.461 99.8386H412.084V99.2551H384.461V99.8386Z" fill="black"/>
<path d="M384.461 100.422H412.084V99.8386H384.461V100.422Z" fill="#8ED16F"/>
<path d="M384.461 101H412.084V100.417H384.461V101Z" fill="#8ED16F"/>
<path opacity="0.1" d="M384.461 101H412.084V100.417H384.461V101Z" fill="black"/>
<path d="M384.461 92.2863H412.084V91.7028H384.461V92.2863Z" fill="#8ED16F"/>
<path d="M403.999 78.473L425.237 96.1422L425.61 95.6937L404.372 78.0244L403.999 78.473Z" fill="#8ED16F"/>
<path d="M384.636 69.1769L405.874 86.8461L406.247 86.3975L385.009 68.7283L384.636 69.1769Z" fill="#8ED16F"/>
<path d="M384.461 92.8643H412.084V92.2808H384.461V92.8643Z" fill="#8ED16F"/>
<path opacity="0.1" d="M384.461 92.8643H412.084V92.2808H384.461V92.8643Z" fill="black"/>
<path d="M384.461 93.4532H412.084V92.8697H384.461V93.4532Z" fill="#8ED16F"/>
<path d="M384.461 94.0312H412.084V93.4478H384.461V94.0312Z" fill="#8ED16F"/>
<path opacity="0.1" d="M384.461 94.0312H412.084V93.4478H384.461V94.0312Z" fill="black"/>
<path d="M384.461 94.6092H412.084V94.0258H384.461V94.6092Z" fill="#8ED16F"/>
<path d="M384.461 95.1927H412.084V94.6092H384.461V95.1927Z" fill="#8ED16F"/>
<path opacity="0.1" d="M384.461 95.1927H412.084V94.6092H384.461V95.1927Z" fill="black"/>
<path d="M384.461 95.7707H412.084V95.1872H384.461V95.7707Z" fill="#8ED16F"/>
<path d="M384.461 96.3542H412.084V95.7707H384.461V96.3542Z" fill="#8ED16F"/>
<path opacity="0.1" d="M384.461 96.3542H412.084V95.7707H384.461V96.3542Z" fill="black"/>
<path d="M380.959 119.007L390.857 120.846L394.439 101.549L384.542 99.7108L380.959 119.007Z" fill="#8ED16F"/>
<path d="M389.865 110.716C390.282 108.472 389.711 106.485 388.591 106.276C387.471 106.068 386.225 107.719 385.808 109.963C385.392 112.207 385.962 114.195 387.082 114.403C388.203 114.611 389.448 112.961 389.865 110.716Z" fill="#8ED16F"/>
<path opacity="0.1" d="M389.865 110.716C390.282 108.472 389.711 106.485 388.591 106.276C387.471 106.068 386.225 107.719 385.808 109.963C385.392 112.207 385.962 114.195 387.082 114.403C388.203 114.611 389.448 112.961 389.865 110.716Z" fill="black"/>
<path d="M382.653 159.737L392.55 161.575L396.132 142.279L386.235 140.44L382.653 159.737Z" fill="#8ED16F"/>
<path d="M391.553 151.441C391.97 149.197 391.399 147.21 390.279 147.001C389.159 146.793 387.913 148.444 387.497 150.688C387.08 152.932 387.651 154.92 388.771 155.128C389.891 155.336 391.137 153.686 391.553 151.441Z" fill="#8ED16F"/>
<path opacity="0.1" d="M391.553 151.441C391.97 149.197 391.399 147.21 390.279 147.001C389.159 146.793 387.913 148.444 387.497 150.688C387.08 152.932 387.651 154.92 388.771 155.128C389.891 155.336 391.137 153.686 391.553 151.441Z" fill="black"/>
<path d="M346.856 59.6247L342.065 68.4809L359.32 77.8217L364.111 68.9655L346.856 59.6247Z" fill="#8ED16F"/>
<path d="M358.404 71.0868C358.951 70.0839 357.766 68.3827 355.758 67.2871C353.75 66.1916 351.679 66.1165 351.133 67.1194C350.586 68.1224 351.77 69.8236 353.778 70.9191C355.786 72.0147 357.857 72.0898 358.404 71.0868Z" fill="#8ED16F"/>
<path opacity="0.1" d="M358.404 71.0868C358.951 70.0839 357.766 68.3827 355.758 67.2871C353.75 66.1916 351.679 66.1165 351.133 67.1194C350.586 68.1224 351.77 69.8236 353.778 70.9191C355.786 72.0147 357.857 72.0898 358.404 71.0868Z" fill="black"/>
<path d="M308.968 234.4L304.177 243.256L321.432 252.597L326.223 243.74L308.968 234.4Z" fill="#8ED16F"/>
<path d="M318.778 245.583C319.32 244.581 318.133 242.888 316.126 241.801C314.119 240.715 312.053 240.647 311.511 241.65C310.968 242.652 312.156 244.345 314.162 245.431C316.169 246.518 318.235 246.586 318.778 245.583Z" fill="#8ED16F"/>
<path opacity="0.1" d="M318.778 245.583C319.32 244.581 318.133 242.888 316.126 241.801C314.119 240.715 312.053 240.647 311.511 241.65C310.968 242.652 312.156 244.345 314.162 245.431C316.169 246.518 318.235 246.586 318.778 245.583Z" fill="black"/>
<path d="M285.787 90.1695L280.996 99.0257L298.251 108.366L303.042 99.5103L285.787 90.1695Z" fill="#8ED16F"/>
<path d="M295.592 101.345C296.134 100.343 294.947 98.6497 292.94 97.5634C290.933 96.4771 288.867 96.4091 288.325 97.4115C287.783 98.4138 288.97 100.107 290.976 101.193C292.983 102.28 295.049 102.348 295.592 101.345Z" fill="#8ED16F"/>
<path opacity="0.1" d="M295.592 101.345C296.134 100.343 294.947 98.6497 292.94 97.5634C290.933 96.4771 288.867 96.4091 288.325 97.4115C287.783 98.4138 288.97 100.107 290.976 101.193C292.983 102.28 295.049 102.348 295.592 101.345Z" fill="black"/>
<path d="M314.84 59.6225L310.049 68.4786L327.305 77.8194L332.095 68.9632L314.84 59.6225Z" fill="#8ED16F"/>
<path d="M324.645 70.7982C325.188 69.7958 324 68.1026 321.994 67.0163C319.987 65.9301 317.921 65.862 317.378 66.8644C316.836 67.8668 318.023 69.56 320.03 70.6462C322.037 71.7325 324.103 71.8005 324.645 70.7982Z" fill="#8ED16F"/>
<path opacity="0.1" d="M324.645 70.7982C325.188 69.7958 324 68.1026 321.994 67.0163C319.987 65.9301 317.921 65.862 317.378 66.8644C316.836 67.8668 318.023 69.56 320.03 70.6462C322.037 71.7325 324.103 71.8005 324.645 70.7982Z" fill="black"/>
<path d="M343.847 95.666L333.841 96.7605L335.973 116.27L345.98 115.176L343.847 95.666Z" fill="#8ED16F"/>
<path d="M340.227 110.093C341.36 109.969 342.077 108.03 341.829 105.761C341.581 103.492 340.462 101.753 339.329 101.877C338.197 102.001 337.479 103.94 337.727 106.209C337.975 108.478 339.095 110.217 340.227 110.093Z" fill="#8ED16F"/>
<path opacity="0.1" d="M340.227 110.093C341.36 109.969 342.077 108.03 341.829 105.761C341.581 103.492 340.462 101.753 339.329 101.877C338.197 102.001 337.479 103.94 337.727 106.209C337.975 108.478 339.095 110.217 340.227 110.093Z" fill="black"/>
<path d="M412.455 202.499L402.448 203.594L404.581 223.104L414.587 222.009L412.455 202.499Z" fill="#8ED16F"/>
<path d="M408.84 216.926C409.972 216.803 410.689 214.863 410.441 212.594C410.193 210.325 409.074 208.586 407.941 208.71C406.809 208.834 406.092 210.774 406.34 213.043C406.588 215.311 407.707 217.05 408.84 216.926Z" fill="#8ED16F"/>
<path opacity="0.1" d="M408.84 216.926C409.972 216.803 410.689 214.863 410.441 212.594C410.193 210.325 409.074 208.586 407.941 208.71C406.809 208.834 406.092 210.774 406.34 213.043C406.588 215.311 407.707 217.05 408.84 216.926Z" fill="black"/>
<path d="M304.664 137.11L299.873 145.967L317.128 155.307L321.919 146.451L304.664 137.11Z" fill="#8ED16F"/>
<path d="M314.466 148.293C315.008 147.291 313.821 145.598 311.814 144.512C309.808 143.425 307.741 143.357 307.199 144.36C306.657 145.362 307.844 147.055 309.851 148.142C311.857 149.228 313.924 149.296 314.466 148.293Z" fill="#8ED16F"/>
<path opacity="0.1" d="M314.466 148.293C315.008 147.291 313.821 145.598 311.814 144.512C309.808 143.425 307.741 143.357 307.199 144.36C306.657 145.362 307.844 147.055 309.851 148.142C311.857 149.228 313.924 149.296 314.466 148.293Z" fill="black"/>
<path d="M261.121 124.67L256.33 133.526L273.585 142.867L278.376 134.011L261.121 124.67Z" fill="#8ED16F"/>
<path d="M272.359 136.441C272.906 135.438 271.722 133.737 269.714 132.642C267.706 131.546 265.635 131.471 265.088 132.474C264.541 133.477 265.726 135.178 267.734 136.274C269.741 137.369 271.812 137.444 272.359 136.441Z" fill="#8ED16F"/>
<path opacity="0.1" d="M272.359 136.441C272.906 135.438 271.722 133.737 269.714 132.642C267.706 131.546 265.635 131.471 265.088 132.474C264.541 133.477 265.726 135.178 267.734 136.274C269.741 137.369 271.812 137.444 272.359 136.441Z" fill="black"/>
<path d="M247.176 334.118L242.385 342.974L259.64 352.315L264.431 343.459L247.176 334.118Z" fill="#8ED16F"/>
<path d="M256.98 345.296C257.522 344.294 256.335 342.601 254.328 341.515C252.322 340.428 250.255 340.36 249.713 341.363C249.171 342.365 250.358 344.058 252.365 345.145C254.371 346.231 256.438 346.299 256.98 345.296Z" fill="#8ED16F"/>
<path opacity="0.1" d="M256.98 345.296C257.522 344.294 256.335 342.601 254.328 341.515C252.322 340.428 250.255 340.36 249.713 341.363C249.171 342.365 250.358 344.058 252.365 345.145C254.371 346.231 256.438 346.299 256.98 345.296Z" fill="black"/>
<path d="M234.621 337.532L232.785 347.432L252.076 351.012L253.912 341.112L234.621 337.532Z" fill="#8ED16F"/>
<path opacity="0.05" d="M234.621 337.532L232.785 347.432L252.076 351.012L253.912 341.112L234.621 337.532Z" fill="black"/>
<path d="M247.391 345.151C247.599 344.031 245.949 342.785 243.705 342.369C241.462 341.952 239.475 342.523 239.267 343.644C239.059 344.764 240.709 346.01 242.953 346.427C245.196 346.843 247.183 346.272 247.391 345.151Z" fill="#8ED16F"/>
<path opacity="0.1" d="M247.391 345.151C247.599 344.031 245.949 342.785 243.705 342.369C241.462 341.952 239.475 342.523 239.267 343.644C239.059 344.764 240.709 346.01 242.953 346.427C245.196 346.843 247.183 346.272 247.391 345.151Z" fill="black"/>
<path d="M236.429 343.469L234.593 353.37L253.883 356.95L255.719 347.049L236.429 343.469Z" fill="#8ED16F"/>
<path d="M249.193 351.089C249.401 349.968 247.751 348.722 245.507 348.306C243.264 347.89 241.277 348.461 241.069 349.581C240.861 350.702 242.511 351.948 244.755 352.364C246.998 352.78 248.985 352.209 249.193 351.089Z" fill="#8ED16F"/>
<path opacity="0.1" d="M249.193 351.089C249.401 349.968 247.751 348.722 245.507 348.306C243.264 347.89 241.277 348.461 241.069 349.581C240.861 350.702 242.511 351.948 244.755 352.364C246.998 352.78 248.985 352.209 249.193 351.089Z" fill="black"/>
<path d="M267.529 359.572L262.738 368.429L279.993 377.769L284.784 368.913L267.529 359.572Z" fill="#8ED16F"/>
<path d="M277.339 370.751C277.881 369.748 276.694 368.055 274.687 366.969C272.681 365.883 270.614 365.815 270.072 366.817C269.53 367.819 270.717 369.513 272.724 370.599C274.73 371.685 276.797 371.753 277.339 370.751Z" fill="#8ED16F"/>
<path opacity="0.1" d="M277.339 370.751C277.881 369.748 276.694 368.055 274.687 366.969C272.681 365.883 270.614 365.815 270.072 366.817C269.53 367.819 270.717 369.513 272.724 370.599C274.73 371.685 276.797 371.753 277.339 370.751Z" fill="black"/>
<path d="M254.979 362.979L253.143 372.88L272.433 376.46L274.269 366.559L254.979 362.979Z" fill="#8ED16F"/>
<path opacity="0.05" d="M254.979 362.979L253.143 372.88L272.433 376.46L274.269 366.559L254.979 362.979Z" fill="black"/>
<path d="M267.743 370.599C267.951 369.478 266.301 368.232 264.057 367.816C261.814 367.4 259.827 367.971 259.619 369.091C259.411 370.212 261.061 371.458 263.305 371.874C265.548 372.29 267.535 371.719 267.743 370.599Z" fill="#8ED16F"/>
<path opacity="0.1" d="M267.743 370.599C267.951 369.478 266.301 368.232 264.057 367.816C261.814 367.4 259.827 367.971 259.619 369.091C259.411 370.212 261.061 371.458 263.305 371.874C265.548 372.29 267.535 371.719 267.743 370.599Z" fill="black"/>
<path d="M256.785 368.923L254.949 378.824L274.24 382.404L276.076 372.503L256.785 368.923Z" fill="#8ED16F"/>
<path d="M269.555 376.543C269.763 375.422 268.112 374.176 265.869 373.76C263.626 373.344 261.639 373.914 261.431 375.035C261.223 376.156 262.873 377.402 265.116 377.818C267.36 378.234 269.347 377.663 269.555 376.543Z" fill="#8ED16F"/>
<path opacity="0.1" d="M269.555 376.543C269.763 375.422 268.112 374.176 265.869 373.76C263.626 373.344 261.639 373.914 261.431 375.035C261.223 376.156 262.873 377.402 265.116 377.818C267.36 378.234 269.347 377.663 269.555 376.543Z" fill="black"/>
<path d="M298.067 343.168L293.277 352.025L310.532 361.365L315.323 352.509L298.067 343.168Z" fill="#8ED16F"/>
<path d="M307.867 354.344C308.409 353.342 307.222 351.649 305.216 350.562C303.209 349.476 301.143 349.408 300.6 350.41C300.058 351.413 301.245 353.106 303.252 354.192C305.259 355.279 307.325 355.347 307.867 354.344Z" fill="#8ED16F"/>
<path opacity="0.1" d="M307.867 354.344C308.409 353.342 307.222 351.649 305.216 350.562C303.209 349.476 301.143 349.408 300.6 350.41C300.058 351.413 301.245 353.106 303.252 354.192C305.259 355.279 307.325 355.347 307.867 354.344Z" fill="black"/>
<path d="M285.514 346.578L283.678 356.479L302.969 360.059L304.805 350.158L285.514 346.578Z" fill="#8ED16F"/>
<path opacity="0.05" d="M285.514 346.578L283.678 356.479L302.969 360.059L304.805 350.158L285.514 346.578Z" fill="black"/>
<path d="M298.278 354.198C298.486 353.078 296.836 351.832 294.593 351.415C292.349 350.999 290.362 351.57 290.154 352.69C289.947 353.811 291.597 355.057 293.84 355.473C296.084 355.89 298.071 355.319 298.278 354.198Z" fill="#8ED16F"/>
<path opacity="0.1" d="M298.278 354.198C298.486 353.078 296.836 351.832 294.593 351.415C292.349 350.999 290.362 351.57 290.154 352.69C289.947 353.811 291.597 355.057 293.84 355.473C296.084 355.89 298.071 355.319 298.278 354.198Z" fill="black"/>
<path d="M287.321 352.521L285.484 362.422L304.775 366.002L306.611 356.101L287.321 352.521Z" fill="#8ED16F"/>
<path d="M300.09 360.142C300.298 359.021 298.648 357.775 296.404 357.359C294.161 356.943 292.174 357.514 291.966 358.634C291.758 359.755 293.408 361.001 295.652 361.417C297.895 361.833 299.882 361.263 300.09 360.142Z" fill="#8ED16F"/>
<path opacity="0.1" d="M300.09 360.142C300.298 359.021 298.648 357.775 296.404 357.359C294.161 356.943 292.174 357.514 291.966 358.634C291.758 359.755 293.408 361.001 295.652 361.417C297.895 361.833 299.882 361.263 300.09 360.142Z" fill="black"/>
</g>
<defs>
<linearGradient id="paint0_linear" x1="249.348" y1="335.246" x2="249.348" y2="143.408" gradientUnits="userSpaceOnUse">
<stop stop-color="#808080" stop-opacity="0.25"/>
<stop offset="0.54" stop-color="#808080" stop-opacity="0.12"/>
<stop offset="1" stop-color="#808080" stop-opacity="0.1"/>
</linearGradient>
<linearGradient id="paint1_linear" x1="-346976" y1="226138" x2="-346976" y2="61399.8" gradientUnits="userSpaceOnUse">
<stop stop-color="#808080" stop-opacity="0.25"/>
<stop offset="0.54" stop-color="#808080" stop-opacity="0.12"/>
<stop offset="1" stop-color="#808080" stop-opacity="0.1"/>
</linearGradient>
<clipPath id="clip0">
<rect width="526" height="386" fill="white"/>
</clipPath>
</defs>
</svg>
