<svg width="481" height="401" viewBox="0 0 481 401" fill="none" xmlns="http://www.w3.org/2000/svg">
<g opacity="0.5">
<path opacity="0.5" d="M331.405 45.1056H85.3408V375.705H331.405V45.1056Z" fill="url(#paint0_linear)"/>
</g>
<path d="M326.92 49.5894H88.547V368.655H326.92V49.5894Z" fill="#F2F2F2"/>
<path d="M189.149 63.0461H107.129V65.6076H189.149V63.0461Z" fill="#E0E0E0"/>
<path opacity="0.7" d="M189.149 74.5753H107.129V77.1368H189.149V74.5753Z" fill="#F82462"/>
<path d="M283.343 63.0461H201.324V65.6076H283.343V63.0461Z" fill="#E0E0E0"/>
<path d="M296.158 136.087H214.138V138.648H296.158V136.087Z" fill="#E0E0E0"/>
<path d="M298.08 143.132H216.061V145.693H298.08V143.132Z" fill="#E0E0E0"/>
<path d="M301.925 150.177H219.906V152.739H301.925V150.177Z" fill="#E0E0E0"/>
<path d="M296.158 249.487H214.138V252.048H296.158V249.487Z" fill="#E0E0E0"/>
<path d="M298.08 256.538H216.061V259.099H298.08V256.538Z" fill="#E0E0E0"/>
<path d="M301.925 263.583H219.906V266.144H301.925V263.583Z" fill="#E0E0E0"/>
<g opacity="0.5">
<path opacity="0.5" d="M194.917 109.817H107.768V198.232H194.917V109.817Z" fill="url(#paint1_linear)"/>
</g>
<path d="M194.089 111.74H108.318V196.31H194.089V111.74Z" fill="#F5F5F5"/>
<g opacity="0.5">
<path opacity="0.5" d="M191.339 116.863H111.341V171.963H191.339V116.863Z" fill="url(#paint2_linear)"/>
</g>
<path d="M190.789 117.502H111.891V170.679H190.789V117.502Z" fill="white"/>
<path opacity="0.4" d="M105.207 168.762L125.072 138.004L133.402 151.461L151.34 132.881L166.721 151.461L180.18 123.913L214.782 179.013L102.645 175.168L105.207 168.762Z" fill="#F82462"/>
<path opacity="0.4" d="M120.583 130.959C123.768 130.959 126.351 128.377 126.351 125.191C126.351 122.006 123.768 119.424 120.583 119.424C117.397 119.424 114.815 122.006 114.815 125.191C114.815 128.377 117.397 130.959 120.583 130.959Z" fill="#F82462"/>
<g opacity="0.5">
<path opacity="0.5" d="M194.917 223.218H107.768V311.632H194.917V223.218Z" fill="url(#paint3_linear)"/>
</g>
<path d="M194.089 225.14H108.318V309.71H194.089V225.14Z" fill="#F5F5F5"/>
<g opacity="0.5">
<path opacity="0.5" d="M191.339 230.268H111.341V285.368H191.339V230.268Z" fill="url(#paint4_linear)"/>
</g>
<path d="M190.789 230.907H111.891V284.085H190.789V230.907Z" fill="white"/>
<path opacity="0.4" d="M105.207 282.162L125.072 251.409L133.402 264.866L151.34 246.286L166.721 264.866L180.18 237.313L214.782 292.413L102.645 288.569L105.207 282.162Z" fill="#BDBDBD"/>
<path opacity="0.4" d="M120.583 244.364C123.768 244.364 126.351 241.782 126.351 238.597C126.351 235.412 123.768 232.83 120.583 232.83C117.397 232.83 114.815 235.412 114.815 238.597C114.815 241.782 117.397 244.364 120.583 244.364Z" fill="#BDBDBD"/>
<g opacity="0.5">
<path opacity="0.5" d="M185.917 28.7703L121.468 353.029L362.812 400.985L427.261 76.7262L185.917 28.7703Z" fill="url(#paint5_linear)"/>
</g>
<path d="M188.181 33.7942L125.981 346.739L359.782 393.196L421.982 80.2513L188.181 33.7942Z" fill="white"/>
<path d="M368.225 84.5847L202.302 51.6152L201.803 54.1275L367.726 87.097L368.225 84.5847Z" fill="#E0E0E0"/>
<path d="M321.011 322.13L155.088 289.16L154.588 291.673L320.511 324.642L321.011 322.13Z" fill="#E0E0E0"/>
<path d="M280.428 329.092L152.216 303.615L151.716 306.128L279.929 331.604L280.428 329.092Z" fill="#E0E0E0"/>
<path opacity="0.7" d="M197.113 327.558L149.346 318.066L148.847 320.579L196.613 330.07L197.113 327.558Z" fill="#F82462"/>
<path opacity="0.7" d="M282.392 82.56L199.433 66.0758L198.934 68.5881L281.893 85.0724L282.392 82.56Z" fill="#F82462"/>
<path d="M346.144 110.249L196.561 80.526L196.061 83.0383L345.645 112.761L346.144 110.249Z" fill="#E0E0E0"/>
<path opacity="0.7" d="M230.141 102.224L193.69 94.981L193.19 97.4933L229.642 104.736L230.141 102.224Z" fill="#3AD29F"/>
<path d="M356.735 142.401L190.812 109.432L190.313 111.944L356.236 144.914L356.735 142.401Z" fill="#E0E0E0"/>
<g opacity="0.5">
<path opacity="0.5" d="M205.438 170.48L188.452 255.945L337.403 285.542L354.389 200.077L205.438 170.48Z" fill="url(#paint6_linear)"/>
</g>
<path d="M353.354 200.522L206.283 171.299L189.671 254.878L336.742 284.102L353.354 200.522Z" fill="white"/>
<path d="M353.863 156.855L187.94 123.885L187.44 126.398L353.363 159.367L353.863 156.855Z" fill="#E0E0E0"/>
<path d="M237.661 189.29L219.436 185.668L207.321 246.622L225.547 250.243L237.661 189.29Z" fill="#F82462"/>
<path d="M266.345 215.897L248.12 212.276L240.001 253.12L258.227 256.741L266.345 215.897Z" fill="#3AD29F"/>
<path d="M295.281 241.237L277.055 237.616L272.683 259.61L290.909 263.232L295.281 241.237Z" fill="#F55F44"/>
<path d="M332.458 225.112L314.232 221.491L305.364 266.106L323.59 269.728L332.458 225.112Z" fill="#FDD835"/>
<path d="M382.908 314.838H285.214V395.018H382.908V314.838Z" fill="url(#paint7_linear)"/>
<path d="M305.368 299.501C305.368 291.922 308.378 284.654 313.738 279.296C319.097 273.937 326.366 270.927 333.945 270.927C341.525 270.927 348.794 273.937 354.153 279.296C359.513 284.654 362.523 291.922 362.523 299.501V317.787H370.523V299.501C370.523 289.8 366.669 280.497 359.809 273.638C352.949 266.779 343.645 262.925 333.943 262.925C324.241 262.925 314.937 266.779 308.077 273.638C301.217 280.497 297.363 289.8 297.363 299.501V317.787H305.362L305.368 299.501Z" fill="url(#paint8_linear)"/>
<path d="M306.509 299.108C306.509 291.832 309.4 284.855 314.545 279.71C319.69 274.566 326.669 271.676 333.945 271.676C341.222 271.676 348.2 274.566 353.345 279.71C358.491 284.855 361.381 291.832 361.381 299.108V316.666H369.061V299.108C369.061 289.796 365.362 280.865 358.776 274.28C352.191 267.696 343.259 263.997 333.945 263.997C324.632 263.997 315.7 267.696 309.115 274.28C302.529 280.865 298.829 289.796 298.829 299.108V316.666H306.509V299.108Z" fill="#F5F5F5"/>
<path d="M381.682 315.571H286.209V393.478H381.682V315.571Z" fill="#F82462"/>
<path d="M381.682 315.571H286.209V393.478H381.682V315.571Z" fill="#F5F5F5"/>
<path d="M381.682 330.929H286.209V378.109H381.682V330.929Z" fill="#F82462"/>
<path d="M340.944 345.596C340.946 344.454 340.667 343.328 340.133 342.318C339.6 341.308 338.826 340.444 337.882 339.801C336.937 339.159 335.849 338.757 334.713 338.632C333.577 338.507 332.428 338.661 331.366 339.082C330.304 339.503 329.361 340.178 328.619 341.048C327.878 341.917 327.361 342.955 327.113 344.07C326.865 345.185 326.894 346.344 327.197 347.446C327.501 348.547 328.069 349.558 328.853 350.389V365.323C328.853 366.673 329.39 367.968 330.345 368.923C331.3 369.878 332.595 370.415 333.945 370.415C335.296 370.415 336.591 369.878 337.546 368.923C338.501 367.968 339.038 366.673 339.038 365.323V350.405C340.267 349.106 340.95 347.384 340.944 345.596Z" fill="url(#paint9_linear)"/>
<path opacity="0.2" d="M339.981 346.843C339.982 345.858 339.742 344.887 339.282 344.016C338.821 343.145 338.154 342.4 337.34 341.846C336.525 341.291 335.587 340.945 334.607 340.837C333.628 340.729 332.637 340.862 331.721 341.226C330.805 341.589 329.992 342.171 329.353 342.92C328.713 343.67 328.267 344.565 328.054 345.527C327.84 346.489 327.865 347.488 328.127 348.438C328.389 349.388 328.879 350.259 329.555 350.976V363.851C329.555 365.015 330.018 366.132 330.841 366.955C331.664 367.778 332.781 368.241 333.945 368.241C335.11 368.241 336.226 367.778 337.05 366.955C337.873 366.132 338.336 365.015 338.336 363.851V350.976C339.393 349.859 339.981 348.38 339.981 346.843Z" fill="black"/>
<defs>
<linearGradient id="paint0_linear" x1="208.37" y1="375.705" x2="208.37" y2="45.1056" gradientUnits="userSpaceOnUse">
<stop stop-color="#808080" stop-opacity="0.25"/>
<stop offset="0.54" stop-color="#808080" stop-opacity="0.12"/>
<stop offset="1" stop-color="#808080" stop-opacity="0.1"/>
</linearGradient>
<linearGradient id="paint1_linear" x1="25283.2" y1="33569.4" x2="25283.2" y2="18645.9" gradientUnits="userSpaceOnUse">
<stop stop-color="#808080" stop-opacity="0.25"/>
<stop offset="0.54" stop-color="#808080" stop-opacity="0.12"/>
<stop offset="1" stop-color="#808080" stop-opacity="0.1"/>
</linearGradient>
<linearGradient id="paint2_linear" x1="23221" y1="18205.6" x2="23221" y2="12409.7" gradientUnits="userSpaceOnUse">
<stop stop-color="#808080" stop-opacity="0.25"/>
<stop offset="0.54" stop-color="#808080" stop-opacity="0.12"/>
<stop offset="1" stop-color="#808080" stop-opacity="0.1"/>
</linearGradient>
<linearGradient id="paint3_linear" x1="25283.2" y1="52824.5" x2="25283.2" y2="37900.1" gradientUnits="userSpaceOnUse">
<stop stop-color="#808080" stop-opacity="0.25"/>
<stop offset="0.54" stop-color="#808080" stop-opacity="0.12"/>
<stop offset="1" stop-color="#808080" stop-opacity="0.1"/>
</linearGradient>
<linearGradient id="paint4_linear" x1="23221" y1="30248.1" x2="23221" y2="24452.2" gradientUnits="userSpaceOnUse">
<stop stop-color="#808080" stop-opacity="0.25"/>
<stop offset="0.54" stop-color="#808080" stop-opacity="0.12"/>
<stop offset="1" stop-color="#808080" stop-opacity="0.1"/>
</linearGradient>
<linearGradient id="paint5_linear" x1="181454" y1="226832" x2="211717" y2="74530" gradientUnits="userSpaceOnUse">
<stop stop-color="#808080" stop-opacity="0.25"/>
<stop offset="0.54" stop-color="#808080" stop-opacity="0.12"/>
<stop offset="1" stop-color="#808080" stop-opacity="0.1"/>
</linearGradient>
<linearGradient id="paint6_linear" x1="41197.5" y1="94008.7" x2="46120.3" y2="69233.9" gradientUnits="userSpaceOnUse">
<stop stop-color="#808080" stop-opacity="0.25"/>
<stop offset="0.54" stop-color="#808080" stop-opacity="0.12"/>
<stop offset="1" stop-color="#808080" stop-opacity="0.1"/>
</linearGradient>
<linearGradient id="paint7_linear" x1="62580.9" y1="60780.2" x2="62580.9" y2="48507.1" gradientUnits="userSpaceOnUse">
<stop stop-color="#808080" stop-opacity="0.25"/>
<stop offset="0.54" stop-color="#808080" stop-opacity="0.12"/>
<stop offset="1" stop-color="#808080" stop-opacity="0.1"/>
</linearGradient>
<linearGradient id="paint8_linear" x1="57243.4" y1="37232" x2="57243.4" y2="31486.3" gradientUnits="userSpaceOnUse">
<stop stop-color="#808080" stop-opacity="0.25"/>
<stop offset="0.54" stop-color="#808080" stop-opacity="0.12"/>
<stop offset="1" stop-color="#808080" stop-opacity="0.1"/>
</linearGradient>
<linearGradient id="paint9_linear" x1="11222.7" y1="24983.9" x2="11222.7" y2="23050.6" gradientUnits="userSpaceOnUse">
<stop stop-color="#808080" stop-opacity="0.25"/>
<stop offset="0.54" stop-color="#808080" stop-opacity="0.12"/>
<stop offset="1" stop-color="#808080" stop-opacity="0.1"/>
</linearGradient>
</defs>
</svg>
