<svg width="79" height="79" viewBox="0 0 79 79" fill="none" xmlns="http://www.w3.org/2000/svg">
    <path d="M46.5428 29.0077C48.7751 29.0077 50.5847 27.1981 50.5847 24.9658C50.5847 22.7336 48.7751 20.924 46.5428 20.924C44.3106 20.924 42.501 22.7336 42.501 24.9658C42.501 27.1981 44.3106 29.0077 46.5428 29.0077Z" fill="#F82462"/>
    <path d="M3.92062 72.1821C3.92062 72.1821 3.92062 72.2434 3.92062 72.1821C3.92062 72.2434 3.92062 72.2434 3.98186 72.2434C4.0431 72.3659 4.10434 72.5496 4.16558 72.6721C4.16558 72.7333 4.22682 72.7333 4.22682 72.7945C4.22682 72.8558 4.28806 72.8558 4.28806 72.917L4.3493 72.9783C4.41054 73.1007 4.53302 73.162 4.59426 73.2845L4.6555 73.3457C4.71674 73.4069 4.71674 73.4069 4.77798 73.4682C4.83922 73.4682 4.83922 73.5294 4.83922 73.5294C4.90046 73.5907 4.9617 73.5907 5.02294 73.6519L5.08418 73.7132C5.08418 73.7132 5.14542 73.7132 5.14542 73.7744C5.20666 73.8356 5.32914 73.8356 5.39038 73.8969C5.45162 73.8969 5.45162 73.8969 5.51286 73.9581C5.5741 73.9581 5.63534 74.0193 5.63534 74.0193C5.81906 74.0806 6.00279 74.0806 6.18651 74.0806H72.4485C73.8571 74.0806 74.9594 72.9783 74.9594 71.5697V55.0349V5.49144C74.9594 4.08292 73.8571 2.98059 72.4485 2.98059H6.37023C4.9617 2.98059 3.85938 4.08292 3.85938 5.49144V54.9124V71.4473C3.85938 71.631 3.92062 71.8759 3.92062 72.0597C3.92062 72.1209 3.92062 72.1821 3.92062 72.1821ZM70.1214 68.9976H14.7602L55.6687 42.2356L70.1214 56.0147V68.9976ZM8.88108 8.0023H70.1214V49.0945L57.6896 37.2139C56.8322 36.4178 55.5462 36.2953 54.5664 36.9077L42.8695 44.624L34.7245 36.4178C33.8671 35.5604 32.5811 35.438 31.6012 36.0504L8.88108 50.3806V8.0023ZM8.88108 56.3209L32.5811 41.3783L38.5826 47.4411L8.88108 66.8542V56.3209Z" fill="#F82462"/>
</svg>
