<svg width="44" height="44" viewBox="0 0 44 44" fill="none" xmlns="http://www.w3.org/2000/svg">
<g clip-path="url(#clip0)">
<path d="M27.2786 21.9999C27.2786 29.5947 21.1732 35.7486 13.6393 35.7486C6.10535 35.7486 0 29.5934 0 21.9999C0 14.4064 6.10685 8.25122 13.6393 8.25122C21.1717 8.25122 27.2786 14.4064 27.2786 21.9999Z" fill="#E2574C"/>
<path d="M30.0198 8.25122C26.9609 8.25122 24.1449 9.27827 21.8692 10.9928L21.8802 10.9941C22.3277 11.4299 22.8215 11.7366 23.2022 12.2383L20.3643 12.2837C19.9196 12.7361 19.5144 13.2283 19.1324 13.7398H24.1367C24.5174 14.2003 24.8693 14.6005 25.1886 15.1091H18.2251C17.97 15.5519 17.734 16.007 17.528 16.4798H25.9814C26.2024 16.9514 26.4003 17.3075 26.5681 17.8067H17.0273C16.8758 18.2811 16.7462 18.7663 16.6479 19.2612H26.9678C27.0688 19.737 27.1465 20.1768 27.1998 20.6251H16.4432C16.3982 21.0775 16.375 21.5367 16.375 22.0001H27.2774C27.2774 22.4868 27.2433 22.9377 27.1942 23.375H16.4432C16.4896 23.8411 16.5579 24.2989 16.6479 24.7499H26.9514C26.845 25.1954 26.7221 25.6435 26.568 26.1083H16.9958C17.1404 26.5784 17.3165 27.0349 17.5088 27.4803H25.9814C25.7468 27.9808 25.4807 28.3809 25.1874 28.8497H18.2007C18.4764 29.3309 18.7806 29.79 19.1107 30.23L24.1368 30.3056C23.7084 30.8239 23.1587 31.136 22.6578 31.5897C22.6851 31.6118 21.857 31.587 20.2265 31.5609C22.7069 34.1402 26.1737 35.7488 30.0197 35.7488C37.555 35.7488 43.663 29.5934 43.663 22.0001C43.663 14.4067 37.5563 8.25122 30.0198 8.25122Z" fill="#F4B459"/>
</g>
<defs>
<clipPath id="clip0">
<rect width="43.6628" height="44" fill="white"/>
</clipPath>
</defs>
</svg>
